%TF.GenerationSoftware,KiCad,Pcbnew,(6.0.4)*%
%TF.CreationDate,2022-04-28T22:28:36-04:00*%
%TF.ProjectId,capacitor_daughterboard,63617061-6369-4746-9f72-5f6461756768,0*%
%TF.SameCoordinates,Original*%
%TF.FileFunction,Legend,Bot*%
%TF.FilePolarity,Positive*%
%FSLAX46Y46*%
G04 Gerber Fmt 4.6, Leading zero omitted, Abs format (unit mm)*
G04 Created by KiCad (PCBNEW (6.0.4)) date 2022-04-28 22:28:36*
%MOMM*%
%LPD*%
G01*
G04 APERTURE LIST*
%ADD10C,0.150000*%
%ADD11C,0.120000*%
G04 APERTURE END LIST*
D10*
%TO.C,J2*%
X148333333Y-73122380D02*
X148333333Y-73836666D01*
X148380952Y-73979523D01*
X148476190Y-74074761D01*
X148619047Y-74122380D01*
X148714285Y-74122380D01*
X147904761Y-73217619D02*
X147857142Y-73170000D01*
X147761904Y-73122380D01*
X147523809Y-73122380D01*
X147428571Y-73170000D01*
X147380952Y-73217619D01*
X147333333Y-73312857D01*
X147333333Y-73408095D01*
X147380952Y-73550952D01*
X147952380Y-74122380D01*
X147333333Y-74122380D01*
%TO.C,J1*%
X133083333Y-73122380D02*
X133083333Y-73836666D01*
X133130952Y-73979523D01*
X133226190Y-74074761D01*
X133369047Y-74122380D01*
X133464285Y-74122380D01*
X132083333Y-74122380D02*
X132654761Y-74122380D01*
X132369047Y-74122380D02*
X132369047Y-73122380D01*
X132464285Y-73265238D01*
X132559523Y-73360476D01*
X132654761Y-73408095D01*
D11*
%TO.C,J2*%
X149330000Y-74670000D02*
X148000000Y-74670000D01*
X146670000Y-77270000D02*
X146670000Y-87490000D01*
X149330000Y-76000000D02*
X149330000Y-74670000D01*
X149330000Y-77270000D02*
X149330000Y-87490000D01*
X149330000Y-87490000D02*
X146670000Y-87490000D01*
X149330000Y-77270000D02*
X146670000Y-77270000D01*
%TO.C,J1*%
X134080000Y-77270000D02*
X134080000Y-87490000D01*
X134080000Y-74670000D02*
X132750000Y-74670000D01*
X134080000Y-77270000D02*
X131420000Y-77270000D01*
X134080000Y-76000000D02*
X134080000Y-74670000D01*
X134080000Y-87490000D02*
X131420000Y-87490000D01*
X131420000Y-77270000D02*
X131420000Y-87490000D01*
%TD*%
M02*
