%TF.GenerationSoftware,KiCad,Pcbnew,(6.0.4)*%
%TF.CreationDate,2022-04-28T22:28:36-04:00*%
%TF.ProjectId,capacitor_daughterboard,63617061-6369-4746-9f72-5f6461756768,0*%
%TF.SameCoordinates,Original*%
%TF.FileFunction,Copper,L1,Top*%
%TF.FilePolarity,Positive*%
%FSLAX46Y46*%
G04 Gerber Fmt 4.6, Leading zero omitted, Abs format (unit mm)*
G04 Created by KiCad (PCBNEW (6.0.4)) date 2022-04-28 22:28:36*
%MOMM*%
%LPD*%
G01*
G04 APERTURE LIST*
G04 Aperture macros list*
%AMRoundRect*
0 Rectangle with rounded corners*
0 $1 Rounding radius*
0 $2 $3 $4 $5 $6 $7 $8 $9 X,Y pos of 4 corners*
0 Add a 4 corners polygon primitive as box body*
4,1,4,$2,$3,$4,$5,$6,$7,$8,$9,$2,$3,0*
0 Add four circle primitives for the rounded corners*
1,1,$1+$1,$2,$3*
1,1,$1+$1,$4,$5*
1,1,$1+$1,$6,$7*
1,1,$1+$1,$8,$9*
0 Add four rect primitives between the rounded corners*
20,1,$1+$1,$2,$3,$4,$5,0*
20,1,$1+$1,$4,$5,$6,$7,0*
20,1,$1+$1,$6,$7,$8,$9,0*
20,1,$1+$1,$8,$9,$2,$3,0*%
G04 Aperture macros list end*
%TA.AperFunction,SMDPad,CuDef*%
%ADD10RoundRect,0.388889X-1.011111X-7.611111X1.011111X-7.611111X1.011111X7.611111X-1.011111X7.611111X0*%
%TD*%
%TA.AperFunction,ComponentPad*%
%ADD11R,1.700000X1.700000*%
%TD*%
%TA.AperFunction,ComponentPad*%
%ADD12O,1.700000X1.700000*%
%TD*%
%TA.AperFunction,Conductor*%
%ADD13C,3.175000*%
%TD*%
G04 APERTURE END LIST*
D10*
%TO.P,C1/2,1*%
%TO.N,Net-(C1/2-Pad1)*%
X137025000Y-81000000D03*
%TO.P,C1/2,2*%
%TO.N,Net-(C1/2-Pad2)*%
X143725000Y-81000000D03*
%TD*%
D11*
%TO.P,J2,1,Pin_1*%
%TO.N,Net-(C1/2-Pad2)*%
X148000000Y-76000000D03*
D12*
%TO.P,J2,2,Pin_2*%
X148000000Y-78540000D03*
%TO.P,J2,3,Pin_3*%
X148000000Y-81080000D03*
%TO.P,J2,4,Pin_4*%
X148000000Y-83620000D03*
%TO.P,J2,5,Pin_5*%
X148000000Y-86160000D03*
%TD*%
D11*
%TO.P,J1,1,Pin_1*%
%TO.N,Net-(C1/2-Pad1)*%
X132750000Y-76000000D03*
D12*
%TO.P,J1,2,Pin_2*%
X132750000Y-78540000D03*
%TO.P,J1,3,Pin_3*%
X132750000Y-81080000D03*
%TO.P,J1,4,Pin_4*%
X132750000Y-83620000D03*
%TO.P,J1,5,Pin_5*%
X132750000Y-86160000D03*
%TD*%
D13*
%TO.N,Net-(C1/2-Pad2)*%
X148000000Y-81080000D02*
X143920000Y-81080000D01*
X143920000Y-81080000D02*
X143725000Y-81275000D01*
X143725000Y-85000000D02*
X143725000Y-88725000D01*
X143725000Y-85000000D02*
X143725000Y-81275000D01*
X143725000Y-81275000D02*
X143725000Y-73000000D01*
X148000000Y-81080000D02*
X148000000Y-73000000D01*
X148000000Y-81080000D02*
X148000000Y-89000000D01*
%TO.N,Net-(C1/2-Pad1)*%
X137000000Y-73000000D02*
X137000000Y-81000000D01*
X132830000Y-81000000D02*
X132750000Y-81080000D01*
X137000000Y-83000000D02*
X137000000Y-84975000D01*
X137000000Y-81000000D02*
X137000000Y-83000000D01*
X137000000Y-81000000D02*
X136995000Y-81005000D01*
X132750000Y-81080000D02*
X132750000Y-89000000D01*
X132750000Y-81080000D02*
X132750000Y-73000000D01*
X137025000Y-85000000D02*
X137025000Y-88975000D01*
X137025000Y-81000000D02*
X132830000Y-81000000D01*
%TD*%
M02*
