%TF.GenerationSoftware,KiCad,Pcbnew,(6.0.4)*%
%TF.CreationDate,2022-04-28T22:30:41-04:00*%
%TF.ProjectId,cap_motherboad,6361705f-6d6f-4746-9865-72626f61642e,rev?*%
%TF.SameCoordinates,Original*%
%TF.FileFunction,Soldermask,Bot*%
%TF.FilePolarity,Negative*%
%FSLAX46Y46*%
G04 Gerber Fmt 4.6, Leading zero omitted, Abs format (unit mm)*
G04 Created by KiCad (PCBNEW (6.0.4)) date 2022-04-28 22:30:41*
%MOMM*%
%LPD*%
G01*
G04 APERTURE LIST*
%ADD10R,1.700000X1.700000*%
%ADD11O,1.700000X1.700000*%
%ADD12C,3.200000*%
%ADD13R,5.080000X1.500000*%
%ADD14C,2.250000*%
G04 APERTURE END LIST*
D10*
%TO.C,J9*%
X170410000Y-85105000D03*
D11*
X167870000Y-85105000D03*
X165330000Y-85105000D03*
X162790000Y-85105000D03*
X160250000Y-85105000D03*
%TD*%
D10*
%TO.C,J8*%
X146680000Y-85105000D03*
D11*
X144140000Y-85105000D03*
X141600000Y-85105000D03*
X139060000Y-85105000D03*
X136520000Y-85105000D03*
%TD*%
D12*
%TO.C,H2*%
X71930000Y-107950000D03*
%TD*%
D10*
%TO.C,J7*%
X123000000Y-85105000D03*
D11*
X120460000Y-85105000D03*
X117920000Y-85105000D03*
X115380000Y-85105000D03*
X112840000Y-85105000D03*
%TD*%
D13*
%TO.C,SMA1*%
X172437500Y-57980000D03*
X172437500Y-66480000D03*
%TD*%
D12*
%TO.C,H1*%
X71930000Y-50900000D03*
%TD*%
D10*
%TO.C,J1*%
X85900000Y-51950000D03*
D11*
X85900000Y-54490000D03*
X85900000Y-57030000D03*
X85900000Y-59570000D03*
X85900000Y-62110000D03*
%TD*%
D12*
%TO.C,H4*%
X173490000Y-107950000D03*
%TD*%
D10*
%TO.C,J5*%
X101150000Y-75000000D03*
D11*
X101150000Y-77540000D03*
X101150000Y-80080000D03*
X101150000Y-82620000D03*
X101150000Y-85160000D03*
%TD*%
D10*
%TO.C,J10*%
X123000000Y-100355000D03*
D11*
X120460000Y-100355000D03*
X117920000Y-100355000D03*
X115380000Y-100355000D03*
X112840000Y-100355000D03*
%TD*%
D12*
%TO.C,H3*%
X173490000Y-50900000D03*
%TD*%
%TO.C,Strain Relief*%
X172720000Y-74930000D03*
%TD*%
D10*
%TO.C,J11*%
X146680000Y-100355000D03*
D11*
X144140000Y-100355000D03*
X141600000Y-100355000D03*
X139060000Y-100355000D03*
X136520000Y-100355000D03*
%TD*%
D10*
%TO.C,J6*%
X101150000Y-97950000D03*
D11*
X101150000Y-100490000D03*
X101150000Y-103030000D03*
X101150000Y-105570000D03*
X101150000Y-108110000D03*
%TD*%
D10*
%TO.C,J3*%
X85900000Y-97950000D03*
D11*
X85900000Y-100490000D03*
X85900000Y-103030000D03*
X85900000Y-105570000D03*
X85900000Y-108110000D03*
%TD*%
D10*
%TO.C,J2*%
X85900000Y-75000000D03*
D11*
X85900000Y-77540000D03*
X85900000Y-80080000D03*
X85900000Y-82620000D03*
X85900000Y-85160000D03*
%TD*%
D10*
%TO.C,J12*%
X170410000Y-100355000D03*
D11*
X167870000Y-100355000D03*
X165330000Y-100355000D03*
X162790000Y-100355000D03*
X160250000Y-100355000D03*
%TD*%
D14*
%TO.C,QLA1*%
X72000000Y-69000000D03*
X69460000Y-71540000D03*
X74540000Y-66460000D03*
X69460000Y-66460000D03*
X74540000Y-71540000D03*
%TD*%
D10*
%TO.C,J4*%
X101150000Y-51950000D03*
D11*
X101150000Y-54490000D03*
X101150000Y-57030000D03*
X101150000Y-59570000D03*
X101150000Y-62110000D03*
%TD*%
M02*
