%TF.GenerationSoftware,KiCad,Pcbnew,(6.0.4)*%
%TF.CreationDate,2022-04-28T22:30:41-04:00*%
%TF.ProjectId,cap_motherboad,6361705f-6d6f-4746-9865-72626f61642e,rev?*%
%TF.SameCoordinates,Original*%
%TF.FileFunction,Copper,L1,Top*%
%TF.FilePolarity,Positive*%
%FSLAX46Y46*%
G04 Gerber Fmt 4.6, Leading zero omitted, Abs format (unit mm)*
G04 Created by KiCad (PCBNEW (6.0.4)) date 2022-04-28 22:30:41*
%MOMM*%
%LPD*%
G01*
G04 APERTURE LIST*
%TA.AperFunction,ComponentPad*%
%ADD10R,1.700000X1.700000*%
%TD*%
%TA.AperFunction,ComponentPad*%
%ADD11O,1.700000X1.700000*%
%TD*%
%TA.AperFunction,SMDPad,CuDef*%
%ADD12R,5.080000X1.500000*%
%TD*%
%TA.AperFunction,ComponentPad*%
%ADD13C,2.250000*%
%TD*%
%TA.AperFunction,ViaPad*%
%ADD14C,0.800000*%
%TD*%
%TA.AperFunction,Conductor*%
%ADD15C,0.250000*%
%TD*%
%TA.AperFunction,Conductor*%
%ADD16C,3.175000*%
%TD*%
G04 APERTURE END LIST*
D10*
%TO.P,J9,1,Pin_1*%
%TO.N,Net-(J4-Pad1)*%
X170410000Y-85105000D03*
D11*
%TO.P,J9,2,Pin_2*%
X167870000Y-85105000D03*
%TO.P,J9,3,Pin_3*%
X165330000Y-85105000D03*
%TO.P,J9,4,Pin_4*%
X162790000Y-85105000D03*
%TO.P,J9,5,Pin_5*%
X160250000Y-85105000D03*
%TD*%
D10*
%TO.P,J8,1,Pin_1*%
%TO.N,Net-(J4-Pad1)*%
X146680000Y-85105000D03*
D11*
%TO.P,J8,2,Pin_2*%
X144140000Y-85105000D03*
%TO.P,J8,3,Pin_3*%
X141600000Y-85105000D03*
%TO.P,J8,4,Pin_4*%
X139060000Y-85105000D03*
%TO.P,J8,5,Pin_5*%
X136520000Y-85105000D03*
%TD*%
D10*
%TO.P,J7,1,Pin_1*%
%TO.N,Net-(J4-Pad1)*%
X123000000Y-85105000D03*
D11*
%TO.P,J7,2,Pin_2*%
X120460000Y-85105000D03*
%TO.P,J7,3,Pin_3*%
X117920000Y-85105000D03*
%TO.P,J7,4,Pin_4*%
X115380000Y-85105000D03*
%TO.P,J7,5,Pin_5*%
X112840000Y-85105000D03*
%TD*%
D12*
%TO.P,SMA1,1,In*%
%TO.N,Net-(J4-Pad1)*%
X172437500Y-62230000D03*
%TO.P,SMA1,2,Ext*%
%TO.N,GND*%
X172437500Y-66480000D03*
X172437500Y-57980000D03*
%TD*%
D10*
%TO.P,J1,1,Pin_1*%
%TO.N,Net-(J1-Pad1)*%
X85900000Y-51950000D03*
D11*
%TO.P,J1,2,Pin_2*%
X85900000Y-54490000D03*
%TO.P,J1,3,Pin_3*%
X85900000Y-57030000D03*
%TO.P,J1,4,Pin_4*%
X85900000Y-59570000D03*
%TO.P,J1,5,Pin_5*%
X85900000Y-62110000D03*
%TD*%
D10*
%TO.P,J5,1,Pin_1*%
%TO.N,Net-(J4-Pad1)*%
X101150000Y-75000000D03*
D11*
%TO.P,J5,2,Pin_2*%
X101150000Y-77540000D03*
%TO.P,J5,3,Pin_3*%
X101150000Y-80080000D03*
%TO.P,J5,4,Pin_4*%
X101150000Y-82620000D03*
%TO.P,J5,5,Pin_5*%
X101150000Y-85160000D03*
%TD*%
D10*
%TO.P,J10,1,Pin_1*%
%TO.N,GND*%
X123000000Y-100355000D03*
D11*
%TO.P,J10,2,Pin_2*%
X120460000Y-100355000D03*
%TO.P,J10,3,Pin_3*%
X117920000Y-100355000D03*
%TO.P,J10,4,Pin_4*%
X115380000Y-100355000D03*
%TO.P,J10,5,Pin_5*%
X112840000Y-100355000D03*
%TD*%
D10*
%TO.P,J11,1,Pin_1*%
%TO.N,GND*%
X146680000Y-100355000D03*
D11*
%TO.P,J11,2,Pin_2*%
X144140000Y-100355000D03*
%TO.P,J11,3,Pin_3*%
X141600000Y-100355000D03*
%TO.P,J11,4,Pin_4*%
X139060000Y-100355000D03*
%TO.P,J11,5,Pin_5*%
X136520000Y-100355000D03*
%TD*%
D10*
%TO.P,J6,1,Pin_1*%
%TO.N,Net-(J4-Pad1)*%
X101150000Y-97950000D03*
D11*
%TO.P,J6,2,Pin_2*%
X101150000Y-100490000D03*
%TO.P,J6,3,Pin_3*%
X101150000Y-103030000D03*
%TO.P,J6,4,Pin_4*%
X101150000Y-105570000D03*
%TO.P,J6,5,Pin_5*%
X101150000Y-108110000D03*
%TD*%
D10*
%TO.P,J3,1,Pin_1*%
%TO.N,Net-(J1-Pad1)*%
X85900000Y-97950000D03*
D11*
%TO.P,J3,2,Pin_2*%
X85900000Y-100490000D03*
%TO.P,J3,3,Pin_3*%
X85900000Y-103030000D03*
%TO.P,J3,4,Pin_4*%
X85900000Y-105570000D03*
%TO.P,J3,5,Pin_5*%
X85900000Y-108110000D03*
%TD*%
D10*
%TO.P,J2,1,Pin_1*%
%TO.N,Net-(J1-Pad1)*%
X85900000Y-75000000D03*
D11*
%TO.P,J2,2,Pin_2*%
X85900000Y-77540000D03*
%TO.P,J2,3,Pin_3*%
X85900000Y-80080000D03*
%TO.P,J2,4,Pin_4*%
X85900000Y-82620000D03*
%TO.P,J2,5,Pin_5*%
X85900000Y-85160000D03*
%TD*%
D10*
%TO.P,J12,1,Pin_1*%
%TO.N,GND*%
X170410000Y-100355000D03*
D11*
%TO.P,J12,2,Pin_2*%
X167870000Y-100355000D03*
%TO.P,J12,3,Pin_3*%
X165330000Y-100355000D03*
%TO.P,J12,4,Pin_4*%
X162790000Y-100355000D03*
%TO.P,J12,5,Pin_5*%
X160250000Y-100355000D03*
%TD*%
D13*
%TO.P,QLA1,1,In*%
%TO.N,Net-(J1-Pad1)*%
X72000000Y-69000000D03*
%TD*%
D10*
%TO.P,J4,1,Pin_1*%
%TO.N,Net-(J4-Pad1)*%
X101150000Y-51950000D03*
D11*
%TO.P,J4,2,Pin_2*%
X101150000Y-54490000D03*
%TO.P,J4,3,Pin_3*%
X101150000Y-57030000D03*
%TO.P,J4,4,Pin_4*%
X101150000Y-59570000D03*
%TO.P,J4,5,Pin_5*%
X101150000Y-62110000D03*
%TD*%
D14*
%TO.N,GND*%
X173800000Y-66480000D03*
X173990000Y-57980000D03*
X170620000Y-57980000D03*
X170680000Y-66480000D03*
X172280000Y-66480000D03*
X172500000Y-57980000D03*
%TD*%
D15*
%TO.N,Net-(J1-Pad1)*%
X72000000Y-69000000D02*
X72000000Y-62000000D01*
X72000000Y-69000000D02*
X78000000Y-69000000D01*
D16*
X85900000Y-69100000D02*
X79000000Y-69100000D01*
X85900000Y-48260000D02*
X85900000Y-69100000D01*
D15*
X72000000Y-69000000D02*
X72000000Y-76000000D01*
D16*
X79000000Y-76000000D02*
X72000000Y-76000000D01*
X79000000Y-69100000D02*
X79000000Y-62000000D01*
X79000000Y-69100000D02*
X79000000Y-70908307D01*
X79000000Y-70908307D02*
X79000000Y-76000000D01*
X79000000Y-62000000D02*
X72000000Y-62000000D01*
X85900000Y-69100000D02*
X85900000Y-111760000D01*
D15*
%TO.N,Net-(J4-Pad1)*%
X153670000Y-62230000D02*
X153600000Y-62300000D01*
D16*
X153600000Y-85160000D02*
X175260000Y-85160000D01*
X101150000Y-85160000D02*
X153600000Y-85160000D01*
X176530000Y-62230000D02*
X153670000Y-62230000D01*
X153600000Y-62300000D02*
X153600000Y-85160000D01*
X101150000Y-48260000D02*
X101150000Y-111760000D01*
%TD*%
M02*
