M48
; DRILL file {KiCad (6.0.4)} date Thu Apr 28 22:30:48 2022
; FORMAT={-:-/ absolute / inch / decimal}
; #@! TF.CreationDate,2022-04-28T22:30:48-04:00
; #@! TF.GenerationSoftware,Kicad,Pcbnew,(6.0.4)
; #@! TF.FileFunction,Plated,1,2,PTH
FMAT,2
INCH
; #@! TA.AperFunction,Plated,PTH,ViaDrill
T1C0.0157
; #@! TA.AperFunction,Plated,PTH,ComponentDrill
T2C0.0394
; #@! TA.AperFunction,Plated,PTH,ComponentDrill
T3C0.0591
; #@! TA.AperFunction,Plated,PTH,ComponentDrill
T4C0.0669
%
G90
G05
T1
X6.7173Y-2.2827
X6.7197Y-2.6173
X6.7827Y-2.6173
X6.7913Y-2.2827
X6.8425Y-2.6173
X6.85Y-2.2827
T2
X3.3819Y-2.0453
X3.3819Y-2.1453
X3.3819Y-2.2453
X3.3819Y-2.3453
X3.3819Y-2.4453
X3.3819Y-2.9528
X3.3819Y-3.0528
X3.3819Y-3.1528
X3.3819Y-3.2528
X3.3819Y-3.3528
X3.3819Y-3.8563
X3.3819Y-3.9563
X3.3819Y-4.0563
X3.3819Y-4.1563
X3.3819Y-4.2563
X3.9823Y-2.0453
X3.9823Y-2.1453
X3.9823Y-2.2453
X3.9823Y-2.3453
X3.9823Y-2.4453
X3.9823Y-2.9528
X3.9823Y-3.0528
X3.9823Y-3.1528
X3.9823Y-3.2528
X3.9823Y-3.3528
X3.9823Y-3.8563
X3.9823Y-3.9563
X3.9823Y-4.0563
X3.9823Y-4.1563
X3.9823Y-4.2563
X4.4425Y-3.3506
X4.4425Y-3.951
X4.5425Y-3.3506
X4.5425Y-3.951
X4.6425Y-3.3506
X4.6425Y-3.951
X4.7425Y-3.3506
X4.7425Y-3.951
X4.8425Y-3.3506
X4.8425Y-3.951
X5.3748Y-3.3506
X5.3748Y-3.951
X5.4748Y-3.3506
X5.4748Y-3.951
X5.5748Y-3.3506
X5.5748Y-3.951
X5.6748Y-3.3506
X5.6748Y-3.951
X5.7748Y-3.3506
X5.7748Y-3.951
X6.3091Y-3.3506
X6.3091Y-3.951
X6.4091Y-3.3506
X6.4091Y-3.951
X6.5091Y-3.3506
X6.5091Y-3.951
X6.6091Y-3.3506
X6.6091Y-3.951
X6.7091Y-3.3506
X6.7091Y-3.951
T3
X2.8346Y-2.7165
T4
X2.7346Y-2.6165
X2.7346Y-2.8165
X2.9346Y-2.6165
X2.9346Y-2.8165
T0
M30
