%TF.GenerationSoftware,KiCad,Pcbnew,(6.0.4)*%
%TF.CreationDate,2022-04-28T22:30:41-04:00*%
%TF.ProjectId,cap_motherboad,6361705f-6d6f-4746-9865-72626f61642e,rev?*%
%TF.SameCoordinates,Original*%
%TF.FileFunction,Copper,L2,Bot*%
%TF.FilePolarity,Positive*%
%FSLAX46Y46*%
G04 Gerber Fmt 4.6, Leading zero omitted, Abs format (unit mm)*
G04 Created by KiCad (PCBNEW (6.0.4)) date 2022-04-28 22:30:41*
%MOMM*%
%LPD*%
G01*
G04 APERTURE LIST*
%TA.AperFunction,ComponentPad*%
%ADD10R,1.700000X1.700000*%
%TD*%
%TA.AperFunction,ComponentPad*%
%ADD11O,1.700000X1.700000*%
%TD*%
%TA.AperFunction,SMDPad,CuDef*%
%ADD12R,5.080000X1.500000*%
%TD*%
%TA.AperFunction,ComponentPad*%
%ADD13C,2.250000*%
%TD*%
%TA.AperFunction,ViaPad*%
%ADD14C,0.800000*%
%TD*%
G04 APERTURE END LIST*
D10*
%TO.P,J9,1,Pin_1*%
%TO.N,Net-(J4-Pad1)*%
X170410000Y-85105000D03*
D11*
%TO.P,J9,2,Pin_2*%
X167870000Y-85105000D03*
%TO.P,J9,3,Pin_3*%
X165330000Y-85105000D03*
%TO.P,J9,4,Pin_4*%
X162790000Y-85105000D03*
%TO.P,J9,5,Pin_5*%
X160250000Y-85105000D03*
%TD*%
D10*
%TO.P,J8,1,Pin_1*%
%TO.N,Net-(J4-Pad1)*%
X146680000Y-85105000D03*
D11*
%TO.P,J8,2,Pin_2*%
X144140000Y-85105000D03*
%TO.P,J8,3,Pin_3*%
X141600000Y-85105000D03*
%TO.P,J8,4,Pin_4*%
X139060000Y-85105000D03*
%TO.P,J8,5,Pin_5*%
X136520000Y-85105000D03*
%TD*%
D10*
%TO.P,J7,1,Pin_1*%
%TO.N,Net-(J4-Pad1)*%
X123000000Y-85105000D03*
D11*
%TO.P,J7,2,Pin_2*%
X120460000Y-85105000D03*
%TO.P,J7,3,Pin_3*%
X117920000Y-85105000D03*
%TO.P,J7,4,Pin_4*%
X115380000Y-85105000D03*
%TO.P,J7,5,Pin_5*%
X112840000Y-85105000D03*
%TD*%
D12*
%TO.P,SMA1,2,Ext*%
%TO.N,GND*%
X172437500Y-57980000D03*
X172437500Y-66480000D03*
%TD*%
D10*
%TO.P,J1,1,Pin_1*%
%TO.N,Net-(J1-Pad1)*%
X85900000Y-51950000D03*
D11*
%TO.P,J1,2,Pin_2*%
X85900000Y-54490000D03*
%TO.P,J1,3,Pin_3*%
X85900000Y-57030000D03*
%TO.P,J1,4,Pin_4*%
X85900000Y-59570000D03*
%TO.P,J1,5,Pin_5*%
X85900000Y-62110000D03*
%TD*%
D10*
%TO.P,J5,1,Pin_1*%
%TO.N,Net-(J4-Pad1)*%
X101150000Y-75000000D03*
D11*
%TO.P,J5,2,Pin_2*%
X101150000Y-77540000D03*
%TO.P,J5,3,Pin_3*%
X101150000Y-80080000D03*
%TO.P,J5,4,Pin_4*%
X101150000Y-82620000D03*
%TO.P,J5,5,Pin_5*%
X101150000Y-85160000D03*
%TD*%
D10*
%TO.P,J10,1,Pin_1*%
%TO.N,GND*%
X123000000Y-100355000D03*
D11*
%TO.P,J10,2,Pin_2*%
X120460000Y-100355000D03*
%TO.P,J10,3,Pin_3*%
X117920000Y-100355000D03*
%TO.P,J10,4,Pin_4*%
X115380000Y-100355000D03*
%TO.P,J10,5,Pin_5*%
X112840000Y-100355000D03*
%TD*%
D10*
%TO.P,J11,1,Pin_1*%
%TO.N,GND*%
X146680000Y-100355000D03*
D11*
%TO.P,J11,2,Pin_2*%
X144140000Y-100355000D03*
%TO.P,J11,3,Pin_3*%
X141600000Y-100355000D03*
%TO.P,J11,4,Pin_4*%
X139060000Y-100355000D03*
%TO.P,J11,5,Pin_5*%
X136520000Y-100355000D03*
%TD*%
D10*
%TO.P,J6,1,Pin_1*%
%TO.N,Net-(J4-Pad1)*%
X101150000Y-97950000D03*
D11*
%TO.P,J6,2,Pin_2*%
X101150000Y-100490000D03*
%TO.P,J6,3,Pin_3*%
X101150000Y-103030000D03*
%TO.P,J6,4,Pin_4*%
X101150000Y-105570000D03*
%TO.P,J6,5,Pin_5*%
X101150000Y-108110000D03*
%TD*%
D10*
%TO.P,J3,1,Pin_1*%
%TO.N,Net-(J1-Pad1)*%
X85900000Y-97950000D03*
D11*
%TO.P,J3,2,Pin_2*%
X85900000Y-100490000D03*
%TO.P,J3,3,Pin_3*%
X85900000Y-103030000D03*
%TO.P,J3,4,Pin_4*%
X85900000Y-105570000D03*
%TO.P,J3,5,Pin_5*%
X85900000Y-108110000D03*
%TD*%
D10*
%TO.P,J2,1,Pin_1*%
%TO.N,Net-(J1-Pad1)*%
X85900000Y-75000000D03*
D11*
%TO.P,J2,2,Pin_2*%
X85900000Y-77540000D03*
%TO.P,J2,3,Pin_3*%
X85900000Y-80080000D03*
%TO.P,J2,4,Pin_4*%
X85900000Y-82620000D03*
%TO.P,J2,5,Pin_5*%
X85900000Y-85160000D03*
%TD*%
D10*
%TO.P,J12,1,Pin_1*%
%TO.N,GND*%
X170410000Y-100355000D03*
D11*
%TO.P,J12,2,Pin_2*%
X167870000Y-100355000D03*
%TO.P,J12,3,Pin_3*%
X165330000Y-100355000D03*
%TO.P,J12,4,Pin_4*%
X162790000Y-100355000D03*
%TO.P,J12,5,Pin_5*%
X160250000Y-100355000D03*
%TD*%
D13*
%TO.P,QLA1,2,Ext*%
%TO.N,GND*%
X69460000Y-71540000D03*
X74540000Y-66460000D03*
X69460000Y-66460000D03*
X74540000Y-71540000D03*
%TD*%
D10*
%TO.P,J4,1,Pin_1*%
%TO.N,Net-(J4-Pad1)*%
X101150000Y-51950000D03*
D11*
%TO.P,J4,2,Pin_2*%
X101150000Y-54490000D03*
%TO.P,J4,3,Pin_3*%
X101150000Y-57030000D03*
%TO.P,J4,4,Pin_4*%
X101150000Y-59570000D03*
%TO.P,J4,5,Pin_5*%
X101150000Y-62110000D03*
%TD*%
D14*
%TO.N,GND*%
X173800000Y-66480000D03*
X173990000Y-57980000D03*
X170620000Y-57980000D03*
X170680000Y-66480000D03*
X172280000Y-66480000D03*
X172500000Y-57980000D03*
%TD*%
%TA.AperFunction,Conductor*%
%TO.N,GND*%
G36*
X177812121Y-46640002D02*
G01*
X177858614Y-46693658D01*
X177870000Y-46746000D01*
X177870000Y-112364000D01*
X177849998Y-112432121D01*
X177796342Y-112478614D01*
X177744000Y-112490000D01*
X67134500Y-112490000D01*
X67066379Y-112469998D01*
X67019886Y-112416342D01*
X67008500Y-112364000D01*
X67008500Y-108082703D01*
X69820743Y-108082703D01*
X69858268Y-108367734D01*
X69934129Y-108645036D01*
X69935813Y-108648984D01*
X70005379Y-108812077D01*
X70046923Y-108909476D01*
X70058693Y-108929142D01*
X70191576Y-109151173D01*
X70194561Y-109156161D01*
X70374313Y-109380528D01*
X70582851Y-109578423D01*
X70816317Y-109746186D01*
X70820112Y-109748195D01*
X70820113Y-109748196D01*
X70841869Y-109759715D01*
X71070392Y-109880712D01*
X71340373Y-109979511D01*
X71621264Y-110040755D01*
X71649841Y-110043004D01*
X71844282Y-110058307D01*
X71844291Y-110058307D01*
X71846739Y-110058500D01*
X72002271Y-110058500D01*
X72004407Y-110058354D01*
X72004418Y-110058354D01*
X72212548Y-110044165D01*
X72212554Y-110044164D01*
X72216825Y-110043873D01*
X72221020Y-110043004D01*
X72221022Y-110043004D01*
X72357584Y-110014723D01*
X72498342Y-109985574D01*
X72769343Y-109889607D01*
X73024812Y-109757750D01*
X73028313Y-109755289D01*
X73028317Y-109755287D01*
X73142417Y-109675096D01*
X73260023Y-109592441D01*
X73390102Y-109471564D01*
X73467479Y-109399661D01*
X73467481Y-109399658D01*
X73470622Y-109396740D01*
X73652713Y-109174268D01*
X73802927Y-108929142D01*
X73807384Y-108918990D01*
X73916757Y-108669830D01*
X73918483Y-108665898D01*
X73997244Y-108389406D01*
X74037751Y-108104784D01*
X74037845Y-108086951D01*
X74037899Y-108076695D01*
X84537251Y-108076695D01*
X84537548Y-108081848D01*
X84537548Y-108081851D01*
X84543011Y-108176590D01*
X84550110Y-108299715D01*
X84551247Y-108304761D01*
X84551248Y-108304767D01*
X84564480Y-108363478D01*
X84599222Y-108517639D01*
X84683266Y-108724616D01*
X84799987Y-108915088D01*
X84946250Y-109083938D01*
X85118126Y-109226632D01*
X85311000Y-109339338D01*
X85519692Y-109419030D01*
X85524760Y-109420061D01*
X85524763Y-109420062D01*
X85632017Y-109441883D01*
X85738597Y-109463567D01*
X85743772Y-109463757D01*
X85743774Y-109463757D01*
X85956673Y-109471564D01*
X85956677Y-109471564D01*
X85961837Y-109471753D01*
X85966957Y-109471097D01*
X85966959Y-109471097D01*
X86178288Y-109444025D01*
X86178289Y-109444025D01*
X86183416Y-109443368D01*
X86188366Y-109441883D01*
X86392429Y-109380661D01*
X86392434Y-109380659D01*
X86397384Y-109379174D01*
X86597994Y-109280896D01*
X86779860Y-109151173D01*
X86938096Y-108993489D01*
X86997594Y-108910689D01*
X87065435Y-108816277D01*
X87068453Y-108812077D01*
X87138756Y-108669830D01*
X87165136Y-108616453D01*
X87165137Y-108616451D01*
X87167430Y-108611811D01*
X87232370Y-108398069D01*
X87261529Y-108176590D01*
X87263156Y-108110000D01*
X87260418Y-108076695D01*
X99787251Y-108076695D01*
X99787548Y-108081848D01*
X99787548Y-108081851D01*
X99793011Y-108176590D01*
X99800110Y-108299715D01*
X99801247Y-108304761D01*
X99801248Y-108304767D01*
X99814480Y-108363478D01*
X99849222Y-108517639D01*
X99933266Y-108724616D01*
X100049987Y-108915088D01*
X100196250Y-109083938D01*
X100368126Y-109226632D01*
X100561000Y-109339338D01*
X100769692Y-109419030D01*
X100774760Y-109420061D01*
X100774763Y-109420062D01*
X100882017Y-109441883D01*
X100988597Y-109463567D01*
X100993772Y-109463757D01*
X100993774Y-109463757D01*
X101206673Y-109471564D01*
X101206677Y-109471564D01*
X101211837Y-109471753D01*
X101216957Y-109471097D01*
X101216959Y-109471097D01*
X101428288Y-109444025D01*
X101428289Y-109444025D01*
X101433416Y-109443368D01*
X101438366Y-109441883D01*
X101642429Y-109380661D01*
X101642434Y-109380659D01*
X101647384Y-109379174D01*
X101847994Y-109280896D01*
X102029860Y-109151173D01*
X102188096Y-108993489D01*
X102247594Y-108910689D01*
X102315435Y-108816277D01*
X102318453Y-108812077D01*
X102388756Y-108669830D01*
X102415136Y-108616453D01*
X102415137Y-108616451D01*
X102417430Y-108611811D01*
X102482370Y-108398069D01*
X102511529Y-108176590D01*
X102513156Y-108110000D01*
X102510912Y-108082703D01*
X171380743Y-108082703D01*
X171418268Y-108367734D01*
X171494129Y-108645036D01*
X171495813Y-108648984D01*
X171565379Y-108812077D01*
X171606923Y-108909476D01*
X171618693Y-108929142D01*
X171751576Y-109151173D01*
X171754561Y-109156161D01*
X171934313Y-109380528D01*
X172142851Y-109578423D01*
X172376317Y-109746186D01*
X172380112Y-109748195D01*
X172380113Y-109748196D01*
X172401869Y-109759715D01*
X172630392Y-109880712D01*
X172900373Y-109979511D01*
X173181264Y-110040755D01*
X173209841Y-110043004D01*
X173404282Y-110058307D01*
X173404291Y-110058307D01*
X173406739Y-110058500D01*
X173562271Y-110058500D01*
X173564407Y-110058354D01*
X173564418Y-110058354D01*
X173772548Y-110044165D01*
X173772554Y-110044164D01*
X173776825Y-110043873D01*
X173781020Y-110043004D01*
X173781022Y-110043004D01*
X173917584Y-110014723D01*
X174058342Y-109985574D01*
X174329343Y-109889607D01*
X174584812Y-109757750D01*
X174588313Y-109755289D01*
X174588317Y-109755287D01*
X174702417Y-109675096D01*
X174820023Y-109592441D01*
X174950102Y-109471564D01*
X175027479Y-109399661D01*
X175027481Y-109399658D01*
X175030622Y-109396740D01*
X175212713Y-109174268D01*
X175362927Y-108929142D01*
X175367384Y-108918990D01*
X175476757Y-108669830D01*
X175478483Y-108665898D01*
X175557244Y-108389406D01*
X175597751Y-108104784D01*
X175597845Y-108086951D01*
X175599235Y-107821583D01*
X175599235Y-107821576D01*
X175599257Y-107817297D01*
X175561732Y-107532266D01*
X175542371Y-107461492D01*
X175493436Y-107282617D01*
X175485871Y-107254964D01*
X175425340Y-107113051D01*
X175374763Y-106994476D01*
X175374761Y-106994472D01*
X175373077Y-106990524D01*
X175278155Y-106831921D01*
X175227643Y-106747521D01*
X175227640Y-106747517D01*
X175225439Y-106743839D01*
X175045687Y-106519472D01*
X174837149Y-106321577D01*
X174603683Y-106153814D01*
X174581843Y-106142250D01*
X174558654Y-106129972D01*
X174349608Y-106019288D01*
X174079627Y-105920489D01*
X173798736Y-105859245D01*
X173767685Y-105856801D01*
X173575718Y-105841693D01*
X173575709Y-105841693D01*
X173573261Y-105841500D01*
X173417729Y-105841500D01*
X173415593Y-105841646D01*
X173415582Y-105841646D01*
X173207452Y-105855835D01*
X173207446Y-105855836D01*
X173203175Y-105856127D01*
X173198980Y-105856996D01*
X173198978Y-105856996D01*
X173169875Y-105863023D01*
X172921658Y-105914426D01*
X172650657Y-106010393D01*
X172395188Y-106142250D01*
X172391687Y-106144711D01*
X172391683Y-106144713D01*
X172381594Y-106151804D01*
X172159977Y-106307559D01*
X171949378Y-106503260D01*
X171767287Y-106725732D01*
X171617073Y-106970858D01*
X171501517Y-107234102D01*
X171500342Y-107238229D01*
X171500341Y-107238230D01*
X171488933Y-107278277D01*
X171422756Y-107510594D01*
X171382249Y-107795216D01*
X171382227Y-107799505D01*
X171382226Y-107799512D01*
X171381766Y-107887361D01*
X171380743Y-108082703D01*
X102510912Y-108082703D01*
X102494852Y-107887361D01*
X102440431Y-107670702D01*
X102351354Y-107465840D01*
X102230014Y-107278277D01*
X102079670Y-107113051D01*
X102075619Y-107109852D01*
X102075615Y-107109848D01*
X101908414Y-106977800D01*
X101908410Y-106977798D01*
X101904359Y-106974598D01*
X101863053Y-106951796D01*
X101813084Y-106901364D01*
X101798312Y-106831921D01*
X101823428Y-106765516D01*
X101850780Y-106738909D01*
X101894603Y-106707650D01*
X102029860Y-106611173D01*
X102188096Y-106453489D01*
X102247594Y-106370689D01*
X102315435Y-106276277D01*
X102318453Y-106272077D01*
X102417430Y-106071811D01*
X102482370Y-105858069D01*
X102511529Y-105636590D01*
X102513156Y-105570000D01*
X102494852Y-105347361D01*
X102440431Y-105130702D01*
X102351354Y-104925840D01*
X102230014Y-104738277D01*
X102079670Y-104573051D01*
X102075619Y-104569852D01*
X102075615Y-104569848D01*
X101908414Y-104437800D01*
X101908410Y-104437798D01*
X101904359Y-104434598D01*
X101863053Y-104411796D01*
X101813084Y-104361364D01*
X101798312Y-104291921D01*
X101823428Y-104225516D01*
X101850780Y-104198909D01*
X101894603Y-104167650D01*
X102029860Y-104071173D01*
X102188096Y-103913489D01*
X102247594Y-103830689D01*
X102315435Y-103736277D01*
X102318453Y-103732077D01*
X102417430Y-103531811D01*
X102482370Y-103318069D01*
X102511529Y-103096590D01*
X102513156Y-103030000D01*
X102494852Y-102807361D01*
X102440431Y-102590702D01*
X102351354Y-102385840D01*
X102230014Y-102198277D01*
X102079670Y-102033051D01*
X102075619Y-102029852D01*
X102075615Y-102029848D01*
X101908414Y-101897800D01*
X101908410Y-101897798D01*
X101904359Y-101894598D01*
X101863053Y-101871796D01*
X101813084Y-101821364D01*
X101798312Y-101751921D01*
X101823428Y-101685516D01*
X101850780Y-101658909D01*
X101903319Y-101621433D01*
X102029860Y-101531173D01*
X102038600Y-101522464D01*
X102184435Y-101377137D01*
X102188096Y-101373489D01*
X102247594Y-101290689D01*
X102315435Y-101196277D01*
X102318453Y-101192077D01*
X102417430Y-100991811D01*
X102482370Y-100778069D01*
X102502790Y-100622966D01*
X111508257Y-100622966D01*
X111538565Y-100757446D01*
X111541645Y-100767275D01*
X111621770Y-100964603D01*
X111626413Y-100973794D01*
X111737694Y-101155388D01*
X111743777Y-101163699D01*
X111883213Y-101324667D01*
X111890580Y-101331883D01*
X112054434Y-101467916D01*
X112062881Y-101473831D01*
X112246756Y-101581279D01*
X112256042Y-101585729D01*
X112455001Y-101661703D01*
X112464899Y-101664579D01*
X112568250Y-101685606D01*
X112582299Y-101684410D01*
X112586000Y-101674065D01*
X112586000Y-101673517D01*
X113094000Y-101673517D01*
X113098064Y-101687359D01*
X113111478Y-101689393D01*
X113118184Y-101688534D01*
X113128262Y-101686392D01*
X113332255Y-101625191D01*
X113341842Y-101621433D01*
X113533095Y-101527739D01*
X113541945Y-101522464D01*
X113715328Y-101398792D01*
X113723200Y-101392139D01*
X113874052Y-101241812D01*
X113880730Y-101233965D01*
X114008022Y-101056819D01*
X114009147Y-101057627D01*
X114056669Y-101013876D01*
X114126607Y-101001661D01*
X114192046Y-101029197D01*
X114219870Y-101061028D01*
X114277690Y-101155383D01*
X114283777Y-101163699D01*
X114423213Y-101324667D01*
X114430580Y-101331883D01*
X114594434Y-101467916D01*
X114602881Y-101473831D01*
X114786756Y-101581279D01*
X114796042Y-101585729D01*
X114995001Y-101661703D01*
X115004899Y-101664579D01*
X115108250Y-101685606D01*
X115122299Y-101684410D01*
X115126000Y-101674065D01*
X115126000Y-101673517D01*
X115634000Y-101673517D01*
X115638064Y-101687359D01*
X115651478Y-101689393D01*
X115658184Y-101688534D01*
X115668262Y-101686392D01*
X115872255Y-101625191D01*
X115881842Y-101621433D01*
X116073095Y-101527739D01*
X116081945Y-101522464D01*
X116255328Y-101398792D01*
X116263200Y-101392139D01*
X116414052Y-101241812D01*
X116420730Y-101233965D01*
X116548022Y-101056819D01*
X116549147Y-101057627D01*
X116596669Y-101013876D01*
X116666607Y-101001661D01*
X116732046Y-101029197D01*
X116759870Y-101061028D01*
X116817690Y-101155383D01*
X116823777Y-101163699D01*
X116963213Y-101324667D01*
X116970580Y-101331883D01*
X117134434Y-101467916D01*
X117142881Y-101473831D01*
X117326756Y-101581279D01*
X117336042Y-101585729D01*
X117535001Y-101661703D01*
X117544899Y-101664579D01*
X117648250Y-101685606D01*
X117662299Y-101684410D01*
X117666000Y-101674065D01*
X117666000Y-101673517D01*
X118174000Y-101673517D01*
X118178064Y-101687359D01*
X118191478Y-101689393D01*
X118198184Y-101688534D01*
X118208262Y-101686392D01*
X118412255Y-101625191D01*
X118421842Y-101621433D01*
X118613095Y-101527739D01*
X118621945Y-101522464D01*
X118795328Y-101398792D01*
X118803200Y-101392139D01*
X118954052Y-101241812D01*
X118960730Y-101233965D01*
X119088022Y-101056819D01*
X119089147Y-101057627D01*
X119136669Y-101013876D01*
X119206607Y-101001661D01*
X119272046Y-101029197D01*
X119299870Y-101061028D01*
X119357690Y-101155383D01*
X119363777Y-101163699D01*
X119503213Y-101324667D01*
X119510580Y-101331883D01*
X119674434Y-101467916D01*
X119682881Y-101473831D01*
X119866756Y-101581279D01*
X119876042Y-101585729D01*
X120075001Y-101661703D01*
X120084899Y-101664579D01*
X120188250Y-101685606D01*
X120202299Y-101684410D01*
X120206000Y-101674065D01*
X120206000Y-101673517D01*
X120714000Y-101673517D01*
X120718064Y-101687359D01*
X120731478Y-101689393D01*
X120738184Y-101688534D01*
X120748262Y-101686392D01*
X120952255Y-101625191D01*
X120961842Y-101621433D01*
X121153095Y-101527739D01*
X121161945Y-101522464D01*
X121335328Y-101398792D01*
X121343200Y-101392139D01*
X121448286Y-101287418D01*
X121510657Y-101253501D01*
X121581464Y-101258689D01*
X121638226Y-101301335D01*
X121655208Y-101332439D01*
X121696675Y-101443052D01*
X121705214Y-101458649D01*
X121781715Y-101560724D01*
X121794276Y-101573285D01*
X121896351Y-101649786D01*
X121911946Y-101658324D01*
X122032394Y-101703478D01*
X122047649Y-101707105D01*
X122098514Y-101712631D01*
X122105328Y-101713000D01*
X122727885Y-101713000D01*
X122743124Y-101708525D01*
X122744329Y-101707135D01*
X122746000Y-101699452D01*
X122746000Y-101694884D01*
X123254000Y-101694884D01*
X123258475Y-101710123D01*
X123259865Y-101711328D01*
X123267548Y-101712999D01*
X123894669Y-101712999D01*
X123901490Y-101712629D01*
X123952352Y-101707105D01*
X123967604Y-101703479D01*
X124088054Y-101658324D01*
X124103649Y-101649786D01*
X124205724Y-101573285D01*
X124218285Y-101560724D01*
X124294786Y-101458649D01*
X124303324Y-101443054D01*
X124348478Y-101322606D01*
X124352105Y-101307351D01*
X124357631Y-101256486D01*
X124358000Y-101249672D01*
X124358000Y-100627115D01*
X124356782Y-100622966D01*
X135188257Y-100622966D01*
X135218565Y-100757446D01*
X135221645Y-100767275D01*
X135301770Y-100964603D01*
X135306413Y-100973794D01*
X135417694Y-101155388D01*
X135423777Y-101163699D01*
X135563213Y-101324667D01*
X135570580Y-101331883D01*
X135734434Y-101467916D01*
X135742881Y-101473831D01*
X135926756Y-101581279D01*
X135936042Y-101585729D01*
X136135001Y-101661703D01*
X136144899Y-101664579D01*
X136248250Y-101685606D01*
X136262299Y-101684410D01*
X136266000Y-101674065D01*
X136266000Y-101673517D01*
X136774000Y-101673517D01*
X136778064Y-101687359D01*
X136791478Y-101689393D01*
X136798184Y-101688534D01*
X136808262Y-101686392D01*
X137012255Y-101625191D01*
X137021842Y-101621433D01*
X137213095Y-101527739D01*
X137221945Y-101522464D01*
X137395328Y-101398792D01*
X137403200Y-101392139D01*
X137554052Y-101241812D01*
X137560730Y-101233965D01*
X137688022Y-101056819D01*
X137689147Y-101057627D01*
X137736669Y-101013876D01*
X137806607Y-101001661D01*
X137872046Y-101029197D01*
X137899870Y-101061028D01*
X137957690Y-101155383D01*
X137963777Y-101163699D01*
X138103213Y-101324667D01*
X138110580Y-101331883D01*
X138274434Y-101467916D01*
X138282881Y-101473831D01*
X138466756Y-101581279D01*
X138476042Y-101585729D01*
X138675001Y-101661703D01*
X138684899Y-101664579D01*
X138788250Y-101685606D01*
X138802299Y-101684410D01*
X138806000Y-101674065D01*
X138806000Y-101673517D01*
X139314000Y-101673517D01*
X139318064Y-101687359D01*
X139331478Y-101689393D01*
X139338184Y-101688534D01*
X139348262Y-101686392D01*
X139552255Y-101625191D01*
X139561842Y-101621433D01*
X139753095Y-101527739D01*
X139761945Y-101522464D01*
X139935328Y-101398792D01*
X139943200Y-101392139D01*
X140094052Y-101241812D01*
X140100730Y-101233965D01*
X140228022Y-101056819D01*
X140229147Y-101057627D01*
X140276669Y-101013876D01*
X140346607Y-101001661D01*
X140412046Y-101029197D01*
X140439870Y-101061028D01*
X140497690Y-101155383D01*
X140503777Y-101163699D01*
X140643213Y-101324667D01*
X140650580Y-101331883D01*
X140814434Y-101467916D01*
X140822881Y-101473831D01*
X141006756Y-101581279D01*
X141016042Y-101585729D01*
X141215001Y-101661703D01*
X141224899Y-101664579D01*
X141328250Y-101685606D01*
X141342299Y-101684410D01*
X141346000Y-101674065D01*
X141346000Y-101673517D01*
X141854000Y-101673517D01*
X141858064Y-101687359D01*
X141871478Y-101689393D01*
X141878184Y-101688534D01*
X141888262Y-101686392D01*
X142092255Y-101625191D01*
X142101842Y-101621433D01*
X142293095Y-101527739D01*
X142301945Y-101522464D01*
X142475328Y-101398792D01*
X142483200Y-101392139D01*
X142634052Y-101241812D01*
X142640730Y-101233965D01*
X142768022Y-101056819D01*
X142769147Y-101057627D01*
X142816669Y-101013876D01*
X142886607Y-101001661D01*
X142952046Y-101029197D01*
X142979870Y-101061028D01*
X143037690Y-101155383D01*
X143043777Y-101163699D01*
X143183213Y-101324667D01*
X143190580Y-101331883D01*
X143354434Y-101467916D01*
X143362881Y-101473831D01*
X143546756Y-101581279D01*
X143556042Y-101585729D01*
X143755001Y-101661703D01*
X143764899Y-101664579D01*
X143868250Y-101685606D01*
X143882299Y-101684410D01*
X143886000Y-101674065D01*
X143886000Y-101673517D01*
X144394000Y-101673517D01*
X144398064Y-101687359D01*
X144411478Y-101689393D01*
X144418184Y-101688534D01*
X144428262Y-101686392D01*
X144632255Y-101625191D01*
X144641842Y-101621433D01*
X144833095Y-101527739D01*
X144841945Y-101522464D01*
X145015328Y-101398792D01*
X145023200Y-101392139D01*
X145128286Y-101287418D01*
X145190657Y-101253501D01*
X145261464Y-101258689D01*
X145318226Y-101301335D01*
X145335208Y-101332439D01*
X145376675Y-101443052D01*
X145385214Y-101458649D01*
X145461715Y-101560724D01*
X145474276Y-101573285D01*
X145576351Y-101649786D01*
X145591946Y-101658324D01*
X145712394Y-101703478D01*
X145727649Y-101707105D01*
X145778514Y-101712631D01*
X145785328Y-101713000D01*
X146407885Y-101713000D01*
X146423124Y-101708525D01*
X146424329Y-101707135D01*
X146426000Y-101699452D01*
X146426000Y-101694884D01*
X146934000Y-101694884D01*
X146938475Y-101710123D01*
X146939865Y-101711328D01*
X146947548Y-101712999D01*
X147574669Y-101712999D01*
X147581490Y-101712629D01*
X147632352Y-101707105D01*
X147647604Y-101703479D01*
X147768054Y-101658324D01*
X147783649Y-101649786D01*
X147885724Y-101573285D01*
X147898285Y-101560724D01*
X147974786Y-101458649D01*
X147983324Y-101443054D01*
X148028478Y-101322606D01*
X148032105Y-101307351D01*
X148037631Y-101256486D01*
X148038000Y-101249672D01*
X148038000Y-100627115D01*
X148036782Y-100622966D01*
X158918257Y-100622966D01*
X158948565Y-100757446D01*
X158951645Y-100767275D01*
X159031770Y-100964603D01*
X159036413Y-100973794D01*
X159147694Y-101155388D01*
X159153777Y-101163699D01*
X159293213Y-101324667D01*
X159300580Y-101331883D01*
X159464434Y-101467916D01*
X159472881Y-101473831D01*
X159656756Y-101581279D01*
X159666042Y-101585729D01*
X159865001Y-101661703D01*
X159874899Y-101664579D01*
X159978250Y-101685606D01*
X159992299Y-101684410D01*
X159996000Y-101674065D01*
X159996000Y-101673517D01*
X160504000Y-101673517D01*
X160508064Y-101687359D01*
X160521478Y-101689393D01*
X160528184Y-101688534D01*
X160538262Y-101686392D01*
X160742255Y-101625191D01*
X160751842Y-101621433D01*
X160943095Y-101527739D01*
X160951945Y-101522464D01*
X161125328Y-101398792D01*
X161133200Y-101392139D01*
X161284052Y-101241812D01*
X161290730Y-101233965D01*
X161418022Y-101056819D01*
X161419147Y-101057627D01*
X161466669Y-101013876D01*
X161536607Y-101001661D01*
X161602046Y-101029197D01*
X161629870Y-101061028D01*
X161687690Y-101155383D01*
X161693777Y-101163699D01*
X161833213Y-101324667D01*
X161840580Y-101331883D01*
X162004434Y-101467916D01*
X162012881Y-101473831D01*
X162196756Y-101581279D01*
X162206042Y-101585729D01*
X162405001Y-101661703D01*
X162414899Y-101664579D01*
X162518250Y-101685606D01*
X162532299Y-101684410D01*
X162536000Y-101674065D01*
X162536000Y-101673517D01*
X163044000Y-101673517D01*
X163048064Y-101687359D01*
X163061478Y-101689393D01*
X163068184Y-101688534D01*
X163078262Y-101686392D01*
X163282255Y-101625191D01*
X163291842Y-101621433D01*
X163483095Y-101527739D01*
X163491945Y-101522464D01*
X163665328Y-101398792D01*
X163673200Y-101392139D01*
X163824052Y-101241812D01*
X163830730Y-101233965D01*
X163958022Y-101056819D01*
X163959147Y-101057627D01*
X164006669Y-101013876D01*
X164076607Y-101001661D01*
X164142046Y-101029197D01*
X164169870Y-101061028D01*
X164227690Y-101155383D01*
X164233777Y-101163699D01*
X164373213Y-101324667D01*
X164380580Y-101331883D01*
X164544434Y-101467916D01*
X164552881Y-101473831D01*
X164736756Y-101581279D01*
X164746042Y-101585729D01*
X164945001Y-101661703D01*
X164954899Y-101664579D01*
X165058250Y-101685606D01*
X165072299Y-101684410D01*
X165076000Y-101674065D01*
X165076000Y-101673517D01*
X165584000Y-101673517D01*
X165588064Y-101687359D01*
X165601478Y-101689393D01*
X165608184Y-101688534D01*
X165618262Y-101686392D01*
X165822255Y-101625191D01*
X165831842Y-101621433D01*
X166023095Y-101527739D01*
X166031945Y-101522464D01*
X166205328Y-101398792D01*
X166213200Y-101392139D01*
X166364052Y-101241812D01*
X166370730Y-101233965D01*
X166498022Y-101056819D01*
X166499147Y-101057627D01*
X166546669Y-101013876D01*
X166616607Y-101001661D01*
X166682046Y-101029197D01*
X166709870Y-101061028D01*
X166767690Y-101155383D01*
X166773777Y-101163699D01*
X166913213Y-101324667D01*
X166920580Y-101331883D01*
X167084434Y-101467916D01*
X167092881Y-101473831D01*
X167276756Y-101581279D01*
X167286042Y-101585729D01*
X167485001Y-101661703D01*
X167494899Y-101664579D01*
X167598250Y-101685606D01*
X167612299Y-101684410D01*
X167616000Y-101674065D01*
X167616000Y-101673517D01*
X168124000Y-101673517D01*
X168128064Y-101687359D01*
X168141478Y-101689393D01*
X168148184Y-101688534D01*
X168158262Y-101686392D01*
X168362255Y-101625191D01*
X168371842Y-101621433D01*
X168563095Y-101527739D01*
X168571945Y-101522464D01*
X168745328Y-101398792D01*
X168753200Y-101392139D01*
X168858286Y-101287418D01*
X168920657Y-101253501D01*
X168991464Y-101258689D01*
X169048226Y-101301335D01*
X169065208Y-101332439D01*
X169106675Y-101443052D01*
X169115214Y-101458649D01*
X169191715Y-101560724D01*
X169204276Y-101573285D01*
X169306351Y-101649786D01*
X169321946Y-101658324D01*
X169442394Y-101703478D01*
X169457649Y-101707105D01*
X169508514Y-101712631D01*
X169515328Y-101713000D01*
X170137885Y-101713000D01*
X170153124Y-101708525D01*
X170154329Y-101707135D01*
X170156000Y-101699452D01*
X170156000Y-101694884D01*
X170664000Y-101694884D01*
X170668475Y-101710123D01*
X170669865Y-101711328D01*
X170677548Y-101712999D01*
X171304669Y-101712999D01*
X171311490Y-101712629D01*
X171362352Y-101707105D01*
X171377604Y-101703479D01*
X171498054Y-101658324D01*
X171513649Y-101649786D01*
X171615724Y-101573285D01*
X171628285Y-101560724D01*
X171704786Y-101458649D01*
X171713324Y-101443054D01*
X171758478Y-101322606D01*
X171762105Y-101307351D01*
X171767631Y-101256486D01*
X171768000Y-101249672D01*
X171768000Y-100627115D01*
X171763525Y-100611876D01*
X171762135Y-100610671D01*
X171754452Y-100609000D01*
X170682115Y-100609000D01*
X170666876Y-100613475D01*
X170665671Y-100614865D01*
X170664000Y-100622548D01*
X170664000Y-101694884D01*
X170156000Y-101694884D01*
X170156000Y-100627115D01*
X170151525Y-100611876D01*
X170150135Y-100610671D01*
X170142452Y-100609000D01*
X168142115Y-100609000D01*
X168126876Y-100613475D01*
X168125671Y-100614865D01*
X168124000Y-100622548D01*
X168124000Y-101673517D01*
X167616000Y-101673517D01*
X167616000Y-100627115D01*
X167611525Y-100611876D01*
X167610135Y-100610671D01*
X167602452Y-100609000D01*
X165602115Y-100609000D01*
X165586876Y-100613475D01*
X165585671Y-100614865D01*
X165584000Y-100622548D01*
X165584000Y-101673517D01*
X165076000Y-101673517D01*
X165076000Y-100627115D01*
X165071525Y-100611876D01*
X165070135Y-100610671D01*
X165062452Y-100609000D01*
X163062115Y-100609000D01*
X163046876Y-100613475D01*
X163045671Y-100614865D01*
X163044000Y-100622548D01*
X163044000Y-101673517D01*
X162536000Y-101673517D01*
X162536000Y-100627115D01*
X162531525Y-100611876D01*
X162530135Y-100610671D01*
X162522452Y-100609000D01*
X160522115Y-100609000D01*
X160506876Y-100613475D01*
X160505671Y-100614865D01*
X160504000Y-100622548D01*
X160504000Y-101673517D01*
X159996000Y-101673517D01*
X159996000Y-100627115D01*
X159991525Y-100611876D01*
X159990135Y-100610671D01*
X159982452Y-100609000D01*
X158933225Y-100609000D01*
X158919694Y-100612973D01*
X158918257Y-100622966D01*
X148036782Y-100622966D01*
X148033525Y-100611876D01*
X148032135Y-100610671D01*
X148024452Y-100609000D01*
X146952115Y-100609000D01*
X146936876Y-100613475D01*
X146935671Y-100614865D01*
X146934000Y-100622548D01*
X146934000Y-101694884D01*
X146426000Y-101694884D01*
X146426000Y-100627115D01*
X146421525Y-100611876D01*
X146420135Y-100610671D01*
X146412452Y-100609000D01*
X144412115Y-100609000D01*
X144396876Y-100613475D01*
X144395671Y-100614865D01*
X144394000Y-100622548D01*
X144394000Y-101673517D01*
X143886000Y-101673517D01*
X143886000Y-100627115D01*
X143881525Y-100611876D01*
X143880135Y-100610671D01*
X143872452Y-100609000D01*
X141872115Y-100609000D01*
X141856876Y-100613475D01*
X141855671Y-100614865D01*
X141854000Y-100622548D01*
X141854000Y-101673517D01*
X141346000Y-101673517D01*
X141346000Y-100627115D01*
X141341525Y-100611876D01*
X141340135Y-100610671D01*
X141332452Y-100609000D01*
X139332115Y-100609000D01*
X139316876Y-100613475D01*
X139315671Y-100614865D01*
X139314000Y-100622548D01*
X139314000Y-101673517D01*
X138806000Y-101673517D01*
X138806000Y-100627115D01*
X138801525Y-100611876D01*
X138800135Y-100610671D01*
X138792452Y-100609000D01*
X136792115Y-100609000D01*
X136776876Y-100613475D01*
X136775671Y-100614865D01*
X136774000Y-100622548D01*
X136774000Y-101673517D01*
X136266000Y-101673517D01*
X136266000Y-100627115D01*
X136261525Y-100611876D01*
X136260135Y-100610671D01*
X136252452Y-100609000D01*
X135203225Y-100609000D01*
X135189694Y-100612973D01*
X135188257Y-100622966D01*
X124356782Y-100622966D01*
X124353525Y-100611876D01*
X124352135Y-100610671D01*
X124344452Y-100609000D01*
X123272115Y-100609000D01*
X123256876Y-100613475D01*
X123255671Y-100614865D01*
X123254000Y-100622548D01*
X123254000Y-101694884D01*
X122746000Y-101694884D01*
X122746000Y-100627115D01*
X122741525Y-100611876D01*
X122740135Y-100610671D01*
X122732452Y-100609000D01*
X120732115Y-100609000D01*
X120716876Y-100613475D01*
X120715671Y-100614865D01*
X120714000Y-100622548D01*
X120714000Y-101673517D01*
X120206000Y-101673517D01*
X120206000Y-100627115D01*
X120201525Y-100611876D01*
X120200135Y-100610671D01*
X120192452Y-100609000D01*
X118192115Y-100609000D01*
X118176876Y-100613475D01*
X118175671Y-100614865D01*
X118174000Y-100622548D01*
X118174000Y-101673517D01*
X117666000Y-101673517D01*
X117666000Y-100627115D01*
X117661525Y-100611876D01*
X117660135Y-100610671D01*
X117652452Y-100609000D01*
X115652115Y-100609000D01*
X115636876Y-100613475D01*
X115635671Y-100614865D01*
X115634000Y-100622548D01*
X115634000Y-101673517D01*
X115126000Y-101673517D01*
X115126000Y-100627115D01*
X115121525Y-100611876D01*
X115120135Y-100610671D01*
X115112452Y-100609000D01*
X113112115Y-100609000D01*
X113096876Y-100613475D01*
X113095671Y-100614865D01*
X113094000Y-100622548D01*
X113094000Y-101673517D01*
X112586000Y-101673517D01*
X112586000Y-100627115D01*
X112581525Y-100611876D01*
X112580135Y-100610671D01*
X112572452Y-100609000D01*
X111523225Y-100609000D01*
X111509694Y-100612973D01*
X111508257Y-100622966D01*
X102502790Y-100622966D01*
X102511529Y-100556590D01*
X102513156Y-100490000D01*
X102494852Y-100267361D01*
X102450097Y-100089183D01*
X111504389Y-100089183D01*
X111505912Y-100097607D01*
X111518292Y-100101000D01*
X112567885Y-100101000D01*
X112583124Y-100096525D01*
X112584329Y-100095135D01*
X112586000Y-100087452D01*
X112586000Y-100082885D01*
X113094000Y-100082885D01*
X113098475Y-100098124D01*
X113099865Y-100099329D01*
X113107548Y-100101000D01*
X115107885Y-100101000D01*
X115123124Y-100096525D01*
X115124329Y-100095135D01*
X115126000Y-100087452D01*
X115126000Y-100082885D01*
X115634000Y-100082885D01*
X115638475Y-100098124D01*
X115639865Y-100099329D01*
X115647548Y-100101000D01*
X117647885Y-100101000D01*
X117663124Y-100096525D01*
X117664329Y-100095135D01*
X117666000Y-100087452D01*
X117666000Y-100082885D01*
X118174000Y-100082885D01*
X118178475Y-100098124D01*
X118179865Y-100099329D01*
X118187548Y-100101000D01*
X120187885Y-100101000D01*
X120203124Y-100096525D01*
X120204329Y-100095135D01*
X120206000Y-100087452D01*
X120206000Y-100082885D01*
X120714000Y-100082885D01*
X120718475Y-100098124D01*
X120719865Y-100099329D01*
X120727548Y-100101000D01*
X122727885Y-100101000D01*
X122743124Y-100096525D01*
X122744329Y-100095135D01*
X122746000Y-100087452D01*
X122746000Y-100082885D01*
X123254000Y-100082885D01*
X123258475Y-100098124D01*
X123259865Y-100099329D01*
X123267548Y-100101000D01*
X124339884Y-100101000D01*
X124355123Y-100096525D01*
X124356328Y-100095135D01*
X124357623Y-100089183D01*
X135184389Y-100089183D01*
X135185912Y-100097607D01*
X135198292Y-100101000D01*
X136247885Y-100101000D01*
X136263124Y-100096525D01*
X136264329Y-100095135D01*
X136266000Y-100087452D01*
X136266000Y-100082885D01*
X136774000Y-100082885D01*
X136778475Y-100098124D01*
X136779865Y-100099329D01*
X136787548Y-100101000D01*
X138787885Y-100101000D01*
X138803124Y-100096525D01*
X138804329Y-100095135D01*
X138806000Y-100087452D01*
X138806000Y-100082885D01*
X139314000Y-100082885D01*
X139318475Y-100098124D01*
X139319865Y-100099329D01*
X139327548Y-100101000D01*
X141327885Y-100101000D01*
X141343124Y-100096525D01*
X141344329Y-100095135D01*
X141346000Y-100087452D01*
X141346000Y-100082885D01*
X141854000Y-100082885D01*
X141858475Y-100098124D01*
X141859865Y-100099329D01*
X141867548Y-100101000D01*
X143867885Y-100101000D01*
X143883124Y-100096525D01*
X143884329Y-100095135D01*
X143886000Y-100087452D01*
X143886000Y-100082885D01*
X144394000Y-100082885D01*
X144398475Y-100098124D01*
X144399865Y-100099329D01*
X144407548Y-100101000D01*
X146407885Y-100101000D01*
X146423124Y-100096525D01*
X146424329Y-100095135D01*
X146426000Y-100087452D01*
X146426000Y-100082885D01*
X146934000Y-100082885D01*
X146938475Y-100098124D01*
X146939865Y-100099329D01*
X146947548Y-100101000D01*
X148019884Y-100101000D01*
X148035123Y-100096525D01*
X148036328Y-100095135D01*
X148037623Y-100089183D01*
X158914389Y-100089183D01*
X158915912Y-100097607D01*
X158928292Y-100101000D01*
X159977885Y-100101000D01*
X159993124Y-100096525D01*
X159994329Y-100095135D01*
X159996000Y-100087452D01*
X159996000Y-100082885D01*
X160504000Y-100082885D01*
X160508475Y-100098124D01*
X160509865Y-100099329D01*
X160517548Y-100101000D01*
X162517885Y-100101000D01*
X162533124Y-100096525D01*
X162534329Y-100095135D01*
X162536000Y-100087452D01*
X162536000Y-100082885D01*
X163044000Y-100082885D01*
X163048475Y-100098124D01*
X163049865Y-100099329D01*
X163057548Y-100101000D01*
X165057885Y-100101000D01*
X165073124Y-100096525D01*
X165074329Y-100095135D01*
X165076000Y-100087452D01*
X165076000Y-100082885D01*
X165584000Y-100082885D01*
X165588475Y-100098124D01*
X165589865Y-100099329D01*
X165597548Y-100101000D01*
X167597885Y-100101000D01*
X167613124Y-100096525D01*
X167614329Y-100095135D01*
X167616000Y-100087452D01*
X167616000Y-100082885D01*
X168124000Y-100082885D01*
X168128475Y-100098124D01*
X168129865Y-100099329D01*
X168137548Y-100101000D01*
X170137885Y-100101000D01*
X170153124Y-100096525D01*
X170154329Y-100095135D01*
X170156000Y-100087452D01*
X170156000Y-100082885D01*
X170664000Y-100082885D01*
X170668475Y-100098124D01*
X170669865Y-100099329D01*
X170677548Y-100101000D01*
X171749884Y-100101000D01*
X171765123Y-100096525D01*
X171766328Y-100095135D01*
X171767999Y-100087452D01*
X171767999Y-99460331D01*
X171767629Y-99453510D01*
X171762105Y-99402648D01*
X171758479Y-99387396D01*
X171713324Y-99266946D01*
X171704786Y-99251351D01*
X171628285Y-99149276D01*
X171615724Y-99136715D01*
X171513649Y-99060214D01*
X171498054Y-99051676D01*
X171377606Y-99006522D01*
X171362351Y-99002895D01*
X171311486Y-98997369D01*
X171304672Y-98997000D01*
X170682115Y-98997000D01*
X170666876Y-99001475D01*
X170665671Y-99002865D01*
X170664000Y-99010548D01*
X170664000Y-100082885D01*
X170156000Y-100082885D01*
X170156000Y-99015116D01*
X170151525Y-98999877D01*
X170150135Y-98998672D01*
X170142452Y-98997001D01*
X169515331Y-98997001D01*
X169508510Y-98997371D01*
X169457648Y-99002895D01*
X169442396Y-99006521D01*
X169321946Y-99051676D01*
X169306351Y-99060214D01*
X169204276Y-99136715D01*
X169191715Y-99149276D01*
X169115214Y-99251351D01*
X169106676Y-99266946D01*
X169065100Y-99377849D01*
X169022458Y-99434613D01*
X168955897Y-99459313D01*
X168886548Y-99444105D01*
X168853925Y-99418419D01*
X168802806Y-99362240D01*
X168795273Y-99355215D01*
X168628139Y-99223222D01*
X168619552Y-99217517D01*
X168433117Y-99114599D01*
X168423705Y-99110369D01*
X168222959Y-99039280D01*
X168212988Y-99036646D01*
X168141837Y-99023972D01*
X168128540Y-99025432D01*
X168124000Y-99039989D01*
X168124000Y-100082885D01*
X167616000Y-100082885D01*
X167616000Y-99038102D01*
X167612082Y-99024758D01*
X167597806Y-99022771D01*
X167559324Y-99028660D01*
X167549288Y-99031051D01*
X167346868Y-99097212D01*
X167337359Y-99101209D01*
X167148463Y-99199542D01*
X167139738Y-99205036D01*
X166969433Y-99332905D01*
X166961726Y-99339748D01*
X166814590Y-99493717D01*
X166808104Y-99501727D01*
X166703193Y-99655521D01*
X166648282Y-99700524D01*
X166577757Y-99708695D01*
X166514010Y-99677441D01*
X166493313Y-99652957D01*
X166412427Y-99527926D01*
X166406136Y-99519757D01*
X166262806Y-99362240D01*
X166255273Y-99355215D01*
X166088139Y-99223222D01*
X166079552Y-99217517D01*
X165893117Y-99114599D01*
X165883705Y-99110369D01*
X165682959Y-99039280D01*
X165672988Y-99036646D01*
X165601837Y-99023972D01*
X165588540Y-99025432D01*
X165584000Y-99039989D01*
X165584000Y-100082885D01*
X165076000Y-100082885D01*
X165076000Y-99038102D01*
X165072082Y-99024758D01*
X165057806Y-99022771D01*
X165019324Y-99028660D01*
X165009288Y-99031051D01*
X164806868Y-99097212D01*
X164797359Y-99101209D01*
X164608463Y-99199542D01*
X164599738Y-99205036D01*
X164429433Y-99332905D01*
X164421726Y-99339748D01*
X164274590Y-99493717D01*
X164268104Y-99501727D01*
X164163193Y-99655521D01*
X164108282Y-99700524D01*
X164037757Y-99708695D01*
X163974010Y-99677441D01*
X163953313Y-99652957D01*
X163872427Y-99527926D01*
X163866136Y-99519757D01*
X163722806Y-99362240D01*
X163715273Y-99355215D01*
X163548139Y-99223222D01*
X163539552Y-99217517D01*
X163353117Y-99114599D01*
X163343705Y-99110369D01*
X163142959Y-99039280D01*
X163132988Y-99036646D01*
X163061837Y-99023972D01*
X163048540Y-99025432D01*
X163044000Y-99039989D01*
X163044000Y-100082885D01*
X162536000Y-100082885D01*
X162536000Y-99038102D01*
X162532082Y-99024758D01*
X162517806Y-99022771D01*
X162479324Y-99028660D01*
X162469288Y-99031051D01*
X162266868Y-99097212D01*
X162257359Y-99101209D01*
X162068463Y-99199542D01*
X162059738Y-99205036D01*
X161889433Y-99332905D01*
X161881726Y-99339748D01*
X161734590Y-99493717D01*
X161728104Y-99501727D01*
X161623193Y-99655521D01*
X161568282Y-99700524D01*
X161497757Y-99708695D01*
X161434010Y-99677441D01*
X161413313Y-99652957D01*
X161332427Y-99527926D01*
X161326136Y-99519757D01*
X161182806Y-99362240D01*
X161175273Y-99355215D01*
X161008139Y-99223222D01*
X160999552Y-99217517D01*
X160813117Y-99114599D01*
X160803705Y-99110369D01*
X160602959Y-99039280D01*
X160592988Y-99036646D01*
X160521837Y-99023972D01*
X160508540Y-99025432D01*
X160504000Y-99039989D01*
X160504000Y-100082885D01*
X159996000Y-100082885D01*
X159996000Y-99038102D01*
X159992082Y-99024758D01*
X159977806Y-99022771D01*
X159939324Y-99028660D01*
X159929288Y-99031051D01*
X159726868Y-99097212D01*
X159717359Y-99101209D01*
X159528463Y-99199542D01*
X159519738Y-99205036D01*
X159349433Y-99332905D01*
X159341726Y-99339748D01*
X159194590Y-99493717D01*
X159188104Y-99501727D01*
X159068098Y-99677649D01*
X159063000Y-99686623D01*
X158973338Y-99879783D01*
X158969775Y-99889470D01*
X158914389Y-100089183D01*
X148037623Y-100089183D01*
X148037999Y-100087452D01*
X148037999Y-99460331D01*
X148037629Y-99453510D01*
X148032105Y-99402648D01*
X148028479Y-99387396D01*
X147983324Y-99266946D01*
X147974786Y-99251351D01*
X147898285Y-99149276D01*
X147885724Y-99136715D01*
X147783649Y-99060214D01*
X147768054Y-99051676D01*
X147647606Y-99006522D01*
X147632351Y-99002895D01*
X147581486Y-98997369D01*
X147574672Y-98997000D01*
X146952115Y-98997000D01*
X146936876Y-99001475D01*
X146935671Y-99002865D01*
X146934000Y-99010548D01*
X146934000Y-100082885D01*
X146426000Y-100082885D01*
X146426000Y-99015116D01*
X146421525Y-98999877D01*
X146420135Y-98998672D01*
X146412452Y-98997001D01*
X145785331Y-98997001D01*
X145778510Y-98997371D01*
X145727648Y-99002895D01*
X145712396Y-99006521D01*
X145591946Y-99051676D01*
X145576351Y-99060214D01*
X145474276Y-99136715D01*
X145461715Y-99149276D01*
X145385214Y-99251351D01*
X145376676Y-99266946D01*
X145335100Y-99377849D01*
X145292458Y-99434613D01*
X145225897Y-99459313D01*
X145156548Y-99444105D01*
X145123925Y-99418419D01*
X145072806Y-99362240D01*
X145065273Y-99355215D01*
X144898139Y-99223222D01*
X144889552Y-99217517D01*
X144703117Y-99114599D01*
X144693705Y-99110369D01*
X144492959Y-99039280D01*
X144482988Y-99036646D01*
X144411837Y-99023972D01*
X144398540Y-99025432D01*
X144394000Y-99039989D01*
X144394000Y-100082885D01*
X143886000Y-100082885D01*
X143886000Y-99038102D01*
X143882082Y-99024758D01*
X143867806Y-99022771D01*
X143829324Y-99028660D01*
X143819288Y-99031051D01*
X143616868Y-99097212D01*
X143607359Y-99101209D01*
X143418463Y-99199542D01*
X143409738Y-99205036D01*
X143239433Y-99332905D01*
X143231726Y-99339748D01*
X143084590Y-99493717D01*
X143078104Y-99501727D01*
X142973193Y-99655521D01*
X142918282Y-99700524D01*
X142847757Y-99708695D01*
X142784010Y-99677441D01*
X142763313Y-99652957D01*
X142682427Y-99527926D01*
X142676136Y-99519757D01*
X142532806Y-99362240D01*
X142525273Y-99355215D01*
X142358139Y-99223222D01*
X142349552Y-99217517D01*
X142163117Y-99114599D01*
X142153705Y-99110369D01*
X141952959Y-99039280D01*
X141942988Y-99036646D01*
X141871837Y-99023972D01*
X141858540Y-99025432D01*
X141854000Y-99039989D01*
X141854000Y-100082885D01*
X141346000Y-100082885D01*
X141346000Y-99038102D01*
X141342082Y-99024758D01*
X141327806Y-99022771D01*
X141289324Y-99028660D01*
X141279288Y-99031051D01*
X141076868Y-99097212D01*
X141067359Y-99101209D01*
X140878463Y-99199542D01*
X140869738Y-99205036D01*
X140699433Y-99332905D01*
X140691726Y-99339748D01*
X140544590Y-99493717D01*
X140538104Y-99501727D01*
X140433193Y-99655521D01*
X140378282Y-99700524D01*
X140307757Y-99708695D01*
X140244010Y-99677441D01*
X140223313Y-99652957D01*
X140142427Y-99527926D01*
X140136136Y-99519757D01*
X139992806Y-99362240D01*
X139985273Y-99355215D01*
X139818139Y-99223222D01*
X139809552Y-99217517D01*
X139623117Y-99114599D01*
X139613705Y-99110369D01*
X139412959Y-99039280D01*
X139402988Y-99036646D01*
X139331837Y-99023972D01*
X139318540Y-99025432D01*
X139314000Y-99039989D01*
X139314000Y-100082885D01*
X138806000Y-100082885D01*
X138806000Y-99038102D01*
X138802082Y-99024758D01*
X138787806Y-99022771D01*
X138749324Y-99028660D01*
X138739288Y-99031051D01*
X138536868Y-99097212D01*
X138527359Y-99101209D01*
X138338463Y-99199542D01*
X138329738Y-99205036D01*
X138159433Y-99332905D01*
X138151726Y-99339748D01*
X138004590Y-99493717D01*
X137998104Y-99501727D01*
X137893193Y-99655521D01*
X137838282Y-99700524D01*
X137767757Y-99708695D01*
X137704010Y-99677441D01*
X137683313Y-99652957D01*
X137602427Y-99527926D01*
X137596136Y-99519757D01*
X137452806Y-99362240D01*
X137445273Y-99355215D01*
X137278139Y-99223222D01*
X137269552Y-99217517D01*
X137083117Y-99114599D01*
X137073705Y-99110369D01*
X136872959Y-99039280D01*
X136862988Y-99036646D01*
X136791837Y-99023972D01*
X136778540Y-99025432D01*
X136774000Y-99039989D01*
X136774000Y-100082885D01*
X136266000Y-100082885D01*
X136266000Y-99038102D01*
X136262082Y-99024758D01*
X136247806Y-99022771D01*
X136209324Y-99028660D01*
X136199288Y-99031051D01*
X135996868Y-99097212D01*
X135987359Y-99101209D01*
X135798463Y-99199542D01*
X135789738Y-99205036D01*
X135619433Y-99332905D01*
X135611726Y-99339748D01*
X135464590Y-99493717D01*
X135458104Y-99501727D01*
X135338098Y-99677649D01*
X135333000Y-99686623D01*
X135243338Y-99879783D01*
X135239775Y-99889470D01*
X135184389Y-100089183D01*
X124357623Y-100089183D01*
X124357999Y-100087452D01*
X124357999Y-99460331D01*
X124357629Y-99453510D01*
X124352105Y-99402648D01*
X124348479Y-99387396D01*
X124303324Y-99266946D01*
X124294786Y-99251351D01*
X124218285Y-99149276D01*
X124205724Y-99136715D01*
X124103649Y-99060214D01*
X124088054Y-99051676D01*
X123967606Y-99006522D01*
X123952351Y-99002895D01*
X123901486Y-98997369D01*
X123894672Y-98997000D01*
X123272115Y-98997000D01*
X123256876Y-99001475D01*
X123255671Y-99002865D01*
X123254000Y-99010548D01*
X123254000Y-100082885D01*
X122746000Y-100082885D01*
X122746000Y-99015116D01*
X122741525Y-98999877D01*
X122740135Y-98998672D01*
X122732452Y-98997001D01*
X122105331Y-98997001D01*
X122098510Y-98997371D01*
X122047648Y-99002895D01*
X122032396Y-99006521D01*
X121911946Y-99051676D01*
X121896351Y-99060214D01*
X121794276Y-99136715D01*
X121781715Y-99149276D01*
X121705214Y-99251351D01*
X121696676Y-99266946D01*
X121655100Y-99377849D01*
X121612458Y-99434613D01*
X121545897Y-99459313D01*
X121476548Y-99444105D01*
X121443925Y-99418419D01*
X121392806Y-99362240D01*
X121385273Y-99355215D01*
X121218139Y-99223222D01*
X121209552Y-99217517D01*
X121023117Y-99114599D01*
X121013705Y-99110369D01*
X120812959Y-99039280D01*
X120802988Y-99036646D01*
X120731837Y-99023972D01*
X120718540Y-99025432D01*
X120714000Y-99039989D01*
X120714000Y-100082885D01*
X120206000Y-100082885D01*
X120206000Y-99038102D01*
X120202082Y-99024758D01*
X120187806Y-99022771D01*
X120149324Y-99028660D01*
X120139288Y-99031051D01*
X119936868Y-99097212D01*
X119927359Y-99101209D01*
X119738463Y-99199542D01*
X119729738Y-99205036D01*
X119559433Y-99332905D01*
X119551726Y-99339748D01*
X119404590Y-99493717D01*
X119398104Y-99501727D01*
X119293193Y-99655521D01*
X119238282Y-99700524D01*
X119167757Y-99708695D01*
X119104010Y-99677441D01*
X119083313Y-99652957D01*
X119002427Y-99527926D01*
X118996136Y-99519757D01*
X118852806Y-99362240D01*
X118845273Y-99355215D01*
X118678139Y-99223222D01*
X118669552Y-99217517D01*
X118483117Y-99114599D01*
X118473705Y-99110369D01*
X118272959Y-99039280D01*
X118262988Y-99036646D01*
X118191837Y-99023972D01*
X118178540Y-99025432D01*
X118174000Y-99039989D01*
X118174000Y-100082885D01*
X117666000Y-100082885D01*
X117666000Y-99038102D01*
X117662082Y-99024758D01*
X117647806Y-99022771D01*
X117609324Y-99028660D01*
X117599288Y-99031051D01*
X117396868Y-99097212D01*
X117387359Y-99101209D01*
X117198463Y-99199542D01*
X117189738Y-99205036D01*
X117019433Y-99332905D01*
X117011726Y-99339748D01*
X116864590Y-99493717D01*
X116858104Y-99501727D01*
X116753193Y-99655521D01*
X116698282Y-99700524D01*
X116627757Y-99708695D01*
X116564010Y-99677441D01*
X116543313Y-99652957D01*
X116462427Y-99527926D01*
X116456136Y-99519757D01*
X116312806Y-99362240D01*
X116305273Y-99355215D01*
X116138139Y-99223222D01*
X116129552Y-99217517D01*
X115943117Y-99114599D01*
X115933705Y-99110369D01*
X115732959Y-99039280D01*
X115722988Y-99036646D01*
X115651837Y-99023972D01*
X115638540Y-99025432D01*
X115634000Y-99039989D01*
X115634000Y-100082885D01*
X115126000Y-100082885D01*
X115126000Y-99038102D01*
X115122082Y-99024758D01*
X115107806Y-99022771D01*
X115069324Y-99028660D01*
X115059288Y-99031051D01*
X114856868Y-99097212D01*
X114847359Y-99101209D01*
X114658463Y-99199542D01*
X114649738Y-99205036D01*
X114479433Y-99332905D01*
X114471726Y-99339748D01*
X114324590Y-99493717D01*
X114318104Y-99501727D01*
X114213193Y-99655521D01*
X114158282Y-99700524D01*
X114087757Y-99708695D01*
X114024010Y-99677441D01*
X114003313Y-99652957D01*
X113922427Y-99527926D01*
X113916136Y-99519757D01*
X113772806Y-99362240D01*
X113765273Y-99355215D01*
X113598139Y-99223222D01*
X113589552Y-99217517D01*
X113403117Y-99114599D01*
X113393705Y-99110369D01*
X113192959Y-99039280D01*
X113182988Y-99036646D01*
X113111837Y-99023972D01*
X113098540Y-99025432D01*
X113094000Y-99039989D01*
X113094000Y-100082885D01*
X112586000Y-100082885D01*
X112586000Y-99038102D01*
X112582082Y-99024758D01*
X112567806Y-99022771D01*
X112529324Y-99028660D01*
X112519288Y-99031051D01*
X112316868Y-99097212D01*
X112307359Y-99101209D01*
X112118463Y-99199542D01*
X112109738Y-99205036D01*
X111939433Y-99332905D01*
X111931726Y-99339748D01*
X111784590Y-99493717D01*
X111778104Y-99501727D01*
X111658098Y-99677649D01*
X111653000Y-99686623D01*
X111563338Y-99879783D01*
X111559775Y-99889470D01*
X111504389Y-100089183D01*
X102450097Y-100089183D01*
X102440431Y-100050702D01*
X102351354Y-99845840D01*
X102248352Y-99686623D01*
X102232822Y-99662617D01*
X102232820Y-99662614D01*
X102230014Y-99658277D01*
X102225173Y-99652957D01*
X102082798Y-99496488D01*
X102051746Y-99432642D01*
X102060141Y-99362143D01*
X102105317Y-99307375D01*
X102131761Y-99293706D01*
X102238297Y-99253767D01*
X102246705Y-99250615D01*
X102363261Y-99163261D01*
X102450615Y-99046705D01*
X102501745Y-98910316D01*
X102508500Y-98848134D01*
X102508500Y-97051866D01*
X102501745Y-96989684D01*
X102450615Y-96853295D01*
X102363261Y-96736739D01*
X102246705Y-96649385D01*
X102110316Y-96598255D01*
X102048134Y-96591500D01*
X100251866Y-96591500D01*
X100189684Y-96598255D01*
X100053295Y-96649385D01*
X99936739Y-96736739D01*
X99849385Y-96853295D01*
X99798255Y-96989684D01*
X99791500Y-97051866D01*
X99791500Y-98848134D01*
X99798255Y-98910316D01*
X99849385Y-99046705D01*
X99936739Y-99163261D01*
X100053295Y-99250615D01*
X100061704Y-99253767D01*
X100061705Y-99253768D01*
X100170451Y-99294535D01*
X100227216Y-99337176D01*
X100251916Y-99403738D01*
X100236709Y-99473087D01*
X100217316Y-99499568D01*
X100090629Y-99632138D01*
X100087715Y-99636410D01*
X100087714Y-99636411D01*
X100053462Y-99686623D01*
X99964743Y-99816680D01*
X99870688Y-100019305D01*
X99810989Y-100234570D01*
X99787251Y-100456695D01*
X99787548Y-100461848D01*
X99787548Y-100461851D01*
X99796262Y-100612973D01*
X99800110Y-100679715D01*
X99801247Y-100684761D01*
X99801248Y-100684767D01*
X99817628Y-100757446D01*
X99849222Y-100897639D01*
X99933266Y-101104616D01*
X99935965Y-101109020D01*
X100024503Y-101253501D01*
X100049987Y-101295088D01*
X100196250Y-101463938D01*
X100368126Y-101606632D01*
X100393455Y-101621433D01*
X100441445Y-101649476D01*
X100490169Y-101701114D01*
X100503240Y-101770897D01*
X100476509Y-101836669D01*
X100436055Y-101870027D01*
X100423607Y-101876507D01*
X100419474Y-101879610D01*
X100419471Y-101879612D01*
X100395247Y-101897800D01*
X100244965Y-102010635D01*
X100090629Y-102172138D01*
X99964743Y-102356680D01*
X99870688Y-102559305D01*
X99810989Y-102774570D01*
X99787251Y-102996695D01*
X99787548Y-103001848D01*
X99787548Y-103001851D01*
X99793011Y-103096590D01*
X99800110Y-103219715D01*
X99801247Y-103224761D01*
X99801248Y-103224767D01*
X99821119Y-103312939D01*
X99849222Y-103437639D01*
X99933266Y-103644616D01*
X100049987Y-103835088D01*
X100196250Y-104003938D01*
X100368126Y-104146632D01*
X100438595Y-104187811D01*
X100441445Y-104189476D01*
X100490169Y-104241114D01*
X100503240Y-104310897D01*
X100476509Y-104376669D01*
X100436055Y-104410027D01*
X100423607Y-104416507D01*
X100419474Y-104419610D01*
X100419471Y-104419612D01*
X100395247Y-104437800D01*
X100244965Y-104550635D01*
X100090629Y-104712138D01*
X99964743Y-104896680D01*
X99870688Y-105099305D01*
X99810989Y-105314570D01*
X99787251Y-105536695D01*
X99787548Y-105541848D01*
X99787548Y-105541851D01*
X99793011Y-105636590D01*
X99800110Y-105759715D01*
X99801247Y-105764761D01*
X99801248Y-105764767D01*
X99822275Y-105858069D01*
X99849222Y-105977639D01*
X99887461Y-106071811D01*
X99919943Y-106151804D01*
X99933266Y-106184616D01*
X99935965Y-106189020D01*
X100017196Y-106321577D01*
X100049987Y-106375088D01*
X100196250Y-106543938D01*
X100368126Y-106686632D01*
X100429360Y-106722414D01*
X100441445Y-106729476D01*
X100490169Y-106781114D01*
X100503240Y-106850897D01*
X100476509Y-106916669D01*
X100436055Y-106950027D01*
X100423607Y-106956507D01*
X100419474Y-106959610D01*
X100419471Y-106959612D01*
X100249100Y-107087530D01*
X100244965Y-107090635D01*
X100241393Y-107094373D01*
X100107865Y-107234102D01*
X100090629Y-107252138D01*
X99964743Y-107436680D01*
X99870688Y-107639305D01*
X99810989Y-107854570D01*
X99787251Y-108076695D01*
X87260418Y-108076695D01*
X87244852Y-107887361D01*
X87190431Y-107670702D01*
X87101354Y-107465840D01*
X86980014Y-107278277D01*
X86829670Y-107113051D01*
X86825619Y-107109852D01*
X86825615Y-107109848D01*
X86658414Y-106977800D01*
X86658410Y-106977798D01*
X86654359Y-106974598D01*
X86613053Y-106951796D01*
X86563084Y-106901364D01*
X86548312Y-106831921D01*
X86573428Y-106765516D01*
X86600780Y-106738909D01*
X86644603Y-106707650D01*
X86779860Y-106611173D01*
X86938096Y-106453489D01*
X86997594Y-106370689D01*
X87065435Y-106276277D01*
X87068453Y-106272077D01*
X87167430Y-106071811D01*
X87232370Y-105858069D01*
X87261529Y-105636590D01*
X87263156Y-105570000D01*
X87244852Y-105347361D01*
X87190431Y-105130702D01*
X87101354Y-104925840D01*
X86980014Y-104738277D01*
X86829670Y-104573051D01*
X86825619Y-104569852D01*
X86825615Y-104569848D01*
X86658414Y-104437800D01*
X86658410Y-104437798D01*
X86654359Y-104434598D01*
X86613053Y-104411796D01*
X86563084Y-104361364D01*
X86548312Y-104291921D01*
X86573428Y-104225516D01*
X86600780Y-104198909D01*
X86644603Y-104167650D01*
X86779860Y-104071173D01*
X86938096Y-103913489D01*
X86997594Y-103830689D01*
X87065435Y-103736277D01*
X87068453Y-103732077D01*
X87167430Y-103531811D01*
X87232370Y-103318069D01*
X87261529Y-103096590D01*
X87263156Y-103030000D01*
X87244852Y-102807361D01*
X87190431Y-102590702D01*
X87101354Y-102385840D01*
X86980014Y-102198277D01*
X86829670Y-102033051D01*
X86825619Y-102029852D01*
X86825615Y-102029848D01*
X86658414Y-101897800D01*
X86658410Y-101897798D01*
X86654359Y-101894598D01*
X86613053Y-101871796D01*
X86563084Y-101821364D01*
X86548312Y-101751921D01*
X86573428Y-101685516D01*
X86600780Y-101658909D01*
X86653319Y-101621433D01*
X86779860Y-101531173D01*
X86788600Y-101522464D01*
X86934435Y-101377137D01*
X86938096Y-101373489D01*
X86997594Y-101290689D01*
X87065435Y-101196277D01*
X87068453Y-101192077D01*
X87167430Y-100991811D01*
X87232370Y-100778069D01*
X87261529Y-100556590D01*
X87263156Y-100490000D01*
X87244852Y-100267361D01*
X87190431Y-100050702D01*
X87101354Y-99845840D01*
X86998352Y-99686623D01*
X86982822Y-99662617D01*
X86982820Y-99662614D01*
X86980014Y-99658277D01*
X86975173Y-99652957D01*
X86832798Y-99496488D01*
X86801746Y-99432642D01*
X86810141Y-99362143D01*
X86855317Y-99307375D01*
X86881761Y-99293706D01*
X86988297Y-99253767D01*
X86996705Y-99250615D01*
X87113261Y-99163261D01*
X87200615Y-99046705D01*
X87251745Y-98910316D01*
X87258500Y-98848134D01*
X87258500Y-97051866D01*
X87251745Y-96989684D01*
X87200615Y-96853295D01*
X87113261Y-96736739D01*
X86996705Y-96649385D01*
X86860316Y-96598255D01*
X86798134Y-96591500D01*
X85001866Y-96591500D01*
X84939684Y-96598255D01*
X84803295Y-96649385D01*
X84686739Y-96736739D01*
X84599385Y-96853295D01*
X84548255Y-96989684D01*
X84541500Y-97051866D01*
X84541500Y-98848134D01*
X84548255Y-98910316D01*
X84599385Y-99046705D01*
X84686739Y-99163261D01*
X84803295Y-99250615D01*
X84811704Y-99253767D01*
X84811705Y-99253768D01*
X84920451Y-99294535D01*
X84977216Y-99337176D01*
X85001916Y-99403738D01*
X84986709Y-99473087D01*
X84967316Y-99499568D01*
X84840629Y-99632138D01*
X84837715Y-99636410D01*
X84837714Y-99636411D01*
X84803462Y-99686623D01*
X84714743Y-99816680D01*
X84620688Y-100019305D01*
X84560989Y-100234570D01*
X84537251Y-100456695D01*
X84537548Y-100461848D01*
X84537548Y-100461851D01*
X84546262Y-100612973D01*
X84550110Y-100679715D01*
X84551247Y-100684761D01*
X84551248Y-100684767D01*
X84567628Y-100757446D01*
X84599222Y-100897639D01*
X84683266Y-101104616D01*
X84685965Y-101109020D01*
X84774503Y-101253501D01*
X84799987Y-101295088D01*
X84946250Y-101463938D01*
X85118126Y-101606632D01*
X85143455Y-101621433D01*
X85191445Y-101649476D01*
X85240169Y-101701114D01*
X85253240Y-101770897D01*
X85226509Y-101836669D01*
X85186055Y-101870027D01*
X85173607Y-101876507D01*
X85169474Y-101879610D01*
X85169471Y-101879612D01*
X85145247Y-101897800D01*
X84994965Y-102010635D01*
X84840629Y-102172138D01*
X84714743Y-102356680D01*
X84620688Y-102559305D01*
X84560989Y-102774570D01*
X84537251Y-102996695D01*
X84537548Y-103001848D01*
X84537548Y-103001851D01*
X84543011Y-103096590D01*
X84550110Y-103219715D01*
X84551247Y-103224761D01*
X84551248Y-103224767D01*
X84571119Y-103312939D01*
X84599222Y-103437639D01*
X84683266Y-103644616D01*
X84799987Y-103835088D01*
X84946250Y-104003938D01*
X85118126Y-104146632D01*
X85188595Y-104187811D01*
X85191445Y-104189476D01*
X85240169Y-104241114D01*
X85253240Y-104310897D01*
X85226509Y-104376669D01*
X85186055Y-104410027D01*
X85173607Y-104416507D01*
X85169474Y-104419610D01*
X85169471Y-104419612D01*
X85145247Y-104437800D01*
X84994965Y-104550635D01*
X84840629Y-104712138D01*
X84714743Y-104896680D01*
X84620688Y-105099305D01*
X84560989Y-105314570D01*
X84537251Y-105536695D01*
X84537548Y-105541848D01*
X84537548Y-105541851D01*
X84543011Y-105636590D01*
X84550110Y-105759715D01*
X84551247Y-105764761D01*
X84551248Y-105764767D01*
X84572275Y-105858069D01*
X84599222Y-105977639D01*
X84637461Y-106071811D01*
X84669943Y-106151804D01*
X84683266Y-106184616D01*
X84685965Y-106189020D01*
X84767196Y-106321577D01*
X84799987Y-106375088D01*
X84946250Y-106543938D01*
X85118126Y-106686632D01*
X85179360Y-106722414D01*
X85191445Y-106729476D01*
X85240169Y-106781114D01*
X85253240Y-106850897D01*
X85226509Y-106916669D01*
X85186055Y-106950027D01*
X85173607Y-106956507D01*
X85169474Y-106959610D01*
X85169471Y-106959612D01*
X84999100Y-107087530D01*
X84994965Y-107090635D01*
X84991393Y-107094373D01*
X84857865Y-107234102D01*
X84840629Y-107252138D01*
X84714743Y-107436680D01*
X84620688Y-107639305D01*
X84560989Y-107854570D01*
X84537251Y-108076695D01*
X74037899Y-108076695D01*
X74039235Y-107821583D01*
X74039235Y-107821576D01*
X74039257Y-107817297D01*
X74001732Y-107532266D01*
X73982371Y-107461492D01*
X73933436Y-107282617D01*
X73925871Y-107254964D01*
X73865340Y-107113051D01*
X73814763Y-106994476D01*
X73814761Y-106994472D01*
X73813077Y-106990524D01*
X73718155Y-106831921D01*
X73667643Y-106747521D01*
X73667640Y-106747517D01*
X73665439Y-106743839D01*
X73485687Y-106519472D01*
X73277149Y-106321577D01*
X73043683Y-106153814D01*
X73021843Y-106142250D01*
X72998654Y-106129972D01*
X72789608Y-106019288D01*
X72519627Y-105920489D01*
X72238736Y-105859245D01*
X72207685Y-105856801D01*
X72015718Y-105841693D01*
X72015709Y-105841693D01*
X72013261Y-105841500D01*
X71857729Y-105841500D01*
X71855593Y-105841646D01*
X71855582Y-105841646D01*
X71647452Y-105855835D01*
X71647446Y-105855836D01*
X71643175Y-105856127D01*
X71638980Y-105856996D01*
X71638978Y-105856996D01*
X71609875Y-105863023D01*
X71361658Y-105914426D01*
X71090657Y-106010393D01*
X70835188Y-106142250D01*
X70831687Y-106144711D01*
X70831683Y-106144713D01*
X70821594Y-106151804D01*
X70599977Y-106307559D01*
X70389378Y-106503260D01*
X70207287Y-106725732D01*
X70057073Y-106970858D01*
X69941517Y-107234102D01*
X69940342Y-107238229D01*
X69940341Y-107238230D01*
X69928933Y-107278277D01*
X69862756Y-107510594D01*
X69822249Y-107795216D01*
X69822227Y-107799505D01*
X69822226Y-107799512D01*
X69821766Y-107887361D01*
X69820743Y-108082703D01*
X67008500Y-108082703D01*
X67008500Y-85126695D01*
X84537251Y-85126695D01*
X84537548Y-85131848D01*
X84537548Y-85131851D01*
X84543011Y-85226590D01*
X84550110Y-85349715D01*
X84551247Y-85354761D01*
X84551248Y-85354767D01*
X84571119Y-85442939D01*
X84599222Y-85567639D01*
X84683266Y-85774616D01*
X84799987Y-85965088D01*
X84946250Y-86133938D01*
X85118126Y-86276632D01*
X85311000Y-86389338D01*
X85315825Y-86391180D01*
X85315826Y-86391181D01*
X85353625Y-86405615D01*
X85519692Y-86469030D01*
X85524760Y-86470061D01*
X85524763Y-86470062D01*
X85632017Y-86491883D01*
X85738597Y-86513567D01*
X85743772Y-86513757D01*
X85743774Y-86513757D01*
X85956673Y-86521564D01*
X85956677Y-86521564D01*
X85961837Y-86521753D01*
X85966957Y-86521097D01*
X85966959Y-86521097D01*
X86178288Y-86494025D01*
X86178289Y-86494025D01*
X86183416Y-86493368D01*
X86188366Y-86491883D01*
X86392429Y-86430661D01*
X86392434Y-86430659D01*
X86397384Y-86429174D01*
X86597994Y-86330896D01*
X86779860Y-86201173D01*
X86938096Y-86043489D01*
X86997594Y-85960689D01*
X87065435Y-85866277D01*
X87068453Y-85862077D01*
X87093206Y-85811994D01*
X87165136Y-85666453D01*
X87165137Y-85666451D01*
X87167430Y-85661811D01*
X87232370Y-85448069D01*
X87261529Y-85226590D01*
X87263156Y-85160000D01*
X87260418Y-85126695D01*
X99787251Y-85126695D01*
X99787548Y-85131848D01*
X99787548Y-85131851D01*
X99793011Y-85226590D01*
X99800110Y-85349715D01*
X99801247Y-85354761D01*
X99801248Y-85354767D01*
X99821119Y-85442939D01*
X99849222Y-85567639D01*
X99933266Y-85774616D01*
X100049987Y-85965088D01*
X100196250Y-86133938D01*
X100368126Y-86276632D01*
X100561000Y-86389338D01*
X100565825Y-86391180D01*
X100565826Y-86391181D01*
X100603625Y-86405615D01*
X100769692Y-86469030D01*
X100774760Y-86470061D01*
X100774763Y-86470062D01*
X100882017Y-86491883D01*
X100988597Y-86513567D01*
X100993772Y-86513757D01*
X100993774Y-86513757D01*
X101206673Y-86521564D01*
X101206677Y-86521564D01*
X101211837Y-86521753D01*
X101216957Y-86521097D01*
X101216959Y-86521097D01*
X101428288Y-86494025D01*
X101428289Y-86494025D01*
X101433416Y-86493368D01*
X101438366Y-86491883D01*
X101642429Y-86430661D01*
X101642434Y-86430659D01*
X101647384Y-86429174D01*
X101847994Y-86330896D01*
X102029860Y-86201173D01*
X102188096Y-86043489D01*
X102247594Y-85960689D01*
X102315435Y-85866277D01*
X102318453Y-85862077D01*
X102343206Y-85811994D01*
X102415136Y-85666453D01*
X102415137Y-85666451D01*
X102417430Y-85661811D01*
X102482370Y-85448069D01*
X102511529Y-85226590D01*
X102513156Y-85160000D01*
X102505896Y-85071695D01*
X111477251Y-85071695D01*
X111477548Y-85076848D01*
X111477548Y-85076851D01*
X111485989Y-85223240D01*
X111490110Y-85294715D01*
X111491247Y-85299761D01*
X111491248Y-85299767D01*
X111501340Y-85344547D01*
X111539222Y-85512639D01*
X111623266Y-85719616D01*
X111660685Y-85780678D01*
X111737291Y-85905688D01*
X111739987Y-85910088D01*
X111886250Y-86078938D01*
X112058126Y-86221632D01*
X112251000Y-86334338D01*
X112459692Y-86414030D01*
X112464760Y-86415061D01*
X112464763Y-86415062D01*
X112541435Y-86430661D01*
X112678597Y-86458567D01*
X112683772Y-86458757D01*
X112683774Y-86458757D01*
X112896673Y-86466564D01*
X112896677Y-86466564D01*
X112901837Y-86466753D01*
X112906957Y-86466097D01*
X112906959Y-86466097D01*
X113118288Y-86439025D01*
X113118289Y-86439025D01*
X113123416Y-86438368D01*
X113154061Y-86429174D01*
X113332429Y-86375661D01*
X113332434Y-86375659D01*
X113337384Y-86374174D01*
X113537994Y-86275896D01*
X113719860Y-86146173D01*
X113878096Y-85988489D01*
X113892108Y-85968990D01*
X114008453Y-85807077D01*
X114009776Y-85808028D01*
X114056645Y-85764857D01*
X114126580Y-85752625D01*
X114192026Y-85780144D01*
X114219875Y-85811994D01*
X114279987Y-85910088D01*
X114426250Y-86078938D01*
X114598126Y-86221632D01*
X114791000Y-86334338D01*
X114999692Y-86414030D01*
X115004760Y-86415061D01*
X115004763Y-86415062D01*
X115081435Y-86430661D01*
X115218597Y-86458567D01*
X115223772Y-86458757D01*
X115223774Y-86458757D01*
X115436673Y-86466564D01*
X115436677Y-86466564D01*
X115441837Y-86466753D01*
X115446957Y-86466097D01*
X115446959Y-86466097D01*
X115658288Y-86439025D01*
X115658289Y-86439025D01*
X115663416Y-86438368D01*
X115694061Y-86429174D01*
X115872429Y-86375661D01*
X115872434Y-86375659D01*
X115877384Y-86374174D01*
X116077994Y-86275896D01*
X116259860Y-86146173D01*
X116418096Y-85988489D01*
X116432108Y-85968990D01*
X116548453Y-85807077D01*
X116549776Y-85808028D01*
X116596645Y-85764857D01*
X116666580Y-85752625D01*
X116732026Y-85780144D01*
X116759875Y-85811994D01*
X116819987Y-85910088D01*
X116966250Y-86078938D01*
X117138126Y-86221632D01*
X117331000Y-86334338D01*
X117539692Y-86414030D01*
X117544760Y-86415061D01*
X117544763Y-86415062D01*
X117621435Y-86430661D01*
X117758597Y-86458567D01*
X117763772Y-86458757D01*
X117763774Y-86458757D01*
X117976673Y-86466564D01*
X117976677Y-86466564D01*
X117981837Y-86466753D01*
X117986957Y-86466097D01*
X117986959Y-86466097D01*
X118198288Y-86439025D01*
X118198289Y-86439025D01*
X118203416Y-86438368D01*
X118234061Y-86429174D01*
X118412429Y-86375661D01*
X118412434Y-86375659D01*
X118417384Y-86374174D01*
X118617994Y-86275896D01*
X118799860Y-86146173D01*
X118958096Y-85988489D01*
X118972108Y-85968990D01*
X119088453Y-85807077D01*
X119089776Y-85808028D01*
X119136645Y-85764857D01*
X119206580Y-85752625D01*
X119272026Y-85780144D01*
X119299875Y-85811994D01*
X119359987Y-85910088D01*
X119506250Y-86078938D01*
X119678126Y-86221632D01*
X119871000Y-86334338D01*
X120079692Y-86414030D01*
X120084760Y-86415061D01*
X120084763Y-86415062D01*
X120161435Y-86430661D01*
X120298597Y-86458567D01*
X120303772Y-86458757D01*
X120303774Y-86458757D01*
X120516673Y-86466564D01*
X120516677Y-86466564D01*
X120521837Y-86466753D01*
X120526957Y-86466097D01*
X120526959Y-86466097D01*
X120738288Y-86439025D01*
X120738289Y-86439025D01*
X120743416Y-86438368D01*
X120774061Y-86429174D01*
X120952429Y-86375661D01*
X120952434Y-86375659D01*
X120957384Y-86374174D01*
X121157994Y-86275896D01*
X121339860Y-86146173D01*
X121448091Y-86038319D01*
X121510462Y-86004404D01*
X121581268Y-86009592D01*
X121638030Y-86052238D01*
X121655012Y-86083341D01*
X121673980Y-86133938D01*
X121699385Y-86201705D01*
X121786739Y-86318261D01*
X121903295Y-86405615D01*
X122039684Y-86456745D01*
X122101866Y-86463500D01*
X123898134Y-86463500D01*
X123960316Y-86456745D01*
X124096705Y-86405615D01*
X124213261Y-86318261D01*
X124300615Y-86201705D01*
X124351745Y-86065316D01*
X124358500Y-86003134D01*
X124358500Y-85071695D01*
X135157251Y-85071695D01*
X135157548Y-85076848D01*
X135157548Y-85076851D01*
X135165989Y-85223240D01*
X135170110Y-85294715D01*
X135171247Y-85299761D01*
X135171248Y-85299767D01*
X135181340Y-85344547D01*
X135219222Y-85512639D01*
X135303266Y-85719616D01*
X135340685Y-85780678D01*
X135417291Y-85905688D01*
X135419987Y-85910088D01*
X135566250Y-86078938D01*
X135738126Y-86221632D01*
X135931000Y-86334338D01*
X136139692Y-86414030D01*
X136144760Y-86415061D01*
X136144763Y-86415062D01*
X136221435Y-86430661D01*
X136358597Y-86458567D01*
X136363772Y-86458757D01*
X136363774Y-86458757D01*
X136576673Y-86466564D01*
X136576677Y-86466564D01*
X136581837Y-86466753D01*
X136586957Y-86466097D01*
X136586959Y-86466097D01*
X136798288Y-86439025D01*
X136798289Y-86439025D01*
X136803416Y-86438368D01*
X136834061Y-86429174D01*
X137012429Y-86375661D01*
X137012434Y-86375659D01*
X137017384Y-86374174D01*
X137217994Y-86275896D01*
X137399860Y-86146173D01*
X137558096Y-85988489D01*
X137572108Y-85968990D01*
X137688453Y-85807077D01*
X137689776Y-85808028D01*
X137736645Y-85764857D01*
X137806580Y-85752625D01*
X137872026Y-85780144D01*
X137899875Y-85811994D01*
X137959987Y-85910088D01*
X138106250Y-86078938D01*
X138278126Y-86221632D01*
X138471000Y-86334338D01*
X138679692Y-86414030D01*
X138684760Y-86415061D01*
X138684763Y-86415062D01*
X138761435Y-86430661D01*
X138898597Y-86458567D01*
X138903772Y-86458757D01*
X138903774Y-86458757D01*
X139116673Y-86466564D01*
X139116677Y-86466564D01*
X139121837Y-86466753D01*
X139126957Y-86466097D01*
X139126959Y-86466097D01*
X139338288Y-86439025D01*
X139338289Y-86439025D01*
X139343416Y-86438368D01*
X139374061Y-86429174D01*
X139552429Y-86375661D01*
X139552434Y-86375659D01*
X139557384Y-86374174D01*
X139757994Y-86275896D01*
X139939860Y-86146173D01*
X140098096Y-85988489D01*
X140112108Y-85968990D01*
X140228453Y-85807077D01*
X140229776Y-85808028D01*
X140276645Y-85764857D01*
X140346580Y-85752625D01*
X140412026Y-85780144D01*
X140439875Y-85811994D01*
X140499987Y-85910088D01*
X140646250Y-86078938D01*
X140818126Y-86221632D01*
X141011000Y-86334338D01*
X141219692Y-86414030D01*
X141224760Y-86415061D01*
X141224763Y-86415062D01*
X141301435Y-86430661D01*
X141438597Y-86458567D01*
X141443772Y-86458757D01*
X141443774Y-86458757D01*
X141656673Y-86466564D01*
X141656677Y-86466564D01*
X141661837Y-86466753D01*
X141666957Y-86466097D01*
X141666959Y-86466097D01*
X141878288Y-86439025D01*
X141878289Y-86439025D01*
X141883416Y-86438368D01*
X141914061Y-86429174D01*
X142092429Y-86375661D01*
X142092434Y-86375659D01*
X142097384Y-86374174D01*
X142297994Y-86275896D01*
X142479860Y-86146173D01*
X142638096Y-85988489D01*
X142652108Y-85968990D01*
X142768453Y-85807077D01*
X142769776Y-85808028D01*
X142816645Y-85764857D01*
X142886580Y-85752625D01*
X142952026Y-85780144D01*
X142979875Y-85811994D01*
X143039987Y-85910088D01*
X143186250Y-86078938D01*
X143358126Y-86221632D01*
X143551000Y-86334338D01*
X143759692Y-86414030D01*
X143764760Y-86415061D01*
X143764763Y-86415062D01*
X143841435Y-86430661D01*
X143978597Y-86458567D01*
X143983772Y-86458757D01*
X143983774Y-86458757D01*
X144196673Y-86466564D01*
X144196677Y-86466564D01*
X144201837Y-86466753D01*
X144206957Y-86466097D01*
X144206959Y-86466097D01*
X144418288Y-86439025D01*
X144418289Y-86439025D01*
X144423416Y-86438368D01*
X144454061Y-86429174D01*
X144632429Y-86375661D01*
X144632434Y-86375659D01*
X144637384Y-86374174D01*
X144837994Y-86275896D01*
X145019860Y-86146173D01*
X145128091Y-86038319D01*
X145190462Y-86004404D01*
X145261268Y-86009592D01*
X145318030Y-86052238D01*
X145335012Y-86083341D01*
X145353980Y-86133938D01*
X145379385Y-86201705D01*
X145466739Y-86318261D01*
X145583295Y-86405615D01*
X145719684Y-86456745D01*
X145781866Y-86463500D01*
X147578134Y-86463500D01*
X147640316Y-86456745D01*
X147776705Y-86405615D01*
X147893261Y-86318261D01*
X147980615Y-86201705D01*
X148031745Y-86065316D01*
X148038500Y-86003134D01*
X148038500Y-85071695D01*
X158887251Y-85071695D01*
X158887548Y-85076848D01*
X158887548Y-85076851D01*
X158895989Y-85223240D01*
X158900110Y-85294715D01*
X158901247Y-85299761D01*
X158901248Y-85299767D01*
X158911340Y-85344547D01*
X158949222Y-85512639D01*
X159033266Y-85719616D01*
X159070685Y-85780678D01*
X159147291Y-85905688D01*
X159149987Y-85910088D01*
X159296250Y-86078938D01*
X159468126Y-86221632D01*
X159661000Y-86334338D01*
X159869692Y-86414030D01*
X159874760Y-86415061D01*
X159874763Y-86415062D01*
X159951435Y-86430661D01*
X160088597Y-86458567D01*
X160093772Y-86458757D01*
X160093774Y-86458757D01*
X160306673Y-86466564D01*
X160306677Y-86466564D01*
X160311837Y-86466753D01*
X160316957Y-86466097D01*
X160316959Y-86466097D01*
X160528288Y-86439025D01*
X160528289Y-86439025D01*
X160533416Y-86438368D01*
X160564061Y-86429174D01*
X160742429Y-86375661D01*
X160742434Y-86375659D01*
X160747384Y-86374174D01*
X160947994Y-86275896D01*
X161129860Y-86146173D01*
X161288096Y-85988489D01*
X161302108Y-85968990D01*
X161418453Y-85807077D01*
X161419776Y-85808028D01*
X161466645Y-85764857D01*
X161536580Y-85752625D01*
X161602026Y-85780144D01*
X161629875Y-85811994D01*
X161689987Y-85910088D01*
X161836250Y-86078938D01*
X162008126Y-86221632D01*
X162201000Y-86334338D01*
X162409692Y-86414030D01*
X162414760Y-86415061D01*
X162414763Y-86415062D01*
X162491435Y-86430661D01*
X162628597Y-86458567D01*
X162633772Y-86458757D01*
X162633774Y-86458757D01*
X162846673Y-86466564D01*
X162846677Y-86466564D01*
X162851837Y-86466753D01*
X162856957Y-86466097D01*
X162856959Y-86466097D01*
X163068288Y-86439025D01*
X163068289Y-86439025D01*
X163073416Y-86438368D01*
X163104061Y-86429174D01*
X163282429Y-86375661D01*
X163282434Y-86375659D01*
X163287384Y-86374174D01*
X163487994Y-86275896D01*
X163669860Y-86146173D01*
X163828096Y-85988489D01*
X163842108Y-85968990D01*
X163958453Y-85807077D01*
X163959776Y-85808028D01*
X164006645Y-85764857D01*
X164076580Y-85752625D01*
X164142026Y-85780144D01*
X164169875Y-85811994D01*
X164229987Y-85910088D01*
X164376250Y-86078938D01*
X164548126Y-86221632D01*
X164741000Y-86334338D01*
X164949692Y-86414030D01*
X164954760Y-86415061D01*
X164954763Y-86415062D01*
X165031435Y-86430661D01*
X165168597Y-86458567D01*
X165173772Y-86458757D01*
X165173774Y-86458757D01*
X165386673Y-86466564D01*
X165386677Y-86466564D01*
X165391837Y-86466753D01*
X165396957Y-86466097D01*
X165396959Y-86466097D01*
X165608288Y-86439025D01*
X165608289Y-86439025D01*
X165613416Y-86438368D01*
X165644061Y-86429174D01*
X165822429Y-86375661D01*
X165822434Y-86375659D01*
X165827384Y-86374174D01*
X166027994Y-86275896D01*
X166209860Y-86146173D01*
X166368096Y-85988489D01*
X166382108Y-85968990D01*
X166498453Y-85807077D01*
X166499776Y-85808028D01*
X166546645Y-85764857D01*
X166616580Y-85752625D01*
X166682026Y-85780144D01*
X166709875Y-85811994D01*
X166769987Y-85910088D01*
X166916250Y-86078938D01*
X167088126Y-86221632D01*
X167281000Y-86334338D01*
X167489692Y-86414030D01*
X167494760Y-86415061D01*
X167494763Y-86415062D01*
X167571435Y-86430661D01*
X167708597Y-86458567D01*
X167713772Y-86458757D01*
X167713774Y-86458757D01*
X167926673Y-86466564D01*
X167926677Y-86466564D01*
X167931837Y-86466753D01*
X167936957Y-86466097D01*
X167936959Y-86466097D01*
X168148288Y-86439025D01*
X168148289Y-86439025D01*
X168153416Y-86438368D01*
X168184061Y-86429174D01*
X168362429Y-86375661D01*
X168362434Y-86375659D01*
X168367384Y-86374174D01*
X168567994Y-86275896D01*
X168749860Y-86146173D01*
X168858091Y-86038319D01*
X168920462Y-86004404D01*
X168991268Y-86009592D01*
X169048030Y-86052238D01*
X169065012Y-86083341D01*
X169083980Y-86133938D01*
X169109385Y-86201705D01*
X169196739Y-86318261D01*
X169313295Y-86405615D01*
X169449684Y-86456745D01*
X169511866Y-86463500D01*
X171308134Y-86463500D01*
X171370316Y-86456745D01*
X171506705Y-86405615D01*
X171623261Y-86318261D01*
X171710615Y-86201705D01*
X171761745Y-86065316D01*
X171768500Y-86003134D01*
X171768500Y-84206866D01*
X171761745Y-84144684D01*
X171710615Y-84008295D01*
X171623261Y-83891739D01*
X171506705Y-83804385D01*
X171370316Y-83753255D01*
X171308134Y-83746500D01*
X169511866Y-83746500D01*
X169449684Y-83753255D01*
X169313295Y-83804385D01*
X169196739Y-83891739D01*
X169109385Y-84008295D01*
X169106233Y-84016703D01*
X169064919Y-84126907D01*
X169022277Y-84183671D01*
X168955716Y-84208371D01*
X168886367Y-84193163D01*
X168853743Y-84167476D01*
X168803151Y-84111875D01*
X168803142Y-84111866D01*
X168799670Y-84108051D01*
X168795619Y-84104852D01*
X168795615Y-84104848D01*
X168628414Y-83972800D01*
X168628410Y-83972798D01*
X168624359Y-83969598D01*
X168428789Y-83861638D01*
X168423920Y-83859914D01*
X168423916Y-83859912D01*
X168223087Y-83788795D01*
X168223083Y-83788794D01*
X168218212Y-83787069D01*
X168213119Y-83786162D01*
X168213116Y-83786161D01*
X168003373Y-83748800D01*
X168003367Y-83748799D01*
X167998284Y-83747894D01*
X167924452Y-83746992D01*
X167780081Y-83745228D01*
X167780079Y-83745228D01*
X167774911Y-83745165D01*
X167554091Y-83778955D01*
X167341756Y-83848357D01*
X167143607Y-83951507D01*
X167139474Y-83954610D01*
X167139471Y-83954612D01*
X167041994Y-84027800D01*
X166964965Y-84085635D01*
X166925525Y-84126907D01*
X166871280Y-84183671D01*
X166810629Y-84247138D01*
X166703201Y-84404621D01*
X166648293Y-84449621D01*
X166577768Y-84457792D01*
X166514021Y-84426538D01*
X166493324Y-84402054D01*
X166412822Y-84277617D01*
X166412820Y-84277614D01*
X166410014Y-84273277D01*
X166259670Y-84108051D01*
X166255619Y-84104852D01*
X166255615Y-84104848D01*
X166088414Y-83972800D01*
X166088410Y-83972798D01*
X166084359Y-83969598D01*
X165888789Y-83861638D01*
X165883920Y-83859914D01*
X165883916Y-83859912D01*
X165683087Y-83788795D01*
X165683083Y-83788794D01*
X165678212Y-83787069D01*
X165673119Y-83786162D01*
X165673116Y-83786161D01*
X165463373Y-83748800D01*
X165463367Y-83748799D01*
X165458284Y-83747894D01*
X165384452Y-83746992D01*
X165240081Y-83745228D01*
X165240079Y-83745228D01*
X165234911Y-83745165D01*
X165014091Y-83778955D01*
X164801756Y-83848357D01*
X164603607Y-83951507D01*
X164599474Y-83954610D01*
X164599471Y-83954612D01*
X164501994Y-84027800D01*
X164424965Y-84085635D01*
X164385525Y-84126907D01*
X164331280Y-84183671D01*
X164270629Y-84247138D01*
X164163201Y-84404621D01*
X164108293Y-84449621D01*
X164037768Y-84457792D01*
X163974021Y-84426538D01*
X163953324Y-84402054D01*
X163872822Y-84277617D01*
X163872820Y-84277614D01*
X163870014Y-84273277D01*
X163719670Y-84108051D01*
X163715619Y-84104852D01*
X163715615Y-84104848D01*
X163548414Y-83972800D01*
X163548410Y-83972798D01*
X163544359Y-83969598D01*
X163348789Y-83861638D01*
X163343920Y-83859914D01*
X163343916Y-83859912D01*
X163143087Y-83788795D01*
X163143083Y-83788794D01*
X163138212Y-83787069D01*
X163133119Y-83786162D01*
X163133116Y-83786161D01*
X162923373Y-83748800D01*
X162923367Y-83748799D01*
X162918284Y-83747894D01*
X162844452Y-83746992D01*
X162700081Y-83745228D01*
X162700079Y-83745228D01*
X162694911Y-83745165D01*
X162474091Y-83778955D01*
X162261756Y-83848357D01*
X162063607Y-83951507D01*
X162059474Y-83954610D01*
X162059471Y-83954612D01*
X161961994Y-84027800D01*
X161884965Y-84085635D01*
X161845525Y-84126907D01*
X161791280Y-84183671D01*
X161730629Y-84247138D01*
X161623201Y-84404621D01*
X161568293Y-84449621D01*
X161497768Y-84457792D01*
X161434021Y-84426538D01*
X161413324Y-84402054D01*
X161332822Y-84277617D01*
X161332820Y-84277614D01*
X161330014Y-84273277D01*
X161179670Y-84108051D01*
X161175619Y-84104852D01*
X161175615Y-84104848D01*
X161008414Y-83972800D01*
X161008410Y-83972798D01*
X161004359Y-83969598D01*
X160808789Y-83861638D01*
X160803920Y-83859914D01*
X160803916Y-83859912D01*
X160603087Y-83788795D01*
X160603083Y-83788794D01*
X160598212Y-83787069D01*
X160593119Y-83786162D01*
X160593116Y-83786161D01*
X160383373Y-83748800D01*
X160383367Y-83748799D01*
X160378284Y-83747894D01*
X160304452Y-83746992D01*
X160160081Y-83745228D01*
X160160079Y-83745228D01*
X160154911Y-83745165D01*
X159934091Y-83778955D01*
X159721756Y-83848357D01*
X159523607Y-83951507D01*
X159519474Y-83954610D01*
X159519471Y-83954612D01*
X159421994Y-84027800D01*
X159344965Y-84085635D01*
X159305525Y-84126907D01*
X159251280Y-84183671D01*
X159190629Y-84247138D01*
X159187720Y-84251403D01*
X159187714Y-84251411D01*
X159135280Y-84328277D01*
X159064743Y-84431680D01*
X158970688Y-84634305D01*
X158910989Y-84849570D01*
X158887251Y-85071695D01*
X148038500Y-85071695D01*
X148038500Y-84206866D01*
X148031745Y-84144684D01*
X147980615Y-84008295D01*
X147893261Y-83891739D01*
X147776705Y-83804385D01*
X147640316Y-83753255D01*
X147578134Y-83746500D01*
X145781866Y-83746500D01*
X145719684Y-83753255D01*
X145583295Y-83804385D01*
X145466739Y-83891739D01*
X145379385Y-84008295D01*
X145376233Y-84016703D01*
X145334919Y-84126907D01*
X145292277Y-84183671D01*
X145225716Y-84208371D01*
X145156367Y-84193163D01*
X145123743Y-84167476D01*
X145073151Y-84111875D01*
X145073142Y-84111866D01*
X145069670Y-84108051D01*
X145065619Y-84104852D01*
X145065615Y-84104848D01*
X144898414Y-83972800D01*
X144898410Y-83972798D01*
X144894359Y-83969598D01*
X144698789Y-83861638D01*
X144693920Y-83859914D01*
X144693916Y-83859912D01*
X144493087Y-83788795D01*
X144493083Y-83788794D01*
X144488212Y-83787069D01*
X144483119Y-83786162D01*
X144483116Y-83786161D01*
X144273373Y-83748800D01*
X144273367Y-83748799D01*
X144268284Y-83747894D01*
X144194452Y-83746992D01*
X144050081Y-83745228D01*
X144050079Y-83745228D01*
X144044911Y-83745165D01*
X143824091Y-83778955D01*
X143611756Y-83848357D01*
X143413607Y-83951507D01*
X143409474Y-83954610D01*
X143409471Y-83954612D01*
X143311994Y-84027800D01*
X143234965Y-84085635D01*
X143195525Y-84126907D01*
X143141280Y-84183671D01*
X143080629Y-84247138D01*
X142973201Y-84404621D01*
X142918293Y-84449621D01*
X142847768Y-84457792D01*
X142784021Y-84426538D01*
X142763324Y-84402054D01*
X142682822Y-84277617D01*
X142682820Y-84277614D01*
X142680014Y-84273277D01*
X142529670Y-84108051D01*
X142525619Y-84104852D01*
X142525615Y-84104848D01*
X142358414Y-83972800D01*
X142358410Y-83972798D01*
X142354359Y-83969598D01*
X142158789Y-83861638D01*
X142153920Y-83859914D01*
X142153916Y-83859912D01*
X141953087Y-83788795D01*
X141953083Y-83788794D01*
X141948212Y-83787069D01*
X141943119Y-83786162D01*
X141943116Y-83786161D01*
X141733373Y-83748800D01*
X141733367Y-83748799D01*
X141728284Y-83747894D01*
X141654452Y-83746992D01*
X141510081Y-83745228D01*
X141510079Y-83745228D01*
X141504911Y-83745165D01*
X141284091Y-83778955D01*
X141071756Y-83848357D01*
X140873607Y-83951507D01*
X140869474Y-83954610D01*
X140869471Y-83954612D01*
X140771994Y-84027800D01*
X140694965Y-84085635D01*
X140655525Y-84126907D01*
X140601280Y-84183671D01*
X140540629Y-84247138D01*
X140433201Y-84404621D01*
X140378293Y-84449621D01*
X140307768Y-84457792D01*
X140244021Y-84426538D01*
X140223324Y-84402054D01*
X140142822Y-84277617D01*
X140142820Y-84277614D01*
X140140014Y-84273277D01*
X139989670Y-84108051D01*
X139985619Y-84104852D01*
X139985615Y-84104848D01*
X139818414Y-83972800D01*
X139818410Y-83972798D01*
X139814359Y-83969598D01*
X139618789Y-83861638D01*
X139613920Y-83859914D01*
X139613916Y-83859912D01*
X139413087Y-83788795D01*
X139413083Y-83788794D01*
X139408212Y-83787069D01*
X139403119Y-83786162D01*
X139403116Y-83786161D01*
X139193373Y-83748800D01*
X139193367Y-83748799D01*
X139188284Y-83747894D01*
X139114452Y-83746992D01*
X138970081Y-83745228D01*
X138970079Y-83745228D01*
X138964911Y-83745165D01*
X138744091Y-83778955D01*
X138531756Y-83848357D01*
X138333607Y-83951507D01*
X138329474Y-83954610D01*
X138329471Y-83954612D01*
X138231994Y-84027800D01*
X138154965Y-84085635D01*
X138115525Y-84126907D01*
X138061280Y-84183671D01*
X138000629Y-84247138D01*
X137893201Y-84404621D01*
X137838293Y-84449621D01*
X137767768Y-84457792D01*
X137704021Y-84426538D01*
X137683324Y-84402054D01*
X137602822Y-84277617D01*
X137602820Y-84277614D01*
X137600014Y-84273277D01*
X137449670Y-84108051D01*
X137445619Y-84104852D01*
X137445615Y-84104848D01*
X137278414Y-83972800D01*
X137278410Y-83972798D01*
X137274359Y-83969598D01*
X137078789Y-83861638D01*
X137073920Y-83859914D01*
X137073916Y-83859912D01*
X136873087Y-83788795D01*
X136873083Y-83788794D01*
X136868212Y-83787069D01*
X136863119Y-83786162D01*
X136863116Y-83786161D01*
X136653373Y-83748800D01*
X136653367Y-83748799D01*
X136648284Y-83747894D01*
X136574452Y-83746992D01*
X136430081Y-83745228D01*
X136430079Y-83745228D01*
X136424911Y-83745165D01*
X136204091Y-83778955D01*
X135991756Y-83848357D01*
X135793607Y-83951507D01*
X135789474Y-83954610D01*
X135789471Y-83954612D01*
X135691994Y-84027800D01*
X135614965Y-84085635D01*
X135575525Y-84126907D01*
X135521280Y-84183671D01*
X135460629Y-84247138D01*
X135457720Y-84251403D01*
X135457714Y-84251411D01*
X135405280Y-84328277D01*
X135334743Y-84431680D01*
X135240688Y-84634305D01*
X135180989Y-84849570D01*
X135157251Y-85071695D01*
X124358500Y-85071695D01*
X124358500Y-84206866D01*
X124351745Y-84144684D01*
X124300615Y-84008295D01*
X124213261Y-83891739D01*
X124096705Y-83804385D01*
X123960316Y-83753255D01*
X123898134Y-83746500D01*
X122101866Y-83746500D01*
X122039684Y-83753255D01*
X121903295Y-83804385D01*
X121786739Y-83891739D01*
X121699385Y-84008295D01*
X121696233Y-84016703D01*
X121654919Y-84126907D01*
X121612277Y-84183671D01*
X121545716Y-84208371D01*
X121476367Y-84193163D01*
X121443743Y-84167476D01*
X121393151Y-84111875D01*
X121393142Y-84111866D01*
X121389670Y-84108051D01*
X121385619Y-84104852D01*
X121385615Y-84104848D01*
X121218414Y-83972800D01*
X121218410Y-83972798D01*
X121214359Y-83969598D01*
X121018789Y-83861638D01*
X121013920Y-83859914D01*
X121013916Y-83859912D01*
X120813087Y-83788795D01*
X120813083Y-83788794D01*
X120808212Y-83787069D01*
X120803119Y-83786162D01*
X120803116Y-83786161D01*
X120593373Y-83748800D01*
X120593367Y-83748799D01*
X120588284Y-83747894D01*
X120514452Y-83746992D01*
X120370081Y-83745228D01*
X120370079Y-83745228D01*
X120364911Y-83745165D01*
X120144091Y-83778955D01*
X119931756Y-83848357D01*
X119733607Y-83951507D01*
X119729474Y-83954610D01*
X119729471Y-83954612D01*
X119631994Y-84027800D01*
X119554965Y-84085635D01*
X119515525Y-84126907D01*
X119461280Y-84183671D01*
X119400629Y-84247138D01*
X119293201Y-84404621D01*
X119238293Y-84449621D01*
X119167768Y-84457792D01*
X119104021Y-84426538D01*
X119083324Y-84402054D01*
X119002822Y-84277617D01*
X119002820Y-84277614D01*
X119000014Y-84273277D01*
X118849670Y-84108051D01*
X118845619Y-84104852D01*
X118845615Y-84104848D01*
X118678414Y-83972800D01*
X118678410Y-83972798D01*
X118674359Y-83969598D01*
X118478789Y-83861638D01*
X118473920Y-83859914D01*
X118473916Y-83859912D01*
X118273087Y-83788795D01*
X118273083Y-83788794D01*
X118268212Y-83787069D01*
X118263119Y-83786162D01*
X118263116Y-83786161D01*
X118053373Y-83748800D01*
X118053367Y-83748799D01*
X118048284Y-83747894D01*
X117974452Y-83746992D01*
X117830081Y-83745228D01*
X117830079Y-83745228D01*
X117824911Y-83745165D01*
X117604091Y-83778955D01*
X117391756Y-83848357D01*
X117193607Y-83951507D01*
X117189474Y-83954610D01*
X117189471Y-83954612D01*
X117091994Y-84027800D01*
X117014965Y-84085635D01*
X116975525Y-84126907D01*
X116921280Y-84183671D01*
X116860629Y-84247138D01*
X116753201Y-84404621D01*
X116698293Y-84449621D01*
X116627768Y-84457792D01*
X116564021Y-84426538D01*
X116543324Y-84402054D01*
X116462822Y-84277617D01*
X116462820Y-84277614D01*
X116460014Y-84273277D01*
X116309670Y-84108051D01*
X116305619Y-84104852D01*
X116305615Y-84104848D01*
X116138414Y-83972800D01*
X116138410Y-83972798D01*
X116134359Y-83969598D01*
X115938789Y-83861638D01*
X115933920Y-83859914D01*
X115933916Y-83859912D01*
X115733087Y-83788795D01*
X115733083Y-83788794D01*
X115728212Y-83787069D01*
X115723119Y-83786162D01*
X115723116Y-83786161D01*
X115513373Y-83748800D01*
X115513367Y-83748799D01*
X115508284Y-83747894D01*
X115434452Y-83746992D01*
X115290081Y-83745228D01*
X115290079Y-83745228D01*
X115284911Y-83745165D01*
X115064091Y-83778955D01*
X114851756Y-83848357D01*
X114653607Y-83951507D01*
X114649474Y-83954610D01*
X114649471Y-83954612D01*
X114551994Y-84027800D01*
X114474965Y-84085635D01*
X114435525Y-84126907D01*
X114381280Y-84183671D01*
X114320629Y-84247138D01*
X114213201Y-84404621D01*
X114158293Y-84449621D01*
X114087768Y-84457792D01*
X114024021Y-84426538D01*
X114003324Y-84402054D01*
X113922822Y-84277617D01*
X113922820Y-84277614D01*
X113920014Y-84273277D01*
X113769670Y-84108051D01*
X113765619Y-84104852D01*
X113765615Y-84104848D01*
X113598414Y-83972800D01*
X113598410Y-83972798D01*
X113594359Y-83969598D01*
X113398789Y-83861638D01*
X113393920Y-83859914D01*
X113393916Y-83859912D01*
X113193087Y-83788795D01*
X113193083Y-83788794D01*
X113188212Y-83787069D01*
X113183119Y-83786162D01*
X113183116Y-83786161D01*
X112973373Y-83748800D01*
X112973367Y-83748799D01*
X112968284Y-83747894D01*
X112894452Y-83746992D01*
X112750081Y-83745228D01*
X112750079Y-83745228D01*
X112744911Y-83745165D01*
X112524091Y-83778955D01*
X112311756Y-83848357D01*
X112113607Y-83951507D01*
X112109474Y-83954610D01*
X112109471Y-83954612D01*
X112011994Y-84027800D01*
X111934965Y-84085635D01*
X111895525Y-84126907D01*
X111841280Y-84183671D01*
X111780629Y-84247138D01*
X111777720Y-84251403D01*
X111777714Y-84251411D01*
X111725280Y-84328277D01*
X111654743Y-84431680D01*
X111560688Y-84634305D01*
X111500989Y-84849570D01*
X111477251Y-85071695D01*
X102505896Y-85071695D01*
X102494852Y-84937361D01*
X102440431Y-84720702D01*
X102351354Y-84515840D01*
X102230014Y-84328277D01*
X102079670Y-84163051D01*
X102075619Y-84159852D01*
X102075615Y-84159848D01*
X101908414Y-84027800D01*
X101908410Y-84027798D01*
X101904359Y-84024598D01*
X101863053Y-84001796D01*
X101813084Y-83951364D01*
X101798312Y-83881921D01*
X101823428Y-83815516D01*
X101850780Y-83788909D01*
X101911009Y-83745948D01*
X102029860Y-83661173D01*
X102188096Y-83503489D01*
X102247594Y-83420689D01*
X102315435Y-83326277D01*
X102318453Y-83322077D01*
X102417430Y-83121811D01*
X102482370Y-82908069D01*
X102511529Y-82686590D01*
X102513156Y-82620000D01*
X102494852Y-82397361D01*
X102440431Y-82180702D01*
X102351354Y-81975840D01*
X102230014Y-81788277D01*
X102079670Y-81623051D01*
X102075619Y-81619852D01*
X102075615Y-81619848D01*
X101908414Y-81487800D01*
X101908410Y-81487798D01*
X101904359Y-81484598D01*
X101863053Y-81461796D01*
X101813084Y-81411364D01*
X101798312Y-81341921D01*
X101823428Y-81275516D01*
X101850780Y-81248909D01*
X101894603Y-81217650D01*
X102029860Y-81121173D01*
X102188096Y-80963489D01*
X102247594Y-80880689D01*
X102315435Y-80786277D01*
X102318453Y-80782077D01*
X102417430Y-80581811D01*
X102482370Y-80368069D01*
X102511529Y-80146590D01*
X102513156Y-80080000D01*
X102494852Y-79857361D01*
X102440431Y-79640702D01*
X102351354Y-79435840D01*
X102230014Y-79248277D01*
X102079670Y-79083051D01*
X102075619Y-79079852D01*
X102075615Y-79079848D01*
X101908414Y-78947800D01*
X101908410Y-78947798D01*
X101904359Y-78944598D01*
X101863053Y-78921796D01*
X101813084Y-78871364D01*
X101798312Y-78801921D01*
X101823428Y-78735516D01*
X101850780Y-78708909D01*
X101894603Y-78677650D01*
X102029860Y-78581173D01*
X102188096Y-78423489D01*
X102247594Y-78340689D01*
X102315435Y-78246277D01*
X102318453Y-78242077D01*
X102417430Y-78041811D01*
X102482370Y-77828069D01*
X102511529Y-77606590D01*
X102513156Y-77540000D01*
X102494852Y-77317361D01*
X102440431Y-77100702D01*
X102351354Y-76895840D01*
X102230014Y-76708277D01*
X102226532Y-76704450D01*
X102082798Y-76546488D01*
X102051746Y-76482642D01*
X102060141Y-76412143D01*
X102105317Y-76357375D01*
X102131761Y-76343706D01*
X102238297Y-76303767D01*
X102246705Y-76300615D01*
X102363261Y-76213261D01*
X102450615Y-76096705D01*
X102501745Y-75960316D01*
X102508500Y-75898134D01*
X102508500Y-75062703D01*
X170610743Y-75062703D01*
X170648268Y-75347734D01*
X170724129Y-75625036D01*
X170836923Y-75889476D01*
X170984561Y-76136161D01*
X171164313Y-76360528D01*
X171210753Y-76404598D01*
X171363520Y-76549568D01*
X171372851Y-76558423D01*
X171606317Y-76726186D01*
X171610112Y-76728195D01*
X171610113Y-76728196D01*
X171631869Y-76739715D01*
X171860392Y-76860712D01*
X172130373Y-76959511D01*
X172411264Y-77020755D01*
X172439841Y-77023004D01*
X172634282Y-77038307D01*
X172634291Y-77038307D01*
X172636739Y-77038500D01*
X172792271Y-77038500D01*
X172794407Y-77038354D01*
X172794418Y-77038354D01*
X173002548Y-77024165D01*
X173002554Y-77024164D01*
X173006825Y-77023873D01*
X173011020Y-77023004D01*
X173011022Y-77023004D01*
X173147584Y-76994723D01*
X173288342Y-76965574D01*
X173559343Y-76869607D01*
X173814812Y-76737750D01*
X173818313Y-76735289D01*
X173818317Y-76735287D01*
X173932418Y-76655095D01*
X174050023Y-76572441D01*
X174146658Y-76482642D01*
X174257479Y-76379661D01*
X174257481Y-76379658D01*
X174260622Y-76376740D01*
X174442713Y-76154268D01*
X174592927Y-75909142D01*
X174708483Y-75645898D01*
X174787244Y-75369406D01*
X174827751Y-75084784D01*
X174827845Y-75066951D01*
X174829235Y-74801583D01*
X174829235Y-74801576D01*
X174829257Y-74797297D01*
X174791732Y-74512266D01*
X174715871Y-74234964D01*
X174660557Y-74105283D01*
X174604763Y-73974476D01*
X174604761Y-73974472D01*
X174603077Y-73970524D01*
X174493084Y-73786739D01*
X174457643Y-73727521D01*
X174457640Y-73727517D01*
X174455439Y-73723839D01*
X174275687Y-73499472D01*
X174067149Y-73301577D01*
X173833683Y-73133814D01*
X173811843Y-73122250D01*
X173762235Y-73095984D01*
X173579608Y-72999288D01*
X173309627Y-72900489D01*
X173028736Y-72839245D01*
X172997685Y-72836801D01*
X172805718Y-72821693D01*
X172805709Y-72821693D01*
X172803261Y-72821500D01*
X172647729Y-72821500D01*
X172645593Y-72821646D01*
X172645582Y-72821646D01*
X172437452Y-72835835D01*
X172437446Y-72835836D01*
X172433175Y-72836127D01*
X172428980Y-72836996D01*
X172428978Y-72836996D01*
X172361674Y-72850934D01*
X172151658Y-72894426D01*
X171880657Y-72990393D01*
X171876848Y-72992359D01*
X171676078Y-73095984D01*
X171625188Y-73122250D01*
X171621687Y-73124711D01*
X171621683Y-73124713D01*
X171507583Y-73204904D01*
X171389977Y-73287559D01*
X171179378Y-73483260D01*
X170997287Y-73705732D01*
X170847073Y-73950858D01*
X170731517Y-74214102D01*
X170652756Y-74490594D01*
X170612249Y-74775216D01*
X170612227Y-74779505D01*
X170612226Y-74779512D01*
X170610765Y-75058417D01*
X170610743Y-75062703D01*
X102508500Y-75062703D01*
X102508500Y-74101866D01*
X102501745Y-74039684D01*
X102450615Y-73903295D01*
X102363261Y-73786739D01*
X102246705Y-73699385D01*
X102110316Y-73648255D01*
X102048134Y-73641500D01*
X100251866Y-73641500D01*
X100189684Y-73648255D01*
X100053295Y-73699385D01*
X99936739Y-73786739D01*
X99849385Y-73903295D01*
X99798255Y-74039684D01*
X99791500Y-74101866D01*
X99791500Y-75898134D01*
X99798255Y-75960316D01*
X99849385Y-76096705D01*
X99936739Y-76213261D01*
X100053295Y-76300615D01*
X100061704Y-76303767D01*
X100061705Y-76303768D01*
X100170451Y-76344535D01*
X100227216Y-76387176D01*
X100251916Y-76453738D01*
X100236709Y-76523087D01*
X100217316Y-76549568D01*
X100090629Y-76682138D01*
X99964743Y-76866680D01*
X99949003Y-76900590D01*
X99885077Y-77038307D01*
X99870688Y-77069305D01*
X99810989Y-77284570D01*
X99787251Y-77506695D01*
X99787548Y-77511848D01*
X99787548Y-77511851D01*
X99793011Y-77606590D01*
X99800110Y-77729715D01*
X99801247Y-77734761D01*
X99801248Y-77734767D01*
X99821119Y-77822939D01*
X99849222Y-77947639D01*
X99933266Y-78154616D01*
X100049987Y-78345088D01*
X100196250Y-78513938D01*
X100368126Y-78656632D01*
X100438595Y-78697811D01*
X100441445Y-78699476D01*
X100490169Y-78751114D01*
X100503240Y-78820897D01*
X100476509Y-78886669D01*
X100436055Y-78920027D01*
X100423607Y-78926507D01*
X100419474Y-78929610D01*
X100419471Y-78929612D01*
X100395247Y-78947800D01*
X100244965Y-79060635D01*
X100090629Y-79222138D01*
X99964743Y-79406680D01*
X99870688Y-79609305D01*
X99810989Y-79824570D01*
X99787251Y-80046695D01*
X99787548Y-80051848D01*
X99787548Y-80051851D01*
X99793011Y-80146590D01*
X99800110Y-80269715D01*
X99801247Y-80274761D01*
X99801248Y-80274767D01*
X99821119Y-80362939D01*
X99849222Y-80487639D01*
X99933266Y-80694616D01*
X100049987Y-80885088D01*
X100196250Y-81053938D01*
X100368126Y-81196632D01*
X100438595Y-81237811D01*
X100441445Y-81239476D01*
X100490169Y-81291114D01*
X100503240Y-81360897D01*
X100476509Y-81426669D01*
X100436055Y-81460027D01*
X100423607Y-81466507D01*
X100419474Y-81469610D01*
X100419471Y-81469612D01*
X100395247Y-81487800D01*
X100244965Y-81600635D01*
X100090629Y-81762138D01*
X99964743Y-81946680D01*
X99870688Y-82149305D01*
X99810989Y-82364570D01*
X99787251Y-82586695D01*
X99787548Y-82591848D01*
X99787548Y-82591851D01*
X99793011Y-82686590D01*
X99800110Y-82809715D01*
X99801247Y-82814761D01*
X99801248Y-82814767D01*
X99821119Y-82902939D01*
X99849222Y-83027639D01*
X99933266Y-83234616D01*
X100049987Y-83425088D01*
X100196250Y-83593938D01*
X100368126Y-83736632D01*
X100396573Y-83753255D01*
X100441445Y-83779476D01*
X100490169Y-83831114D01*
X100503240Y-83900897D01*
X100476509Y-83966669D01*
X100436055Y-84000027D01*
X100423607Y-84006507D01*
X100419474Y-84009610D01*
X100419471Y-84009612D01*
X100249100Y-84137530D01*
X100244965Y-84140635D01*
X100241393Y-84144373D01*
X100139113Y-84251403D01*
X100090629Y-84302138D01*
X99964743Y-84486680D01*
X99870688Y-84689305D01*
X99810989Y-84904570D01*
X99787251Y-85126695D01*
X87260418Y-85126695D01*
X87244852Y-84937361D01*
X87190431Y-84720702D01*
X87101354Y-84515840D01*
X86980014Y-84328277D01*
X86829670Y-84163051D01*
X86825619Y-84159852D01*
X86825615Y-84159848D01*
X86658414Y-84027800D01*
X86658410Y-84027798D01*
X86654359Y-84024598D01*
X86613053Y-84001796D01*
X86563084Y-83951364D01*
X86548312Y-83881921D01*
X86573428Y-83815516D01*
X86600780Y-83788909D01*
X86661009Y-83745948D01*
X86779860Y-83661173D01*
X86938096Y-83503489D01*
X86997594Y-83420689D01*
X87065435Y-83326277D01*
X87068453Y-83322077D01*
X87167430Y-83121811D01*
X87232370Y-82908069D01*
X87261529Y-82686590D01*
X87263156Y-82620000D01*
X87244852Y-82397361D01*
X87190431Y-82180702D01*
X87101354Y-81975840D01*
X86980014Y-81788277D01*
X86829670Y-81623051D01*
X86825619Y-81619852D01*
X86825615Y-81619848D01*
X86658414Y-81487800D01*
X86658410Y-81487798D01*
X86654359Y-81484598D01*
X86613053Y-81461796D01*
X86563084Y-81411364D01*
X86548312Y-81341921D01*
X86573428Y-81275516D01*
X86600780Y-81248909D01*
X86644603Y-81217650D01*
X86779860Y-81121173D01*
X86938096Y-80963489D01*
X86997594Y-80880689D01*
X87065435Y-80786277D01*
X87068453Y-80782077D01*
X87167430Y-80581811D01*
X87232370Y-80368069D01*
X87261529Y-80146590D01*
X87263156Y-80080000D01*
X87244852Y-79857361D01*
X87190431Y-79640702D01*
X87101354Y-79435840D01*
X86980014Y-79248277D01*
X86829670Y-79083051D01*
X86825619Y-79079852D01*
X86825615Y-79079848D01*
X86658414Y-78947800D01*
X86658410Y-78947798D01*
X86654359Y-78944598D01*
X86613053Y-78921796D01*
X86563084Y-78871364D01*
X86548312Y-78801921D01*
X86573428Y-78735516D01*
X86600780Y-78708909D01*
X86644603Y-78677650D01*
X86779860Y-78581173D01*
X86938096Y-78423489D01*
X86997594Y-78340689D01*
X87065435Y-78246277D01*
X87068453Y-78242077D01*
X87167430Y-78041811D01*
X87232370Y-77828069D01*
X87261529Y-77606590D01*
X87263156Y-77540000D01*
X87244852Y-77317361D01*
X87190431Y-77100702D01*
X87101354Y-76895840D01*
X86980014Y-76708277D01*
X86976532Y-76704450D01*
X86832798Y-76546488D01*
X86801746Y-76482642D01*
X86810141Y-76412143D01*
X86855317Y-76357375D01*
X86881761Y-76343706D01*
X86988297Y-76303767D01*
X86996705Y-76300615D01*
X87113261Y-76213261D01*
X87200615Y-76096705D01*
X87251745Y-75960316D01*
X87258500Y-75898134D01*
X87258500Y-74101866D01*
X87251745Y-74039684D01*
X87200615Y-73903295D01*
X87113261Y-73786739D01*
X86996705Y-73699385D01*
X86860316Y-73648255D01*
X86798134Y-73641500D01*
X85001866Y-73641500D01*
X84939684Y-73648255D01*
X84803295Y-73699385D01*
X84686739Y-73786739D01*
X84599385Y-73903295D01*
X84548255Y-74039684D01*
X84541500Y-74101866D01*
X84541500Y-75898134D01*
X84548255Y-75960316D01*
X84599385Y-76096705D01*
X84686739Y-76213261D01*
X84803295Y-76300615D01*
X84811704Y-76303767D01*
X84811705Y-76303768D01*
X84920451Y-76344535D01*
X84977216Y-76387176D01*
X85001916Y-76453738D01*
X84986709Y-76523087D01*
X84967316Y-76549568D01*
X84840629Y-76682138D01*
X84714743Y-76866680D01*
X84699003Y-76900590D01*
X84635077Y-77038307D01*
X84620688Y-77069305D01*
X84560989Y-77284570D01*
X84537251Y-77506695D01*
X84537548Y-77511848D01*
X84537548Y-77511851D01*
X84543011Y-77606590D01*
X84550110Y-77729715D01*
X84551247Y-77734761D01*
X84551248Y-77734767D01*
X84571119Y-77822939D01*
X84599222Y-77947639D01*
X84683266Y-78154616D01*
X84799987Y-78345088D01*
X84946250Y-78513938D01*
X85118126Y-78656632D01*
X85188595Y-78697811D01*
X85191445Y-78699476D01*
X85240169Y-78751114D01*
X85253240Y-78820897D01*
X85226509Y-78886669D01*
X85186055Y-78920027D01*
X85173607Y-78926507D01*
X85169474Y-78929610D01*
X85169471Y-78929612D01*
X85145247Y-78947800D01*
X84994965Y-79060635D01*
X84840629Y-79222138D01*
X84714743Y-79406680D01*
X84620688Y-79609305D01*
X84560989Y-79824570D01*
X84537251Y-80046695D01*
X84537548Y-80051848D01*
X84537548Y-80051851D01*
X84543011Y-80146590D01*
X84550110Y-80269715D01*
X84551247Y-80274761D01*
X84551248Y-80274767D01*
X84571119Y-80362939D01*
X84599222Y-80487639D01*
X84683266Y-80694616D01*
X84799987Y-80885088D01*
X84946250Y-81053938D01*
X85118126Y-81196632D01*
X85188595Y-81237811D01*
X85191445Y-81239476D01*
X85240169Y-81291114D01*
X85253240Y-81360897D01*
X85226509Y-81426669D01*
X85186055Y-81460027D01*
X85173607Y-81466507D01*
X85169474Y-81469610D01*
X85169471Y-81469612D01*
X85145247Y-81487800D01*
X84994965Y-81600635D01*
X84840629Y-81762138D01*
X84714743Y-81946680D01*
X84620688Y-82149305D01*
X84560989Y-82364570D01*
X84537251Y-82586695D01*
X84537548Y-82591848D01*
X84537548Y-82591851D01*
X84543011Y-82686590D01*
X84550110Y-82809715D01*
X84551247Y-82814761D01*
X84551248Y-82814767D01*
X84571119Y-82902939D01*
X84599222Y-83027639D01*
X84683266Y-83234616D01*
X84799987Y-83425088D01*
X84946250Y-83593938D01*
X85118126Y-83736632D01*
X85146573Y-83753255D01*
X85191445Y-83779476D01*
X85240169Y-83831114D01*
X85253240Y-83900897D01*
X85226509Y-83966669D01*
X85186055Y-84000027D01*
X85173607Y-84006507D01*
X85169474Y-84009610D01*
X85169471Y-84009612D01*
X84999100Y-84137530D01*
X84994965Y-84140635D01*
X84991393Y-84144373D01*
X84889113Y-84251403D01*
X84840629Y-84302138D01*
X84714743Y-84486680D01*
X84620688Y-84689305D01*
X84560989Y-84904570D01*
X84537251Y-85126695D01*
X67008500Y-85126695D01*
X67008500Y-72864471D01*
X68500884Y-72864471D01*
X68504570Y-72869740D01*
X68712121Y-72996927D01*
X68720915Y-73001408D01*
X68949242Y-73095984D01*
X68958627Y-73099033D01*
X69198940Y-73156728D01*
X69208687Y-73158271D01*
X69455070Y-73177662D01*
X69464930Y-73177662D01*
X69711313Y-73158271D01*
X69721060Y-73156728D01*
X69961373Y-73099033D01*
X69970758Y-73095984D01*
X70199085Y-73001408D01*
X70207879Y-72996927D01*
X70413928Y-72870660D01*
X70417968Y-72864471D01*
X73580884Y-72864471D01*
X73584570Y-72869740D01*
X73792121Y-72996927D01*
X73800915Y-73001408D01*
X74029242Y-73095984D01*
X74038627Y-73099033D01*
X74278940Y-73156728D01*
X74288687Y-73158271D01*
X74535070Y-73177662D01*
X74544930Y-73177662D01*
X74791313Y-73158271D01*
X74801060Y-73156728D01*
X75041373Y-73099033D01*
X75050758Y-73095984D01*
X75279085Y-73001408D01*
X75287879Y-72996927D01*
X75493928Y-72870660D01*
X75499190Y-72862599D01*
X75493183Y-72852393D01*
X74552812Y-71912022D01*
X74538868Y-71904408D01*
X74537035Y-71904539D01*
X74530420Y-71908790D01*
X73588276Y-72850934D01*
X73580884Y-72864471D01*
X70417968Y-72864471D01*
X70419190Y-72862599D01*
X70413183Y-72852393D01*
X69472812Y-71912022D01*
X69458868Y-71904408D01*
X69457035Y-71904539D01*
X69450420Y-71908790D01*
X68508276Y-72850934D01*
X68500884Y-72864471D01*
X67008500Y-72864471D01*
X67008500Y-71544930D01*
X67822338Y-71544930D01*
X67841729Y-71791313D01*
X67843272Y-71801060D01*
X67900967Y-72041373D01*
X67904016Y-72050758D01*
X67998592Y-72279085D01*
X68003073Y-72287879D01*
X68129340Y-72493928D01*
X68137401Y-72499190D01*
X68147607Y-72493183D01*
X69087978Y-71552812D01*
X69094356Y-71541132D01*
X69824408Y-71541132D01*
X69824539Y-71542965D01*
X69828790Y-71549580D01*
X70770934Y-72491724D01*
X70784471Y-72499116D01*
X70789740Y-72495430D01*
X70916927Y-72287879D01*
X70921408Y-72279085D01*
X71015984Y-72050758D01*
X71019033Y-72041373D01*
X71076728Y-71801060D01*
X71078271Y-71791313D01*
X71097662Y-71544930D01*
X72902338Y-71544930D01*
X72921729Y-71791313D01*
X72923272Y-71801060D01*
X72980967Y-72041373D01*
X72984016Y-72050758D01*
X73078592Y-72279085D01*
X73083073Y-72287879D01*
X73209340Y-72493928D01*
X73217401Y-72499190D01*
X73227607Y-72493183D01*
X74167978Y-71552812D01*
X74174356Y-71541132D01*
X74904408Y-71541132D01*
X74904539Y-71542965D01*
X74908790Y-71549580D01*
X75850934Y-72491724D01*
X75864471Y-72499116D01*
X75869740Y-72495430D01*
X75996927Y-72287879D01*
X76001408Y-72279085D01*
X76095984Y-72050758D01*
X76099033Y-72041373D01*
X76156728Y-71801060D01*
X76158271Y-71791313D01*
X76177662Y-71544930D01*
X76177662Y-71535070D01*
X76158271Y-71288687D01*
X76156728Y-71278940D01*
X76099033Y-71038627D01*
X76095984Y-71029242D01*
X76001408Y-70800915D01*
X75996927Y-70792121D01*
X75870660Y-70586072D01*
X75862599Y-70580810D01*
X75852393Y-70586817D01*
X74912022Y-71527188D01*
X74904408Y-71541132D01*
X74174356Y-71541132D01*
X74175592Y-71538868D01*
X74175461Y-71537035D01*
X74171210Y-71530420D01*
X73229066Y-70588276D01*
X73215529Y-70580884D01*
X73210260Y-70584570D01*
X73083073Y-70792121D01*
X73078592Y-70800915D01*
X72984016Y-71029242D01*
X72980967Y-71038627D01*
X72923272Y-71278940D01*
X72921729Y-71288687D01*
X72902338Y-71535070D01*
X72902338Y-71544930D01*
X71097662Y-71544930D01*
X71097662Y-71535070D01*
X71078271Y-71288687D01*
X71076728Y-71278940D01*
X71019033Y-71038627D01*
X71015984Y-71029242D01*
X70921408Y-70800915D01*
X70916927Y-70792121D01*
X70790660Y-70586072D01*
X70782599Y-70580810D01*
X70772393Y-70586817D01*
X69832022Y-71527188D01*
X69824408Y-71541132D01*
X69094356Y-71541132D01*
X69095592Y-71538868D01*
X69095461Y-71537035D01*
X69091210Y-71530420D01*
X68149066Y-70588276D01*
X68135529Y-70580884D01*
X68130260Y-70584570D01*
X68003073Y-70792121D01*
X67998592Y-70800915D01*
X67904016Y-71029242D01*
X67900967Y-71038627D01*
X67843272Y-71278940D01*
X67841729Y-71288687D01*
X67822338Y-71535070D01*
X67822338Y-71544930D01*
X67008500Y-71544930D01*
X67008500Y-70217401D01*
X68500810Y-70217401D01*
X68506817Y-70227607D01*
X69447188Y-71167978D01*
X69461132Y-71175592D01*
X69462965Y-71175461D01*
X69469580Y-71171210D01*
X70411724Y-70229066D01*
X70419116Y-70215529D01*
X70415430Y-70210260D01*
X70207879Y-70083073D01*
X70199085Y-70078592D01*
X69970758Y-69984016D01*
X69961373Y-69980967D01*
X69721060Y-69923272D01*
X69711313Y-69921729D01*
X69464930Y-69902338D01*
X69455070Y-69902338D01*
X69208687Y-69921729D01*
X69198940Y-69923272D01*
X68958627Y-69980967D01*
X68949242Y-69984016D01*
X68720915Y-70078592D01*
X68712121Y-70083073D01*
X68506072Y-70209340D01*
X68500810Y-70217401D01*
X67008500Y-70217401D01*
X67008500Y-69000000D01*
X70716616Y-69000000D01*
X70736113Y-69222857D01*
X70794014Y-69438943D01*
X70796339Y-69443928D01*
X70886231Y-69636705D01*
X70886234Y-69636710D01*
X70888557Y-69641692D01*
X71016871Y-69824943D01*
X71175057Y-69983129D01*
X71179565Y-69986286D01*
X71179568Y-69986288D01*
X71255928Y-70039756D01*
X71358308Y-70111443D01*
X71363290Y-70113766D01*
X71363295Y-70113769D01*
X71466177Y-70161743D01*
X71561057Y-70205986D01*
X71777143Y-70263887D01*
X71828879Y-70268413D01*
X71941449Y-70278262D01*
X71941458Y-70278262D01*
X71944174Y-70278500D01*
X72055826Y-70278500D01*
X72058542Y-70278262D01*
X72058551Y-70278262D01*
X72171121Y-70268413D01*
X72222857Y-70263887D01*
X72396342Y-70217401D01*
X73580810Y-70217401D01*
X73586817Y-70227607D01*
X74527188Y-71167978D01*
X74541132Y-71175592D01*
X74542965Y-71175461D01*
X74549580Y-71171210D01*
X75491724Y-70229066D01*
X75499116Y-70215529D01*
X75495430Y-70210260D01*
X75287879Y-70083073D01*
X75279085Y-70078592D01*
X75050758Y-69984016D01*
X75041373Y-69980967D01*
X74801060Y-69923272D01*
X74791313Y-69921729D01*
X74544930Y-69902338D01*
X74535070Y-69902338D01*
X74288687Y-69921729D01*
X74278940Y-69923272D01*
X74038627Y-69980967D01*
X74029242Y-69984016D01*
X73800915Y-70078592D01*
X73792121Y-70083073D01*
X73586072Y-70209340D01*
X73580810Y-70217401D01*
X72396342Y-70217401D01*
X72438943Y-70205986D01*
X72533823Y-70161743D01*
X72636705Y-70113769D01*
X72636710Y-70113766D01*
X72641692Y-70111443D01*
X72744072Y-70039756D01*
X72820432Y-69986288D01*
X72820435Y-69986286D01*
X72824943Y-69983129D01*
X72983129Y-69824943D01*
X73111443Y-69641692D01*
X73113766Y-69636710D01*
X73113769Y-69636705D01*
X73203661Y-69443928D01*
X73205986Y-69438943D01*
X73263887Y-69222857D01*
X73283384Y-69000000D01*
X73263887Y-68777143D01*
X73205986Y-68561057D01*
X73161743Y-68466177D01*
X73113769Y-68363295D01*
X73113766Y-68363290D01*
X73111443Y-68358308D01*
X72983129Y-68175057D01*
X72824943Y-68016871D01*
X72820435Y-68013714D01*
X72820432Y-68013712D01*
X72682208Y-67916927D01*
X72641692Y-67888557D01*
X72636710Y-67886234D01*
X72636705Y-67886231D01*
X72533823Y-67838257D01*
X72438943Y-67794014D01*
X72403329Y-67784471D01*
X73580884Y-67784471D01*
X73584570Y-67789740D01*
X73792121Y-67916927D01*
X73800915Y-67921408D01*
X74029242Y-68015984D01*
X74038627Y-68019033D01*
X74278940Y-68076728D01*
X74288687Y-68078271D01*
X74535070Y-68097662D01*
X74544930Y-68097662D01*
X74791313Y-68078271D01*
X74801060Y-68076728D01*
X75041373Y-68019033D01*
X75050758Y-68015984D01*
X75279085Y-67921408D01*
X75287879Y-67916927D01*
X75493928Y-67790660D01*
X75499190Y-67782599D01*
X75493183Y-67772393D01*
X74552812Y-66832022D01*
X74538868Y-66824408D01*
X74537035Y-66824539D01*
X74530420Y-66828790D01*
X73588276Y-67770934D01*
X73580884Y-67784471D01*
X72403329Y-67784471D01*
X72222857Y-67736113D01*
X72171121Y-67731587D01*
X72058551Y-67721738D01*
X72058542Y-67721738D01*
X72055826Y-67721500D01*
X71944174Y-67721500D01*
X71941458Y-67721738D01*
X71941449Y-67721738D01*
X71828879Y-67731587D01*
X71777143Y-67736113D01*
X71561057Y-67794014D01*
X71466177Y-67838257D01*
X71363295Y-67886231D01*
X71363290Y-67886234D01*
X71358308Y-67888557D01*
X71317792Y-67916927D01*
X71179568Y-68013712D01*
X71179565Y-68013714D01*
X71175057Y-68016871D01*
X71016871Y-68175057D01*
X70888557Y-68358308D01*
X70886234Y-68363290D01*
X70886231Y-68363295D01*
X70838257Y-68466177D01*
X70794014Y-68561057D01*
X70736113Y-68777143D01*
X70716616Y-69000000D01*
X67008500Y-69000000D01*
X67008500Y-67784471D01*
X68500884Y-67784471D01*
X68504570Y-67789740D01*
X68712121Y-67916927D01*
X68720915Y-67921408D01*
X68949242Y-68015984D01*
X68958627Y-68019033D01*
X69198940Y-68076728D01*
X69208687Y-68078271D01*
X69455070Y-68097662D01*
X69464930Y-68097662D01*
X69711313Y-68078271D01*
X69721060Y-68076728D01*
X69961373Y-68019033D01*
X69970758Y-68015984D01*
X70199085Y-67921408D01*
X70207879Y-67916927D01*
X70413928Y-67790660D01*
X70419190Y-67782599D01*
X70413183Y-67772393D01*
X69472812Y-66832022D01*
X69458868Y-66824408D01*
X69457035Y-66824539D01*
X69450420Y-66828790D01*
X68508276Y-67770934D01*
X68500884Y-67784471D01*
X67008500Y-67784471D01*
X67008500Y-66464930D01*
X67822338Y-66464930D01*
X67841729Y-66711313D01*
X67843272Y-66721060D01*
X67900967Y-66961373D01*
X67904016Y-66970758D01*
X67998592Y-67199085D01*
X68003073Y-67207879D01*
X68129340Y-67413928D01*
X68137401Y-67419190D01*
X68147607Y-67413183D01*
X69087978Y-66472812D01*
X69094356Y-66461132D01*
X69824408Y-66461132D01*
X69824539Y-66462965D01*
X69828790Y-66469580D01*
X70770934Y-67411724D01*
X70784471Y-67419116D01*
X70789740Y-67415430D01*
X70916927Y-67207879D01*
X70921408Y-67199085D01*
X71015984Y-66970758D01*
X71019033Y-66961373D01*
X71076728Y-66721060D01*
X71078271Y-66711313D01*
X71097662Y-66464930D01*
X72902338Y-66464930D01*
X72921729Y-66711313D01*
X72923272Y-66721060D01*
X72980967Y-66961373D01*
X72984016Y-66970758D01*
X73078592Y-67199085D01*
X73083073Y-67207879D01*
X73209340Y-67413928D01*
X73217401Y-67419190D01*
X73227607Y-67413183D01*
X74167978Y-66472812D01*
X74174356Y-66461132D01*
X74904408Y-66461132D01*
X74904539Y-66462965D01*
X74908790Y-66469580D01*
X75850934Y-67411724D01*
X75864471Y-67419116D01*
X75869740Y-67415430D01*
X75955998Y-67274669D01*
X169389501Y-67274669D01*
X169389871Y-67281490D01*
X169395395Y-67332352D01*
X169399021Y-67347604D01*
X169444176Y-67468054D01*
X169452714Y-67483649D01*
X169529215Y-67585724D01*
X169541776Y-67598285D01*
X169643851Y-67674786D01*
X169659446Y-67683324D01*
X169779894Y-67728478D01*
X169795149Y-67732105D01*
X169846014Y-67737631D01*
X169852828Y-67738000D01*
X172165385Y-67738000D01*
X172180624Y-67733525D01*
X172181829Y-67732135D01*
X172183500Y-67724452D01*
X172183500Y-67719884D01*
X172691500Y-67719884D01*
X172695975Y-67735123D01*
X172697365Y-67736328D01*
X172705048Y-67737999D01*
X175022169Y-67737999D01*
X175028990Y-67737629D01*
X175079852Y-67732105D01*
X175095104Y-67728479D01*
X175215554Y-67683324D01*
X175231149Y-67674786D01*
X175333224Y-67598285D01*
X175345785Y-67585724D01*
X175422286Y-67483649D01*
X175430824Y-67468054D01*
X175475978Y-67347606D01*
X175479605Y-67332351D01*
X175485131Y-67281486D01*
X175485500Y-67274672D01*
X175485500Y-66752115D01*
X175481025Y-66736876D01*
X175479635Y-66735671D01*
X175471952Y-66734000D01*
X172709615Y-66734000D01*
X172694376Y-66738475D01*
X172693171Y-66739865D01*
X172691500Y-66747548D01*
X172691500Y-67719884D01*
X172183500Y-67719884D01*
X172183500Y-66752115D01*
X172179025Y-66736876D01*
X172177635Y-66735671D01*
X172169952Y-66734000D01*
X169407616Y-66734000D01*
X169392377Y-66738475D01*
X169391172Y-66739865D01*
X169389501Y-66747548D01*
X169389501Y-67274669D01*
X75955998Y-67274669D01*
X75996927Y-67207879D01*
X76001408Y-67199085D01*
X76095984Y-66970758D01*
X76099033Y-66961373D01*
X76156728Y-66721060D01*
X76158271Y-66711313D01*
X76177662Y-66464930D01*
X76177662Y-66455070D01*
X76158271Y-66208687D01*
X76158144Y-66207885D01*
X169389500Y-66207885D01*
X169393975Y-66223124D01*
X169395365Y-66224329D01*
X169403048Y-66226000D01*
X172165385Y-66226000D01*
X172180624Y-66221525D01*
X172181829Y-66220135D01*
X172183500Y-66212452D01*
X172183500Y-66207885D01*
X172691500Y-66207885D01*
X172695975Y-66223124D01*
X172697365Y-66224329D01*
X172705048Y-66226000D01*
X175467384Y-66226000D01*
X175482623Y-66221525D01*
X175483828Y-66220135D01*
X175485499Y-66212452D01*
X175485499Y-65685331D01*
X175485129Y-65678510D01*
X175479605Y-65627648D01*
X175475979Y-65612396D01*
X175430824Y-65491946D01*
X175422286Y-65476351D01*
X175345785Y-65374276D01*
X175333224Y-65361715D01*
X175231149Y-65285214D01*
X175215554Y-65276676D01*
X175095106Y-65231522D01*
X175079851Y-65227895D01*
X175028986Y-65222369D01*
X175022172Y-65222000D01*
X172709615Y-65222000D01*
X172694376Y-65226475D01*
X172693171Y-65227865D01*
X172691500Y-65235548D01*
X172691500Y-66207885D01*
X172183500Y-66207885D01*
X172183500Y-65240116D01*
X172179025Y-65224877D01*
X172177635Y-65223672D01*
X172169952Y-65222001D01*
X169852831Y-65222001D01*
X169846010Y-65222371D01*
X169795148Y-65227895D01*
X169779896Y-65231521D01*
X169659446Y-65276676D01*
X169643851Y-65285214D01*
X169541776Y-65361715D01*
X169529215Y-65374276D01*
X169452714Y-65476351D01*
X169444176Y-65491946D01*
X169399022Y-65612394D01*
X169395395Y-65627649D01*
X169389869Y-65678514D01*
X169389500Y-65685328D01*
X169389500Y-66207885D01*
X76158144Y-66207885D01*
X76156728Y-66198940D01*
X76099033Y-65958627D01*
X76095984Y-65949242D01*
X76001408Y-65720915D01*
X75996927Y-65712121D01*
X75870660Y-65506072D01*
X75862599Y-65500810D01*
X75852393Y-65506817D01*
X74912022Y-66447188D01*
X74904408Y-66461132D01*
X74174356Y-66461132D01*
X74175592Y-66458868D01*
X74175461Y-66457035D01*
X74171210Y-66450420D01*
X73229066Y-65508276D01*
X73215529Y-65500884D01*
X73210260Y-65504570D01*
X73083073Y-65712121D01*
X73078592Y-65720915D01*
X72984016Y-65949242D01*
X72980967Y-65958627D01*
X72923272Y-66198940D01*
X72921729Y-66208687D01*
X72902338Y-66455070D01*
X72902338Y-66464930D01*
X71097662Y-66464930D01*
X71097662Y-66455070D01*
X71078271Y-66208687D01*
X71076728Y-66198940D01*
X71019033Y-65958627D01*
X71015984Y-65949242D01*
X70921408Y-65720915D01*
X70916927Y-65712121D01*
X70790660Y-65506072D01*
X70782599Y-65500810D01*
X70772393Y-65506817D01*
X69832022Y-66447188D01*
X69824408Y-66461132D01*
X69094356Y-66461132D01*
X69095592Y-66458868D01*
X69095461Y-66457035D01*
X69091210Y-66450420D01*
X68149066Y-65508276D01*
X68135529Y-65500884D01*
X68130260Y-65504570D01*
X68003073Y-65712121D01*
X67998592Y-65720915D01*
X67904016Y-65949242D01*
X67900967Y-65958627D01*
X67843272Y-66198940D01*
X67841729Y-66208687D01*
X67822338Y-66455070D01*
X67822338Y-66464930D01*
X67008500Y-66464930D01*
X67008500Y-65137401D01*
X68500810Y-65137401D01*
X68506817Y-65147607D01*
X69447188Y-66087978D01*
X69461132Y-66095592D01*
X69462965Y-66095461D01*
X69469580Y-66091210D01*
X70411724Y-65149066D01*
X70418094Y-65137401D01*
X73580810Y-65137401D01*
X73586817Y-65147607D01*
X74527188Y-66087978D01*
X74541132Y-66095592D01*
X74542965Y-66095461D01*
X74549580Y-66091210D01*
X75491724Y-65149066D01*
X75499116Y-65135529D01*
X75495430Y-65130260D01*
X75287879Y-65003073D01*
X75279085Y-64998592D01*
X75050758Y-64904016D01*
X75041373Y-64900967D01*
X74801060Y-64843272D01*
X74791313Y-64841729D01*
X74544930Y-64822338D01*
X74535070Y-64822338D01*
X74288687Y-64841729D01*
X74278940Y-64843272D01*
X74038627Y-64900967D01*
X74029242Y-64904016D01*
X73800915Y-64998592D01*
X73792121Y-65003073D01*
X73586072Y-65129340D01*
X73580810Y-65137401D01*
X70418094Y-65137401D01*
X70419116Y-65135529D01*
X70415430Y-65130260D01*
X70207879Y-65003073D01*
X70199085Y-64998592D01*
X69970758Y-64904016D01*
X69961373Y-64900967D01*
X69721060Y-64843272D01*
X69711313Y-64841729D01*
X69464930Y-64822338D01*
X69455070Y-64822338D01*
X69208687Y-64841729D01*
X69198940Y-64843272D01*
X68958627Y-64900967D01*
X68949242Y-64904016D01*
X68720915Y-64998592D01*
X68712121Y-65003073D01*
X68506072Y-65129340D01*
X68500810Y-65137401D01*
X67008500Y-65137401D01*
X67008500Y-62076695D01*
X84537251Y-62076695D01*
X84537548Y-62081848D01*
X84537548Y-62081851D01*
X84543011Y-62176590D01*
X84550110Y-62299715D01*
X84551247Y-62304761D01*
X84551248Y-62304767D01*
X84571119Y-62392939D01*
X84599222Y-62517639D01*
X84683266Y-62724616D01*
X84799987Y-62915088D01*
X84946250Y-63083938D01*
X85118126Y-63226632D01*
X85311000Y-63339338D01*
X85519692Y-63419030D01*
X85524760Y-63420061D01*
X85524763Y-63420062D01*
X85632017Y-63441883D01*
X85738597Y-63463567D01*
X85743772Y-63463757D01*
X85743774Y-63463757D01*
X85956673Y-63471564D01*
X85956677Y-63471564D01*
X85961837Y-63471753D01*
X85966957Y-63471097D01*
X85966959Y-63471097D01*
X86178288Y-63444025D01*
X86178289Y-63444025D01*
X86183416Y-63443368D01*
X86188366Y-63441883D01*
X86392429Y-63380661D01*
X86392434Y-63380659D01*
X86397384Y-63379174D01*
X86597994Y-63280896D01*
X86779860Y-63151173D01*
X86938096Y-62993489D01*
X86997594Y-62910689D01*
X87065435Y-62816277D01*
X87068453Y-62812077D01*
X87167430Y-62611811D01*
X87232370Y-62398069D01*
X87261529Y-62176590D01*
X87263156Y-62110000D01*
X87260418Y-62076695D01*
X99787251Y-62076695D01*
X99787548Y-62081848D01*
X99787548Y-62081851D01*
X99793011Y-62176590D01*
X99800110Y-62299715D01*
X99801247Y-62304761D01*
X99801248Y-62304767D01*
X99821119Y-62392939D01*
X99849222Y-62517639D01*
X99933266Y-62724616D01*
X100049987Y-62915088D01*
X100196250Y-63083938D01*
X100368126Y-63226632D01*
X100561000Y-63339338D01*
X100769692Y-63419030D01*
X100774760Y-63420061D01*
X100774763Y-63420062D01*
X100882017Y-63441883D01*
X100988597Y-63463567D01*
X100993772Y-63463757D01*
X100993774Y-63463757D01*
X101206673Y-63471564D01*
X101206677Y-63471564D01*
X101211837Y-63471753D01*
X101216957Y-63471097D01*
X101216959Y-63471097D01*
X101428288Y-63444025D01*
X101428289Y-63444025D01*
X101433416Y-63443368D01*
X101438366Y-63441883D01*
X101642429Y-63380661D01*
X101642434Y-63380659D01*
X101647384Y-63379174D01*
X101847994Y-63280896D01*
X102029860Y-63151173D01*
X102188096Y-62993489D01*
X102247594Y-62910689D01*
X102315435Y-62816277D01*
X102318453Y-62812077D01*
X102417430Y-62611811D01*
X102482370Y-62398069D01*
X102511529Y-62176590D01*
X102513156Y-62110000D01*
X102494852Y-61887361D01*
X102440431Y-61670702D01*
X102351354Y-61465840D01*
X102230014Y-61278277D01*
X102079670Y-61113051D01*
X102075619Y-61109852D01*
X102075615Y-61109848D01*
X101908414Y-60977800D01*
X101908410Y-60977798D01*
X101904359Y-60974598D01*
X101863053Y-60951796D01*
X101813084Y-60901364D01*
X101798312Y-60831921D01*
X101823428Y-60765516D01*
X101850780Y-60738909D01*
X101894603Y-60707650D01*
X102029860Y-60611173D01*
X102188096Y-60453489D01*
X102247594Y-60370689D01*
X102315435Y-60276277D01*
X102318453Y-60272077D01*
X102417430Y-60071811D01*
X102482370Y-59858069D01*
X102511529Y-59636590D01*
X102513156Y-59570000D01*
X102494852Y-59347361D01*
X102440431Y-59130702D01*
X102351354Y-58925840D01*
X102253557Y-58774669D01*
X169389501Y-58774669D01*
X169389871Y-58781490D01*
X169395395Y-58832352D01*
X169399021Y-58847604D01*
X169444176Y-58968054D01*
X169452714Y-58983649D01*
X169529215Y-59085724D01*
X169541776Y-59098285D01*
X169643851Y-59174786D01*
X169659446Y-59183324D01*
X169779894Y-59228478D01*
X169795149Y-59232105D01*
X169846014Y-59237631D01*
X169852828Y-59238000D01*
X172165385Y-59238000D01*
X172180624Y-59233525D01*
X172181829Y-59232135D01*
X172183500Y-59224452D01*
X172183500Y-59219884D01*
X172691500Y-59219884D01*
X172695975Y-59235123D01*
X172697365Y-59236328D01*
X172705048Y-59237999D01*
X175022169Y-59237999D01*
X175028990Y-59237629D01*
X175079852Y-59232105D01*
X175095104Y-59228479D01*
X175215554Y-59183324D01*
X175231149Y-59174786D01*
X175333224Y-59098285D01*
X175345785Y-59085724D01*
X175422286Y-58983649D01*
X175430824Y-58968054D01*
X175475978Y-58847606D01*
X175479605Y-58832351D01*
X175485131Y-58781486D01*
X175485500Y-58774672D01*
X175485500Y-58252115D01*
X175481025Y-58236876D01*
X175479635Y-58235671D01*
X175471952Y-58234000D01*
X172709615Y-58234000D01*
X172694376Y-58238475D01*
X172693171Y-58239865D01*
X172691500Y-58247548D01*
X172691500Y-59219884D01*
X172183500Y-59219884D01*
X172183500Y-58252115D01*
X172179025Y-58236876D01*
X172177635Y-58235671D01*
X172169952Y-58234000D01*
X169407616Y-58234000D01*
X169392377Y-58238475D01*
X169391172Y-58239865D01*
X169389501Y-58247548D01*
X169389501Y-58774669D01*
X102253557Y-58774669D01*
X102230014Y-58738277D01*
X102079670Y-58573051D01*
X102075619Y-58569852D01*
X102075615Y-58569848D01*
X101908414Y-58437800D01*
X101908410Y-58437798D01*
X101904359Y-58434598D01*
X101863053Y-58411796D01*
X101813084Y-58361364D01*
X101798312Y-58291921D01*
X101823428Y-58225516D01*
X101850780Y-58198909D01*
X101894603Y-58167650D01*
X102029860Y-58071173D01*
X102188096Y-57913489D01*
X102247594Y-57830689D01*
X102315435Y-57736277D01*
X102318453Y-57732077D01*
X102321457Y-57726000D01*
X102330410Y-57707885D01*
X169389500Y-57707885D01*
X169393975Y-57723124D01*
X169395365Y-57724329D01*
X169403048Y-57726000D01*
X172165385Y-57726000D01*
X172180624Y-57721525D01*
X172181829Y-57720135D01*
X172183500Y-57712452D01*
X172183500Y-57707885D01*
X172691500Y-57707885D01*
X172695975Y-57723124D01*
X172697365Y-57724329D01*
X172705048Y-57726000D01*
X175467384Y-57726000D01*
X175482623Y-57721525D01*
X175483828Y-57720135D01*
X175485499Y-57712452D01*
X175485499Y-57185331D01*
X175485129Y-57178510D01*
X175479605Y-57127648D01*
X175475979Y-57112396D01*
X175430824Y-56991946D01*
X175422286Y-56976351D01*
X175345785Y-56874276D01*
X175333224Y-56861715D01*
X175231149Y-56785214D01*
X175215554Y-56776676D01*
X175095106Y-56731522D01*
X175079851Y-56727895D01*
X175028986Y-56722369D01*
X175022172Y-56722000D01*
X172709615Y-56722000D01*
X172694376Y-56726475D01*
X172693171Y-56727865D01*
X172691500Y-56735548D01*
X172691500Y-57707885D01*
X172183500Y-57707885D01*
X172183500Y-56740116D01*
X172179025Y-56724877D01*
X172177635Y-56723672D01*
X172169952Y-56722001D01*
X169852831Y-56722001D01*
X169846010Y-56722371D01*
X169795148Y-56727895D01*
X169779896Y-56731521D01*
X169659446Y-56776676D01*
X169643851Y-56785214D01*
X169541776Y-56861715D01*
X169529215Y-56874276D01*
X169452714Y-56976351D01*
X169444176Y-56991946D01*
X169399022Y-57112394D01*
X169395395Y-57127649D01*
X169389869Y-57178514D01*
X169389500Y-57185328D01*
X169389500Y-57707885D01*
X102330410Y-57707885D01*
X102415136Y-57536453D01*
X102415137Y-57536451D01*
X102417430Y-57531811D01*
X102482370Y-57318069D01*
X102511529Y-57096590D01*
X102513156Y-57030000D01*
X102494852Y-56807361D01*
X102440431Y-56590702D01*
X102351354Y-56385840D01*
X102230014Y-56198277D01*
X102079670Y-56033051D01*
X102075619Y-56029852D01*
X102075615Y-56029848D01*
X101908414Y-55897800D01*
X101908410Y-55897798D01*
X101904359Y-55894598D01*
X101863053Y-55871796D01*
X101813084Y-55821364D01*
X101798312Y-55751921D01*
X101823428Y-55685516D01*
X101850780Y-55658909D01*
X101894603Y-55627650D01*
X102029860Y-55531173D01*
X102188096Y-55373489D01*
X102247594Y-55290689D01*
X102315435Y-55196277D01*
X102318453Y-55192077D01*
X102417430Y-54991811D01*
X102482370Y-54778069D01*
X102511529Y-54556590D01*
X102513156Y-54490000D01*
X102494852Y-54267361D01*
X102440431Y-54050702D01*
X102351354Y-53845840D01*
X102230014Y-53658277D01*
X102226532Y-53654450D01*
X102082798Y-53496488D01*
X102051746Y-53432642D01*
X102060141Y-53362143D01*
X102105317Y-53307375D01*
X102131761Y-53293706D01*
X102238297Y-53253767D01*
X102246705Y-53250615D01*
X102363261Y-53163261D01*
X102450615Y-53046705D01*
X102501745Y-52910316D01*
X102508500Y-52848134D01*
X102508500Y-51051866D01*
X102506418Y-51032703D01*
X171380743Y-51032703D01*
X171381302Y-51036947D01*
X171381302Y-51036951D01*
X171384210Y-51059036D01*
X171418268Y-51317734D01*
X171494129Y-51595036D01*
X171606923Y-51859476D01*
X171754561Y-52106161D01*
X171934313Y-52330528D01*
X172142851Y-52528423D01*
X172376317Y-52696186D01*
X172380112Y-52698195D01*
X172380113Y-52698196D01*
X172401869Y-52709715D01*
X172630392Y-52830712D01*
X172678000Y-52848134D01*
X172826453Y-52902460D01*
X172900373Y-52929511D01*
X173181264Y-52990755D01*
X173209841Y-52993004D01*
X173404282Y-53008307D01*
X173404291Y-53008307D01*
X173406739Y-53008500D01*
X173562271Y-53008500D01*
X173564407Y-53008354D01*
X173564418Y-53008354D01*
X173772548Y-52994165D01*
X173772554Y-52994164D01*
X173776825Y-52993873D01*
X173781020Y-52993004D01*
X173781022Y-52993004D01*
X173917584Y-52964723D01*
X174058342Y-52935574D01*
X174329343Y-52839607D01*
X174584812Y-52707750D01*
X174588313Y-52705289D01*
X174588317Y-52705287D01*
X174702417Y-52625096D01*
X174820023Y-52542441D01*
X175030622Y-52346740D01*
X175212713Y-52124268D01*
X175362927Y-51879142D01*
X175478483Y-51615898D01*
X175557244Y-51339406D01*
X175597751Y-51054784D01*
X175597785Y-51048469D01*
X175599235Y-50771583D01*
X175599235Y-50771576D01*
X175599257Y-50767297D01*
X175561732Y-50482266D01*
X175485871Y-50204964D01*
X175373077Y-49940524D01*
X175225439Y-49693839D01*
X175045687Y-49469472D01*
X174837149Y-49271577D01*
X174603683Y-49103814D01*
X174581843Y-49092250D01*
X174558654Y-49079972D01*
X174349608Y-48969288D01*
X174079627Y-48870489D01*
X173798736Y-48809245D01*
X173767685Y-48806801D01*
X173575718Y-48791693D01*
X173575709Y-48791693D01*
X173573261Y-48791500D01*
X173417729Y-48791500D01*
X173415593Y-48791646D01*
X173415582Y-48791646D01*
X173207452Y-48805835D01*
X173207446Y-48805836D01*
X173203175Y-48806127D01*
X173198980Y-48806996D01*
X173198978Y-48806996D01*
X173062417Y-48835276D01*
X172921658Y-48864426D01*
X172650657Y-48960393D01*
X172395188Y-49092250D01*
X172391687Y-49094711D01*
X172391683Y-49094713D01*
X172381594Y-49101804D01*
X172159977Y-49257559D01*
X171949378Y-49453260D01*
X171767287Y-49675732D01*
X171617073Y-49920858D01*
X171501517Y-50184102D01*
X171422756Y-50460594D01*
X171382249Y-50745216D01*
X171382227Y-50749505D01*
X171382226Y-50749512D01*
X171381007Y-50982285D01*
X171380743Y-51032703D01*
X102506418Y-51032703D01*
X102501745Y-50989684D01*
X102450615Y-50853295D01*
X102363261Y-50736739D01*
X102246705Y-50649385D01*
X102110316Y-50598255D01*
X102048134Y-50591500D01*
X100251866Y-50591500D01*
X100189684Y-50598255D01*
X100053295Y-50649385D01*
X99936739Y-50736739D01*
X99849385Y-50853295D01*
X99798255Y-50989684D01*
X99791500Y-51051866D01*
X99791500Y-52848134D01*
X99798255Y-52910316D01*
X99849385Y-53046705D01*
X99936739Y-53163261D01*
X100053295Y-53250615D01*
X100061704Y-53253767D01*
X100061705Y-53253768D01*
X100170451Y-53294535D01*
X100227216Y-53337176D01*
X100251916Y-53403738D01*
X100236709Y-53473087D01*
X100217316Y-53499568D01*
X100090629Y-53632138D01*
X99964743Y-53816680D01*
X99870688Y-54019305D01*
X99810989Y-54234570D01*
X99787251Y-54456695D01*
X99787548Y-54461848D01*
X99787548Y-54461851D01*
X99793011Y-54556590D01*
X99800110Y-54679715D01*
X99801247Y-54684761D01*
X99801248Y-54684767D01*
X99821119Y-54772939D01*
X99849222Y-54897639D01*
X99933266Y-55104616D01*
X100049987Y-55295088D01*
X100196250Y-55463938D01*
X100368126Y-55606632D01*
X100438595Y-55647811D01*
X100441445Y-55649476D01*
X100490169Y-55701114D01*
X100503240Y-55770897D01*
X100476509Y-55836669D01*
X100436055Y-55870027D01*
X100423607Y-55876507D01*
X100419474Y-55879610D01*
X100419471Y-55879612D01*
X100395247Y-55897800D01*
X100244965Y-56010635D01*
X100090629Y-56172138D01*
X99964743Y-56356680D01*
X99870688Y-56559305D01*
X99810989Y-56774570D01*
X99787251Y-56996695D01*
X99787548Y-57001848D01*
X99787548Y-57001851D01*
X99797734Y-57178510D01*
X99800110Y-57219715D01*
X99801247Y-57224761D01*
X99801248Y-57224767D01*
X99821119Y-57312939D01*
X99849222Y-57437639D01*
X99933266Y-57644616D01*
X100049987Y-57835088D01*
X100196250Y-58003938D01*
X100368126Y-58146632D01*
X100438595Y-58187811D01*
X100441445Y-58189476D01*
X100490169Y-58241114D01*
X100503240Y-58310897D01*
X100476509Y-58376669D01*
X100436055Y-58410027D01*
X100423607Y-58416507D01*
X100419474Y-58419610D01*
X100419471Y-58419612D01*
X100395247Y-58437800D01*
X100244965Y-58550635D01*
X100090629Y-58712138D01*
X99964743Y-58896680D01*
X99870688Y-59099305D01*
X99810989Y-59314570D01*
X99787251Y-59536695D01*
X99787548Y-59541848D01*
X99787548Y-59541851D01*
X99793011Y-59636590D01*
X99800110Y-59759715D01*
X99801247Y-59764761D01*
X99801248Y-59764767D01*
X99821119Y-59852939D01*
X99849222Y-59977639D01*
X99933266Y-60184616D01*
X100049987Y-60375088D01*
X100196250Y-60543938D01*
X100368126Y-60686632D01*
X100438595Y-60727811D01*
X100441445Y-60729476D01*
X100490169Y-60781114D01*
X100503240Y-60850897D01*
X100476509Y-60916669D01*
X100436055Y-60950027D01*
X100423607Y-60956507D01*
X100419474Y-60959610D01*
X100419471Y-60959612D01*
X100395247Y-60977800D01*
X100244965Y-61090635D01*
X100090629Y-61252138D01*
X99964743Y-61436680D01*
X99870688Y-61639305D01*
X99810989Y-61854570D01*
X99787251Y-62076695D01*
X87260418Y-62076695D01*
X87244852Y-61887361D01*
X87190431Y-61670702D01*
X87101354Y-61465840D01*
X86980014Y-61278277D01*
X86829670Y-61113051D01*
X86825619Y-61109852D01*
X86825615Y-61109848D01*
X86658414Y-60977800D01*
X86658410Y-60977798D01*
X86654359Y-60974598D01*
X86613053Y-60951796D01*
X86563084Y-60901364D01*
X86548312Y-60831921D01*
X86573428Y-60765516D01*
X86600780Y-60738909D01*
X86644603Y-60707650D01*
X86779860Y-60611173D01*
X86938096Y-60453489D01*
X86997594Y-60370689D01*
X87065435Y-60276277D01*
X87068453Y-60272077D01*
X87167430Y-60071811D01*
X87232370Y-59858069D01*
X87261529Y-59636590D01*
X87263156Y-59570000D01*
X87244852Y-59347361D01*
X87190431Y-59130702D01*
X87101354Y-58925840D01*
X86980014Y-58738277D01*
X86829670Y-58573051D01*
X86825619Y-58569852D01*
X86825615Y-58569848D01*
X86658414Y-58437800D01*
X86658410Y-58437798D01*
X86654359Y-58434598D01*
X86613053Y-58411796D01*
X86563084Y-58361364D01*
X86548312Y-58291921D01*
X86573428Y-58225516D01*
X86600780Y-58198909D01*
X86644603Y-58167650D01*
X86779860Y-58071173D01*
X86938096Y-57913489D01*
X86997594Y-57830689D01*
X87065435Y-57736277D01*
X87068453Y-57732077D01*
X87071457Y-57726000D01*
X87165136Y-57536453D01*
X87165137Y-57536451D01*
X87167430Y-57531811D01*
X87232370Y-57318069D01*
X87261529Y-57096590D01*
X87263156Y-57030000D01*
X87244852Y-56807361D01*
X87190431Y-56590702D01*
X87101354Y-56385840D01*
X86980014Y-56198277D01*
X86829670Y-56033051D01*
X86825619Y-56029852D01*
X86825615Y-56029848D01*
X86658414Y-55897800D01*
X86658410Y-55897798D01*
X86654359Y-55894598D01*
X86613053Y-55871796D01*
X86563084Y-55821364D01*
X86548312Y-55751921D01*
X86573428Y-55685516D01*
X86600780Y-55658909D01*
X86644603Y-55627650D01*
X86779860Y-55531173D01*
X86938096Y-55373489D01*
X86997594Y-55290689D01*
X87065435Y-55196277D01*
X87068453Y-55192077D01*
X87167430Y-54991811D01*
X87232370Y-54778069D01*
X87261529Y-54556590D01*
X87263156Y-54490000D01*
X87244852Y-54267361D01*
X87190431Y-54050702D01*
X87101354Y-53845840D01*
X86980014Y-53658277D01*
X86976532Y-53654450D01*
X86832798Y-53496488D01*
X86801746Y-53432642D01*
X86810141Y-53362143D01*
X86855317Y-53307375D01*
X86881761Y-53293706D01*
X86988297Y-53253767D01*
X86996705Y-53250615D01*
X87113261Y-53163261D01*
X87200615Y-53046705D01*
X87251745Y-52910316D01*
X87258500Y-52848134D01*
X87258500Y-51051866D01*
X87251745Y-50989684D01*
X87200615Y-50853295D01*
X87113261Y-50736739D01*
X86996705Y-50649385D01*
X86860316Y-50598255D01*
X86798134Y-50591500D01*
X85001866Y-50591500D01*
X84939684Y-50598255D01*
X84803295Y-50649385D01*
X84686739Y-50736739D01*
X84599385Y-50853295D01*
X84548255Y-50989684D01*
X84541500Y-51051866D01*
X84541500Y-52848134D01*
X84548255Y-52910316D01*
X84599385Y-53046705D01*
X84686739Y-53163261D01*
X84803295Y-53250615D01*
X84811704Y-53253767D01*
X84811705Y-53253768D01*
X84920451Y-53294535D01*
X84977216Y-53337176D01*
X85001916Y-53403738D01*
X84986709Y-53473087D01*
X84967316Y-53499568D01*
X84840629Y-53632138D01*
X84714743Y-53816680D01*
X84620688Y-54019305D01*
X84560989Y-54234570D01*
X84537251Y-54456695D01*
X84537548Y-54461848D01*
X84537548Y-54461851D01*
X84543011Y-54556590D01*
X84550110Y-54679715D01*
X84551247Y-54684761D01*
X84551248Y-54684767D01*
X84571119Y-54772939D01*
X84599222Y-54897639D01*
X84683266Y-55104616D01*
X84799987Y-55295088D01*
X84946250Y-55463938D01*
X85118126Y-55606632D01*
X85188595Y-55647811D01*
X85191445Y-55649476D01*
X85240169Y-55701114D01*
X85253240Y-55770897D01*
X85226509Y-55836669D01*
X85186055Y-55870027D01*
X85173607Y-55876507D01*
X85169474Y-55879610D01*
X85169471Y-55879612D01*
X85145247Y-55897800D01*
X84994965Y-56010635D01*
X84840629Y-56172138D01*
X84714743Y-56356680D01*
X84620688Y-56559305D01*
X84560989Y-56774570D01*
X84537251Y-56996695D01*
X84537548Y-57001848D01*
X84537548Y-57001851D01*
X84547734Y-57178510D01*
X84550110Y-57219715D01*
X84551247Y-57224761D01*
X84551248Y-57224767D01*
X84571119Y-57312939D01*
X84599222Y-57437639D01*
X84683266Y-57644616D01*
X84799987Y-57835088D01*
X84946250Y-58003938D01*
X85118126Y-58146632D01*
X85188595Y-58187811D01*
X85191445Y-58189476D01*
X85240169Y-58241114D01*
X85253240Y-58310897D01*
X85226509Y-58376669D01*
X85186055Y-58410027D01*
X85173607Y-58416507D01*
X85169474Y-58419610D01*
X85169471Y-58419612D01*
X85145247Y-58437800D01*
X84994965Y-58550635D01*
X84840629Y-58712138D01*
X84714743Y-58896680D01*
X84620688Y-59099305D01*
X84560989Y-59314570D01*
X84537251Y-59536695D01*
X84537548Y-59541848D01*
X84537548Y-59541851D01*
X84543011Y-59636590D01*
X84550110Y-59759715D01*
X84551247Y-59764761D01*
X84551248Y-59764767D01*
X84571119Y-59852939D01*
X84599222Y-59977639D01*
X84683266Y-60184616D01*
X84799987Y-60375088D01*
X84946250Y-60543938D01*
X85118126Y-60686632D01*
X85188595Y-60727811D01*
X85191445Y-60729476D01*
X85240169Y-60781114D01*
X85253240Y-60850897D01*
X85226509Y-60916669D01*
X85186055Y-60950027D01*
X85173607Y-60956507D01*
X85169474Y-60959610D01*
X85169471Y-60959612D01*
X85145247Y-60977800D01*
X84994965Y-61090635D01*
X84840629Y-61252138D01*
X84714743Y-61436680D01*
X84620688Y-61639305D01*
X84560989Y-61854570D01*
X84537251Y-62076695D01*
X67008500Y-62076695D01*
X67008500Y-51032703D01*
X69820743Y-51032703D01*
X69821302Y-51036947D01*
X69821302Y-51036951D01*
X69824210Y-51059036D01*
X69858268Y-51317734D01*
X69934129Y-51595036D01*
X70046923Y-51859476D01*
X70194561Y-52106161D01*
X70374313Y-52330528D01*
X70582851Y-52528423D01*
X70816317Y-52696186D01*
X70820112Y-52698195D01*
X70820113Y-52698196D01*
X70841869Y-52709715D01*
X71070392Y-52830712D01*
X71118000Y-52848134D01*
X71266453Y-52902460D01*
X71340373Y-52929511D01*
X71621264Y-52990755D01*
X71649841Y-52993004D01*
X71844282Y-53008307D01*
X71844291Y-53008307D01*
X71846739Y-53008500D01*
X72002271Y-53008500D01*
X72004407Y-53008354D01*
X72004418Y-53008354D01*
X72212548Y-52994165D01*
X72212554Y-52994164D01*
X72216825Y-52993873D01*
X72221020Y-52993004D01*
X72221022Y-52993004D01*
X72357584Y-52964723D01*
X72498342Y-52935574D01*
X72769343Y-52839607D01*
X73024812Y-52707750D01*
X73028313Y-52705289D01*
X73028317Y-52705287D01*
X73142417Y-52625096D01*
X73260023Y-52542441D01*
X73470622Y-52346740D01*
X73652713Y-52124268D01*
X73802927Y-51879142D01*
X73918483Y-51615898D01*
X73997244Y-51339406D01*
X74037751Y-51054784D01*
X74037785Y-51048469D01*
X74039235Y-50771583D01*
X74039235Y-50771576D01*
X74039257Y-50767297D01*
X74001732Y-50482266D01*
X73925871Y-50204964D01*
X73813077Y-49940524D01*
X73665439Y-49693839D01*
X73485687Y-49469472D01*
X73277149Y-49271577D01*
X73043683Y-49103814D01*
X73021843Y-49092250D01*
X72998654Y-49079972D01*
X72789608Y-48969288D01*
X72519627Y-48870489D01*
X72238736Y-48809245D01*
X72207685Y-48806801D01*
X72015718Y-48791693D01*
X72015709Y-48791693D01*
X72013261Y-48791500D01*
X71857729Y-48791500D01*
X71855593Y-48791646D01*
X71855582Y-48791646D01*
X71647452Y-48805835D01*
X71647446Y-48805836D01*
X71643175Y-48806127D01*
X71638980Y-48806996D01*
X71638978Y-48806996D01*
X71502417Y-48835276D01*
X71361658Y-48864426D01*
X71090657Y-48960393D01*
X70835188Y-49092250D01*
X70831687Y-49094711D01*
X70831683Y-49094713D01*
X70821594Y-49101804D01*
X70599977Y-49257559D01*
X70389378Y-49453260D01*
X70207287Y-49675732D01*
X70057073Y-49920858D01*
X69941517Y-50184102D01*
X69862756Y-50460594D01*
X69822249Y-50745216D01*
X69822227Y-50749505D01*
X69822226Y-50749512D01*
X69821007Y-50982285D01*
X69820743Y-51032703D01*
X67008500Y-51032703D01*
X67008500Y-46746000D01*
X67028502Y-46677879D01*
X67082158Y-46631386D01*
X67134500Y-46620000D01*
X177744000Y-46620000D01*
X177812121Y-46640002D01*
G37*
%TD.AperFunction*%
%TD*%
M02*
