%TF.GenerationSoftware,KiCad,Pcbnew,(6.0.4)*%
%TF.CreationDate,2022-04-28T22:30:41-04:00*%
%TF.ProjectId,cap_motherboad,6361705f-6d6f-4746-9865-72626f61642e,rev?*%
%TF.SameCoordinates,Original*%
%TF.FileFunction,Legend,Top*%
%TF.FilePolarity,Positive*%
%FSLAX46Y46*%
G04 Gerber Fmt 4.6, Leading zero omitted, Abs format (unit mm)*
G04 Created by KiCad (PCBNEW (6.0.4)) date 2022-04-28 22:30:41*
%MOMM*%
%LPD*%
G01*
G04 APERTURE LIST*
%ADD10C,0.150000*%
%ADD11C,0.120000*%
G04 APERTURE END LIST*
D10*
X151630000Y-83210000D02*
X131630000Y-83210000D01*
X131630000Y-83210000D02*
X131630000Y-102210000D01*
X131630000Y-102210000D02*
X151630000Y-102210000D01*
X151630000Y-102210000D02*
X151630000Y-83210000D01*
X84000000Y-93000000D02*
X103000000Y-93000000D01*
X103000000Y-93000000D02*
X103000000Y-113000000D01*
X103000000Y-113000000D02*
X84000000Y-113000000D01*
X84000000Y-113000000D02*
X84000000Y-93000000D01*
X84000000Y-47000000D02*
X103000000Y-47000000D01*
X103000000Y-47000000D02*
X103000000Y-67000000D01*
X103000000Y-67000000D02*
X84000000Y-67000000D01*
X84000000Y-67000000D02*
X84000000Y-47000000D01*
X175360000Y-83210000D02*
X155360000Y-83210000D01*
X155360000Y-83210000D02*
X155360000Y-102210000D01*
X155360000Y-102210000D02*
X175360000Y-102210000D01*
X175360000Y-102210000D02*
X175360000Y-83210000D01*
X84000000Y-70050000D02*
X103000000Y-70050000D01*
X103000000Y-70050000D02*
X103000000Y-90050000D01*
X103000000Y-90050000D02*
X84000000Y-90050000D01*
X84000000Y-90050000D02*
X84000000Y-70050000D01*
X127950000Y-83210000D02*
X107950000Y-83210000D01*
X107950000Y-83210000D02*
X107950000Y-102210000D01*
X107950000Y-102210000D02*
X127950000Y-102210000D01*
X127950000Y-102210000D02*
X127950000Y-83210000D01*
%TO.C,J9*%
X172632380Y-85438333D02*
X173346666Y-85438333D01*
X173489523Y-85485952D01*
X173584761Y-85581190D01*
X173632380Y-85724047D01*
X173632380Y-85819285D01*
X173632380Y-84914523D02*
X173632380Y-84724047D01*
X173584761Y-84628809D01*
X173537142Y-84581190D01*
X173394285Y-84485952D01*
X173203809Y-84438333D01*
X172822857Y-84438333D01*
X172727619Y-84485952D01*
X172680000Y-84533571D01*
X172632380Y-84628809D01*
X172632380Y-84819285D01*
X172680000Y-84914523D01*
X172727619Y-84962142D01*
X172822857Y-85009761D01*
X173060952Y-85009761D01*
X173156190Y-84962142D01*
X173203809Y-84914523D01*
X173251428Y-84819285D01*
X173251428Y-84628809D01*
X173203809Y-84533571D01*
X173156190Y-84485952D01*
X173060952Y-84438333D01*
%TO.C,J8*%
X148902380Y-85438333D02*
X149616666Y-85438333D01*
X149759523Y-85485952D01*
X149854761Y-85581190D01*
X149902380Y-85724047D01*
X149902380Y-85819285D01*
X149330952Y-84819285D02*
X149283333Y-84914523D01*
X149235714Y-84962142D01*
X149140476Y-85009761D01*
X149092857Y-85009761D01*
X148997619Y-84962142D01*
X148950000Y-84914523D01*
X148902380Y-84819285D01*
X148902380Y-84628809D01*
X148950000Y-84533571D01*
X148997619Y-84485952D01*
X149092857Y-84438333D01*
X149140476Y-84438333D01*
X149235714Y-84485952D01*
X149283333Y-84533571D01*
X149330952Y-84628809D01*
X149330952Y-84819285D01*
X149378571Y-84914523D01*
X149426190Y-84962142D01*
X149521428Y-85009761D01*
X149711904Y-85009761D01*
X149807142Y-84962142D01*
X149854761Y-84914523D01*
X149902380Y-84819285D01*
X149902380Y-84628809D01*
X149854761Y-84533571D01*
X149807142Y-84485952D01*
X149711904Y-84438333D01*
X149521428Y-84438333D01*
X149426190Y-84485952D01*
X149378571Y-84533571D01*
X149330952Y-84628809D01*
%TO.C,H2*%
X76708095Y-108402380D02*
X76708095Y-107402380D01*
X76708095Y-107878571D02*
X77279523Y-107878571D01*
X77279523Y-108402380D02*
X77279523Y-107402380D01*
X77708095Y-107497619D02*
X77755714Y-107450000D01*
X77850952Y-107402380D01*
X78089047Y-107402380D01*
X78184285Y-107450000D01*
X78231904Y-107497619D01*
X78279523Y-107592857D01*
X78279523Y-107688095D01*
X78231904Y-107830952D01*
X77660476Y-108402380D01*
X78279523Y-108402380D01*
%TO.C,J7*%
X125222380Y-85438333D02*
X125936666Y-85438333D01*
X126079523Y-85485952D01*
X126174761Y-85581190D01*
X126222380Y-85724047D01*
X126222380Y-85819285D01*
X125222380Y-85057380D02*
X125222380Y-84390714D01*
X126222380Y-84819285D01*
%TO.C,SMA1*%
X164608095Y-66444761D02*
X164750952Y-66492380D01*
X164989047Y-66492380D01*
X165084285Y-66444761D01*
X165131904Y-66397142D01*
X165179523Y-66301904D01*
X165179523Y-66206666D01*
X165131904Y-66111428D01*
X165084285Y-66063809D01*
X164989047Y-66016190D01*
X164798571Y-65968571D01*
X164703333Y-65920952D01*
X164655714Y-65873333D01*
X164608095Y-65778095D01*
X164608095Y-65682857D01*
X164655714Y-65587619D01*
X164703333Y-65540000D01*
X164798571Y-65492380D01*
X165036666Y-65492380D01*
X165179523Y-65540000D01*
X165608095Y-66492380D02*
X165608095Y-65492380D01*
X165941428Y-66206666D01*
X166274761Y-65492380D01*
X166274761Y-66492380D01*
X166703333Y-66206666D02*
X167179523Y-66206666D01*
X166608095Y-66492380D02*
X166941428Y-65492380D01*
X167274761Y-66492380D01*
X168131904Y-66492380D02*
X167560476Y-66492380D01*
X167846190Y-66492380D02*
X167846190Y-65492380D01*
X167750952Y-65635238D01*
X167655714Y-65730476D01*
X167560476Y-65778095D01*
%TO.C,H1*%
X76708095Y-51252380D02*
X76708095Y-50252380D01*
X76708095Y-50728571D02*
X77279523Y-50728571D01*
X77279523Y-51252380D02*
X77279523Y-50252380D01*
X78279523Y-51252380D02*
X77708095Y-51252380D01*
X77993809Y-51252380D02*
X77993809Y-50252380D01*
X77898571Y-50395238D01*
X77803333Y-50490476D01*
X77708095Y-50538095D01*
%TO.C,J1*%
X85566666Y-48632380D02*
X85566666Y-49346666D01*
X85519047Y-49489523D01*
X85423809Y-49584761D01*
X85280952Y-49632380D01*
X85185714Y-49632380D01*
X86566666Y-49632380D02*
X85995238Y-49632380D01*
X86280952Y-49632380D02*
X86280952Y-48632380D01*
X86185714Y-48775238D01*
X86090476Y-48870476D01*
X85995238Y-48918095D01*
%TO.C,H4*%
X166878095Y-108402380D02*
X166878095Y-107402380D01*
X166878095Y-107878571D02*
X167449523Y-107878571D01*
X167449523Y-108402380D02*
X167449523Y-107402380D01*
X168354285Y-107735714D02*
X168354285Y-108402380D01*
X168116190Y-107354761D02*
X167878095Y-108069047D01*
X168497142Y-108069047D01*
%TO.C,J5*%
X100816666Y-71682380D02*
X100816666Y-72396666D01*
X100769047Y-72539523D01*
X100673809Y-72634761D01*
X100530952Y-72682380D01*
X100435714Y-72682380D01*
X101769047Y-71682380D02*
X101292857Y-71682380D01*
X101245238Y-72158571D01*
X101292857Y-72110952D01*
X101388095Y-72063333D01*
X101626190Y-72063333D01*
X101721428Y-72110952D01*
X101769047Y-72158571D01*
X101816666Y-72253809D01*
X101816666Y-72491904D01*
X101769047Y-72587142D01*
X101721428Y-72634761D01*
X101626190Y-72682380D01*
X101388095Y-72682380D01*
X101292857Y-72634761D01*
X101245238Y-72587142D01*
%TO.C,J10*%
X125222380Y-101164523D02*
X125936666Y-101164523D01*
X126079523Y-101212142D01*
X126174761Y-101307380D01*
X126222380Y-101450238D01*
X126222380Y-101545476D01*
X126222380Y-100164523D02*
X126222380Y-100735952D01*
X126222380Y-100450238D02*
X125222380Y-100450238D01*
X125365238Y-100545476D01*
X125460476Y-100640714D01*
X125508095Y-100735952D01*
X125222380Y-99545476D02*
X125222380Y-99450238D01*
X125270000Y-99355000D01*
X125317619Y-99307380D01*
X125412857Y-99259761D01*
X125603333Y-99212142D01*
X125841428Y-99212142D01*
X126031904Y-99259761D01*
X126127142Y-99307380D01*
X126174761Y-99355000D01*
X126222380Y-99450238D01*
X126222380Y-99545476D01*
X126174761Y-99640714D01*
X126127142Y-99688333D01*
X126031904Y-99735952D01*
X125841428Y-99783571D01*
X125603333Y-99783571D01*
X125412857Y-99735952D01*
X125317619Y-99688333D01*
X125270000Y-99640714D01*
X125222380Y-99545476D01*
%TO.C,H3*%
X165608095Y-51252380D02*
X165608095Y-50252380D01*
X165608095Y-50728571D02*
X166179523Y-50728571D01*
X166179523Y-51252380D02*
X166179523Y-50252380D01*
X166560476Y-50252380D02*
X167179523Y-50252380D01*
X166846190Y-50633333D01*
X166989047Y-50633333D01*
X167084285Y-50680952D01*
X167131904Y-50728571D01*
X167179523Y-50823809D01*
X167179523Y-51061904D01*
X167131904Y-51157142D01*
X167084285Y-51204761D01*
X166989047Y-51252380D01*
X166703333Y-51252380D01*
X166608095Y-51204761D01*
X166560476Y-51157142D01*
%TO.C,Strain Relief*%
X168172380Y-80414761D02*
X168315238Y-80462380D01*
X168553333Y-80462380D01*
X168648571Y-80414761D01*
X168696190Y-80367142D01*
X168743809Y-80271904D01*
X168743809Y-80176666D01*
X168696190Y-80081428D01*
X168648571Y-80033809D01*
X168553333Y-79986190D01*
X168362857Y-79938571D01*
X168267619Y-79890952D01*
X168220000Y-79843333D01*
X168172380Y-79748095D01*
X168172380Y-79652857D01*
X168220000Y-79557619D01*
X168267619Y-79510000D01*
X168362857Y-79462380D01*
X168600952Y-79462380D01*
X168743809Y-79510000D01*
X169029523Y-79795714D02*
X169410476Y-79795714D01*
X169172380Y-79462380D02*
X169172380Y-80319523D01*
X169220000Y-80414761D01*
X169315238Y-80462380D01*
X169410476Y-80462380D01*
X169743809Y-80462380D02*
X169743809Y-79795714D01*
X169743809Y-79986190D02*
X169791428Y-79890952D01*
X169839047Y-79843333D01*
X169934285Y-79795714D01*
X170029523Y-79795714D01*
X170791428Y-80462380D02*
X170791428Y-79938571D01*
X170743809Y-79843333D01*
X170648571Y-79795714D01*
X170458095Y-79795714D01*
X170362857Y-79843333D01*
X170791428Y-80414761D02*
X170696190Y-80462380D01*
X170458095Y-80462380D01*
X170362857Y-80414761D01*
X170315238Y-80319523D01*
X170315238Y-80224285D01*
X170362857Y-80129047D01*
X170458095Y-80081428D01*
X170696190Y-80081428D01*
X170791428Y-80033809D01*
X171267619Y-80462380D02*
X171267619Y-79795714D01*
X171267619Y-79462380D02*
X171220000Y-79510000D01*
X171267619Y-79557619D01*
X171315238Y-79510000D01*
X171267619Y-79462380D01*
X171267619Y-79557619D01*
X171743809Y-79795714D02*
X171743809Y-80462380D01*
X171743809Y-79890952D02*
X171791428Y-79843333D01*
X171886666Y-79795714D01*
X172029523Y-79795714D01*
X172124761Y-79843333D01*
X172172380Y-79938571D01*
X172172380Y-80462380D01*
X173981904Y-80462380D02*
X173648571Y-79986190D01*
X173410476Y-80462380D02*
X173410476Y-79462380D01*
X173791428Y-79462380D01*
X173886666Y-79510000D01*
X173934285Y-79557619D01*
X173981904Y-79652857D01*
X173981904Y-79795714D01*
X173934285Y-79890952D01*
X173886666Y-79938571D01*
X173791428Y-79986190D01*
X173410476Y-79986190D01*
X174791428Y-80414761D02*
X174696190Y-80462380D01*
X174505714Y-80462380D01*
X174410476Y-80414761D01*
X174362857Y-80319523D01*
X174362857Y-79938571D01*
X174410476Y-79843333D01*
X174505714Y-79795714D01*
X174696190Y-79795714D01*
X174791428Y-79843333D01*
X174839047Y-79938571D01*
X174839047Y-80033809D01*
X174362857Y-80129047D01*
X175410476Y-80462380D02*
X175315238Y-80414761D01*
X175267619Y-80319523D01*
X175267619Y-79462380D01*
X175791428Y-80462380D02*
X175791428Y-79795714D01*
X175791428Y-79462380D02*
X175743809Y-79510000D01*
X175791428Y-79557619D01*
X175839047Y-79510000D01*
X175791428Y-79462380D01*
X175791428Y-79557619D01*
X176648571Y-80414761D02*
X176553333Y-80462380D01*
X176362857Y-80462380D01*
X176267619Y-80414761D01*
X176220000Y-80319523D01*
X176220000Y-79938571D01*
X176267619Y-79843333D01*
X176362857Y-79795714D01*
X176553333Y-79795714D01*
X176648571Y-79843333D01*
X176696190Y-79938571D01*
X176696190Y-80033809D01*
X176220000Y-80129047D01*
X176981904Y-79795714D02*
X177362857Y-79795714D01*
X177124761Y-80462380D02*
X177124761Y-79605238D01*
X177172380Y-79510000D01*
X177267619Y-79462380D01*
X177362857Y-79462380D01*
%TO.C,J11*%
X148902380Y-101164523D02*
X149616666Y-101164523D01*
X149759523Y-101212142D01*
X149854761Y-101307380D01*
X149902380Y-101450238D01*
X149902380Y-101545476D01*
X149902380Y-100164523D02*
X149902380Y-100735952D01*
X149902380Y-100450238D02*
X148902380Y-100450238D01*
X149045238Y-100545476D01*
X149140476Y-100640714D01*
X149188095Y-100735952D01*
X149902380Y-99212142D02*
X149902380Y-99783571D01*
X149902380Y-99497857D02*
X148902380Y-99497857D01*
X149045238Y-99593095D01*
X149140476Y-99688333D01*
X149188095Y-99783571D01*
%TO.C,J6*%
X100816666Y-94632380D02*
X100816666Y-95346666D01*
X100769047Y-95489523D01*
X100673809Y-95584761D01*
X100530952Y-95632380D01*
X100435714Y-95632380D01*
X101721428Y-94632380D02*
X101530952Y-94632380D01*
X101435714Y-94680000D01*
X101388095Y-94727619D01*
X101292857Y-94870476D01*
X101245238Y-95060952D01*
X101245238Y-95441904D01*
X101292857Y-95537142D01*
X101340476Y-95584761D01*
X101435714Y-95632380D01*
X101626190Y-95632380D01*
X101721428Y-95584761D01*
X101769047Y-95537142D01*
X101816666Y-95441904D01*
X101816666Y-95203809D01*
X101769047Y-95108571D01*
X101721428Y-95060952D01*
X101626190Y-95013333D01*
X101435714Y-95013333D01*
X101340476Y-95060952D01*
X101292857Y-95108571D01*
X101245238Y-95203809D01*
%TO.C,J3*%
X85566666Y-94632380D02*
X85566666Y-95346666D01*
X85519047Y-95489523D01*
X85423809Y-95584761D01*
X85280952Y-95632380D01*
X85185714Y-95632380D01*
X85947619Y-94632380D02*
X86566666Y-94632380D01*
X86233333Y-95013333D01*
X86376190Y-95013333D01*
X86471428Y-95060952D01*
X86519047Y-95108571D01*
X86566666Y-95203809D01*
X86566666Y-95441904D01*
X86519047Y-95537142D01*
X86471428Y-95584761D01*
X86376190Y-95632380D01*
X86090476Y-95632380D01*
X85995238Y-95584761D01*
X85947619Y-95537142D01*
%TO.C,J2*%
X85566666Y-71682380D02*
X85566666Y-72396666D01*
X85519047Y-72539523D01*
X85423809Y-72634761D01*
X85280952Y-72682380D01*
X85185714Y-72682380D01*
X85995238Y-71777619D02*
X86042857Y-71730000D01*
X86138095Y-71682380D01*
X86376190Y-71682380D01*
X86471428Y-71730000D01*
X86519047Y-71777619D01*
X86566666Y-71872857D01*
X86566666Y-71968095D01*
X86519047Y-72110952D01*
X85947619Y-72682380D01*
X86566666Y-72682380D01*
%TO.C,J12*%
X172632380Y-101164523D02*
X173346666Y-101164523D01*
X173489523Y-101212142D01*
X173584761Y-101307380D01*
X173632380Y-101450238D01*
X173632380Y-101545476D01*
X173632380Y-100164523D02*
X173632380Y-100735952D01*
X173632380Y-100450238D02*
X172632380Y-100450238D01*
X172775238Y-100545476D01*
X172870476Y-100640714D01*
X172918095Y-100735952D01*
X172727619Y-99783571D02*
X172680000Y-99735952D01*
X172632380Y-99640714D01*
X172632380Y-99402619D01*
X172680000Y-99307380D01*
X172727619Y-99259761D01*
X172822857Y-99212142D01*
X172918095Y-99212142D01*
X173060952Y-99259761D01*
X173632380Y-99831190D01*
X173632380Y-99212142D01*
%TO.C,QLA1*%
X71071428Y-74747619D02*
X70976190Y-74700000D01*
X70880952Y-74604761D01*
X70738095Y-74461904D01*
X70642857Y-74414285D01*
X70547619Y-74414285D01*
X70595238Y-74652380D02*
X70500000Y-74604761D01*
X70404761Y-74509523D01*
X70357142Y-74319047D01*
X70357142Y-73985714D01*
X70404761Y-73795238D01*
X70500000Y-73700000D01*
X70595238Y-73652380D01*
X70785714Y-73652380D01*
X70880952Y-73700000D01*
X70976190Y-73795238D01*
X71023809Y-73985714D01*
X71023809Y-74319047D01*
X70976190Y-74509523D01*
X70880952Y-74604761D01*
X70785714Y-74652380D01*
X70595238Y-74652380D01*
X71928571Y-74652380D02*
X71452380Y-74652380D01*
X71452380Y-73652380D01*
X72214285Y-74366666D02*
X72690476Y-74366666D01*
X72119047Y-74652380D02*
X72452380Y-73652380D01*
X72785714Y-74652380D01*
X73642857Y-74652380D02*
X73071428Y-74652380D01*
X73357142Y-74652380D02*
X73357142Y-73652380D01*
X73261904Y-73795238D01*
X73166666Y-73890476D01*
X73071428Y-73938095D01*
%TO.C,J4*%
X100816666Y-48632380D02*
X100816666Y-49346666D01*
X100769047Y-49489523D01*
X100673809Y-49584761D01*
X100530952Y-49632380D01*
X100435714Y-49632380D01*
X101721428Y-48965714D02*
X101721428Y-49632380D01*
X101483333Y-48584761D02*
X101245238Y-49299047D01*
X101864285Y-49299047D01*
D11*
%TO.C,J9*%
X171740000Y-86435000D02*
X170410000Y-86435000D01*
X169140000Y-83775000D02*
X158920000Y-83775000D01*
X169140000Y-86435000D02*
X158920000Y-86435000D01*
X158920000Y-83775000D02*
X158920000Y-86435000D01*
X171740000Y-85105000D02*
X171740000Y-86435000D01*
X169140000Y-83775000D02*
X169140000Y-86435000D01*
%TO.C,J8*%
X135190000Y-83775000D02*
X135190000Y-86435000D01*
X145410000Y-83775000D02*
X135190000Y-83775000D01*
X145410000Y-86435000D02*
X135190000Y-86435000D01*
X148010000Y-86435000D02*
X146680000Y-86435000D01*
X148010000Y-85105000D02*
X148010000Y-86435000D01*
X145410000Y-83775000D02*
X145410000Y-86435000D01*
%TO.C,J7*%
X121730000Y-86435000D02*
X111510000Y-86435000D01*
X111510000Y-83775000D02*
X111510000Y-86435000D01*
X124330000Y-85105000D02*
X124330000Y-86435000D01*
X121730000Y-83775000D02*
X111510000Y-83775000D01*
X124330000Y-86435000D02*
X123000000Y-86435000D01*
X121730000Y-83775000D02*
X121730000Y-86435000D01*
%TO.C,SMA1*%
X168727500Y-62480000D02*
X169227500Y-62230000D01*
X169227500Y-62230000D02*
X168727500Y-61980000D01*
X168727500Y-61980000D02*
X168727500Y-62480000D01*
%TO.C,J1*%
X87230000Y-50620000D02*
X87230000Y-51950000D01*
X85900000Y-50620000D02*
X87230000Y-50620000D01*
X84570000Y-53220000D02*
X87230000Y-53220000D01*
X87230000Y-53220000D02*
X87230000Y-63440000D01*
X84570000Y-63440000D02*
X87230000Y-63440000D01*
X84570000Y-53220000D02*
X84570000Y-63440000D01*
%TO.C,J5*%
X101150000Y-73670000D02*
X102480000Y-73670000D01*
X99820000Y-76270000D02*
X102480000Y-76270000D01*
X102480000Y-76270000D02*
X102480000Y-86490000D01*
X99820000Y-76270000D02*
X99820000Y-86490000D01*
X102480000Y-73670000D02*
X102480000Y-75000000D01*
X99820000Y-86490000D02*
X102480000Y-86490000D01*
%TO.C,J10*%
X121730000Y-99025000D02*
X111510000Y-99025000D01*
X121730000Y-99025000D02*
X121730000Y-101685000D01*
X121730000Y-101685000D02*
X111510000Y-101685000D01*
X124330000Y-100355000D02*
X124330000Y-101685000D01*
X124330000Y-101685000D02*
X123000000Y-101685000D01*
X111510000Y-99025000D02*
X111510000Y-101685000D01*
%TO.C,J11*%
X145410000Y-99025000D02*
X145410000Y-101685000D01*
X145410000Y-101685000D02*
X135190000Y-101685000D01*
X148010000Y-100355000D02*
X148010000Y-101685000D01*
X145410000Y-99025000D02*
X135190000Y-99025000D01*
X135190000Y-99025000D02*
X135190000Y-101685000D01*
X148010000Y-101685000D02*
X146680000Y-101685000D01*
%TO.C,J6*%
X102480000Y-99220000D02*
X102480000Y-109440000D01*
X101150000Y-96620000D02*
X102480000Y-96620000D01*
X99820000Y-109440000D02*
X102480000Y-109440000D01*
X102480000Y-96620000D02*
X102480000Y-97950000D01*
X99820000Y-99220000D02*
X99820000Y-109440000D01*
X99820000Y-99220000D02*
X102480000Y-99220000D01*
%TO.C,J3*%
X87230000Y-96620000D02*
X87230000Y-97950000D01*
X84570000Y-99220000D02*
X87230000Y-99220000D01*
X87230000Y-99220000D02*
X87230000Y-109440000D01*
X84570000Y-99220000D02*
X84570000Y-109440000D01*
X85900000Y-96620000D02*
X87230000Y-96620000D01*
X84570000Y-109440000D02*
X87230000Y-109440000D01*
%TO.C,J2*%
X87230000Y-76270000D02*
X87230000Y-86490000D01*
X85900000Y-73670000D02*
X87230000Y-73670000D01*
X84570000Y-86490000D02*
X87230000Y-86490000D01*
X87230000Y-73670000D02*
X87230000Y-75000000D01*
X84570000Y-76270000D02*
X87230000Y-76270000D01*
X84570000Y-76270000D02*
X84570000Y-86490000D01*
%TO.C,J12*%
X171740000Y-100355000D02*
X171740000Y-101685000D01*
X171740000Y-101685000D02*
X170410000Y-101685000D01*
X169140000Y-99025000D02*
X158920000Y-99025000D01*
X158920000Y-99025000D02*
X158920000Y-101685000D01*
X169140000Y-99025000D02*
X169140000Y-101685000D01*
X169140000Y-101685000D02*
X158920000Y-101685000D01*
%TO.C,QLA1*%
X67850000Y-64850000D02*
X76150000Y-64850000D01*
X67850000Y-73150000D02*
X67850000Y-64850000D01*
X76150000Y-73150000D02*
X76150000Y-64850000D01*
X67850000Y-73150000D02*
X76150000Y-73150000D01*
%TO.C,J4*%
X99820000Y-63440000D02*
X102480000Y-63440000D01*
X101150000Y-50620000D02*
X102480000Y-50620000D01*
X99820000Y-53220000D02*
X99820000Y-63440000D01*
X102480000Y-53220000D02*
X102480000Y-63440000D01*
X102480000Y-50620000D02*
X102480000Y-51950000D01*
X99820000Y-53220000D02*
X102480000Y-53220000D01*
%TD*%
M02*
